<?xml version="1.0"?>
<svg xmlns="http://www.w3.org/2000/svg" height="512px" viewBox="0 0 496 496" width="512px"><path d="m339.054688 240-16 32h-3.054688v-272h-320v331.3125l84.6875 84.6875h59.3125v56c0 13.230469 10.769531 24 24 24h304c13.230469 0 24-10.769531 24-24v-232zm-259.054688 148.6875-52.6875-52.6875h52.6875zm16 11.3125v-80h-80v-304h288v256h-160v128zm376 80h-304c-4.40625 0-8-3.585938-8-8v-152h248v-16h-248v-16h172.945312l16-32h131.054688v48h-56v16h56v152c0 4.414062-3.59375 8-8 8zm0 0" fill="#ff6161"/><path d="m272 200v-128c0-13.230469-10.769531-24-24-24h-176c-13.230469 0-24 10.769531-24 24v128c0 13.230469 10.769531 24 24 24h176c13.230469 0 24-10.769531 24-24zm-208 0v-128c0-4.40625 3.59375-8 8-8h176c4.40625 0 8 3.59375 8 8v128c0 4.40625-3.59375 8-8 8h-24v-23.753906c0-13.15625-7.894531-24.820313-20.113281-29.710938l-15.628907-6.246094c7.246094-7.25 11.742188-17.257812 11.742188-28.289062 0-22.054688-17.945312-40-40-40s-40 17.945312-40 40c0 11.03125 4.496094 21.039062 11.742188 28.289062l-15.628907 6.253907c-12.21875 4.882812-20.113281 16.546875-20.113281 29.703125v23.753906h-24c-4.40625 0-8-3.59375-8-8zm96-56c-13.230469 0-24-10.769531-24-24s10.769531-24 24-24 24 10.769531 24 24-10.769531 24-24 24zm14.464844 16 23.480468 9.390625c6.101563 2.441406 10.054688 8.273437 10.054688 14.855469v23.753906h-96v-23.753906c0-6.582032 3.953125-12.414063 10.054688-14.855469l23.480468-9.390625zm0 0" fill="#ff6161"/><path d="m360 384h16v16h-16zm0 0" fill="#ff6161"/><path d="m392 384h72v16h-72zm0 0" fill="#ff6161"/><path d="m392 416h72v16h-72zm0 0" fill="#ff6161"/><path d="m304 416h72v16h-72zm0 0" fill="#ff6161"/><path d="m304 448h72v16h-72zm0 0" fill="#ff6161"/><path d="m448 448h16v16h-16zm0 0" fill="#ff6161"/><path d="m392 448h40v16h-40zm0 0" fill="#ff6161"/></svg>
