<?xml version="1.0"?>
<svg xmlns="http://www.w3.org/2000/svg" height="512px" viewBox="-4 0 496 496" width="512px"><path d="m248 304v-8h8c13.230469 0 24-10.769531 24-24v-8c0-13.230469-10.769531-24-24-24h-32c-4.414062 0-8-3.585938-8-8v-8c0-4.414062 3.585938-8 8-8h32c4.414062 0 8 3.585938 8 8h16c0-13.230469-10.769531-24-24-24h-8v-8h-16v8h-8c-13.230469 0-24 10.769531-24 24v8c0 13.230469 10.769531 24 24 24h32c4.414062 0 8 3.585938 8 8v8c0 4.414062-3.585938 8-8 8h-32c-4.414062 0-8-3.585938-8-8h-16c0 13.230469 10.769531 24 24 24h8v8zm0 0" fill="#00d6fc"/><path d="m32.710938 231.375-.679688 8.625h136.121094l1.304687-6.40625c5.75-28.355469 27.789063-50.394531 56.144531-56.144531l6.398438-1.296875v-136.113282l-8.632812.679688c-31.03125 2.457031-60.855469 11.914062-87.574219 27.425781.109375-1.367187.207031-2.746093.207031-4.144531v-16c0-26.472656-21.527344-48-48-48s-48 21.527344-48 48v16c0 14.167969 6.207031 26.878906 16 35.679688v6.296874l-32.792969 9.359376c-13.664062 3.894531-23.207031 16.550781-23.207031 30.769531v61.894531h36.070312c-1.511718 7.753906-2.742187 15.550781-3.359374 23.375zm16.824218-7.375c.671875-5.367188 1.65625-10.695312 2.777344-16h109.457031c-2.59375 5.089844-4.867187 10.375-6.449219 16zm166.464844-166.457031v105.777343c-15.585938 4.390626-29.265625 12.976563-40 24.375v-41.589843c0-14.210938-9.542969-26.867188-23.207031-30.777344l-32.792969-9.359375v-6.289062c1.929688-1.734376 3.734375-3.589844 5.367188-5.617188 26.640624-19.863281 57.792968-32.414062 90.632812-36.519531zm-128 62.457031c-8.503906 0-14.015625-7.144531-16-10.207031v-.59375c5.015625 1.785156 10.382812 2.800781 16 2.800781s10.984375-1.023438 16-2.800781v.59375c-1.984375 3.0625-7.496094 10.207031-16 10.207031zm-32-72c0-17.648438 14.351562-32 32-32s32 14.351562 32 32v16c0 17.648438-14.351562 32-32 32s-32-14.351562-32-32zm-40 98.105469c0-7.113281 4.777344-13.433594 11.601562-15.386719l32.957032-9.414062c4.640625 6.046874 13.671875 14.695312 27.441406 14.695312s22.800781-8.648438 27.441406-14.703125l32.957032 9.414063c6.832031 1.953124 11.601562 8.273437 11.601562 15.386718v45.902344h-144zm0 0" fill="#00d6fc"/><path d="m169.457031 262.40625-1.304687-6.40625h-136.121094l.679688 8.632812c8.113281 102.351563 88.289062 182.535157 190.65625 190.648438l8.632812.679688v-136.113282l-6.40625-1.304687c-28.355469-5.742188-50.394531-27.78125-56.136719-56.136719zm46.542969 176.050781c-87.480469-10.816406-155.65625-78.992187-166.464844-166.457031h105.785156c8.289063 29.441406 31.238282 52.390625 60.679688 60.679688zm0 0" fill="#00d6fc"/><path d="m310.542969 233.59375 1.304687 6.40625h136.121094l-.679688-8.632812c-.625-7.855469-1.855468-15.648438-3.359374-23.367188h36.070312v-61.894531c0-14.210938-9.542969-26.867188-23.207031-30.777344l-32.792969-9.359375v-6.289062c9.792969-8.792969 16-21.503907 16-35.679688v-16c0-26.472656-21.527344-48-48-48s-48 21.527344-48 48v16c0 1.398438.089844 2.777344.207031 4.144531-26.71875-15.503906-56.542969-24.96875-87.574219-27.433593l-8.632812-.671876v136.113282l6.40625 1.304687c28.355469 5.742188 50.394531 27.78125 56.136719 56.136719zm119.921875-9.59375h-105.785156c-1.582032-5.625-3.855469-10.910156-6.449219-16h109.457031c1.121094 5.28125 2.097656 10.609375 2.777344 16zm21.933594-93.28125c6.832031 1.953125 11.601562 8.273438 11.601562 15.386719v45.894531h-144v-45.894531c0-7.113281 4.777344-13.433594 11.601562-15.386719l32.957032-9.414062c4.640625 6.046874 13.671875 14.695312 27.441406 14.695312s22.800781-8.648438 27.441406-14.703125zm-44.398438-20.925781c-1.984375 3.0625-7.496094 10.207031-16 10.207031s-14.015625-7.144531-16-10.207031v-.59375c5.015625 1.785156 10.382812 2.800781 16 2.800781s10.984375-1.023438 16-2.800781zm-48-61.792969c0-17.648438 14.351562-32 32-32s32 14.351562 32 32v16c0 17.648438-14.351562 32-32 32s-32-14.351562-32-32zm-96 9.542969c32.855469 4.105469 64 16.65625 90.648438 36.527343 1.625 2.019532 3.429687 3.875 5.351562 5.601563v6.296875l-32.792969 9.359375c-13.664062 3.902344-23.207031 16.558594-23.207031 30.777344v41.589843c-10.734375-11.398437-24.414062-19.984374-40-24.375zm0 0" fill="#00d6fc"/><path d="m104 336h16v16h-16zm0 0" fill="#00d6fc"/><path d="m136 336h16v16h-16zm0 0" fill="#00d6fc"/><path d="m168 336h16v16h-16zm0 0" fill="#00d6fc"/><path d="m136 368h16v16h-16zm0 0" fill="#00d6fc"/><path d="m168 368h16v16h-16zm0 0" fill="#00d6fc"/><path d="m464.792969 403.328125-32.792969-9.359375v-6.289062c9.792969-8.792969 16-21.503907 16-35.679688v-16c0-10.382812-3.351562-19.984375-8.976562-27.847656 4.273437-14.152344 7.097656-28.753906 8.265624-43.527344l.679688-8.625h-136.121094l-1.304687 6.40625c-5.75 28.355469-27.789063 50.394531-56.144531 56.144531l-6.398438 1.296875v136.113282l8.632812-.679688c19.039063-1.511719 37.574219-5.738281 55.367188-12.304688v53.023438h176v-61.894531c0-14.21875-9.542969-26.875-23.207031-30.777344zm-64.792969 4.671875c-8.503906 0-14.015625-7.144531-16-10.207031v-.59375c5.015625 1.785156 10.382812 2.800781 16 2.800781s10.984375-1.023438 16-2.800781v.59375c-1.984375 3.0625-7.496094 10.207031-16 10.207031zm32-56c0 17.648438-14.351562 32-32 32s-32-14.351562-32-32v-16c0-17.648438 14.351562-32 32-32s32 14.351562 32 32zm-168-19.320312c29.441406-8.289063 52.390625-31.238282 60.679688-60.679688h105.785156c-1 7.96875-2.671875 15.816406-4.65625 23.59375-7.464844-4.785156-16.304688-7.59375-25.808594-7.59375-26.472656 0-48 21.527344-48 48v16c0 14.167969 6.207031 26.878906 16 35.679688v6.296874l-32.792969 9.359376c-10.75 3.070312-18.871093 11.59375-21.878906 21.992187-15.808594 6.550781-32.335937 11.015625-49.335937 13.136719v-105.785156zm208 147.320312h-144v-45.894531c0-7.113281 4.777344-13.433594 11.601562-15.386719l32.957032-9.414062c4.640625 6.046874 13.671875 14.695312 27.441406 14.695312s22.800781-8.648438 27.441406-14.703125l32.957032 9.414063c6.832031 1.953124 11.601562 8.273437 11.601562 15.386718zm0 0" fill="#00d6fc"/></svg>
