<?xml version="1.0" encoding="iso-8859-1"?>
<!-- Generator: Adobe Illustrator 19.0.0, SVG Export Plug-In . SVG Version: 6.00 Build 0)  -->
<svg xmlns="http://www.w3.org/2000/svg" xmlns:xlink="http://www.w3.org/1999/xlink" version="1.1" id="Capa_1" x="0px" y="0px" viewBox="0 0 512 512" style="enable-background:new 0 0 512 512;" xml:space="preserve" width="512px" height="512px">
<g>
	<g>
		<g>
			<path d="M139.947,358.4h-16.623c-4.713,0-8.533,3.82-8.533,8.533s3.82,8.533,8.533,8.533h16.623c4.713,0,8.533-3.82,8.533-8.533     S144.659,358.4,139.947,358.4z" fill="#ac74ef"/>
			<path d="M90.069,358.4h-4.736c-1.998-0.006-3.931-0.712-5.461-1.997c-3.615-3.033-9.004-2.561-12.036,1.054     s-2.561,9.004,1.054,12.036c4.612,3.857,10.432,5.971,16.444,5.973h4.736c4.713,0,8.533-3.82,8.533-8.533     S94.782,358.4,90.069,358.4z" fill="#ac74ef"/>
			<path d="M76.8,331.52v-0.017V314.88c0-4.713-3.82-8.533-8.533-8.533s-8.533,3.82-8.533,8.533v16.64     c0,4.713,3.82,8.533,8.533,8.533S76.8,336.233,76.8,331.52z" fill="#ac74ef"/>
			<path d="M189.858,358.4h-16.631c-4.713,0-8.533,3.82-8.533,8.533s3.82,8.533,8.533,8.533h16.631c4.713,0,8.533-3.82,8.533-8.533     S194.571,358.4,189.858,358.4z" fill="#ac74ef"/>
			<path d="M239.787,358.4h-16.64c-4.713,0-8.533,3.82-8.533,8.533s3.82,8.533,8.533,8.533h16.64c4.713,0,8.533-3.82,8.533-8.533     S244.5,358.4,239.787,358.4z" fill="#ac74ef"/>
			<path d="M141.935,68.267h-16.862c-4.713,0-8.533,3.82-8.533,8.533s3.82,8.533,8.533,8.533h16.862c4.713,0,8.533-3.82,8.533-8.533     S146.648,68.267,141.935,68.267z" fill="#ac74ef"/>
			<path d="M401.067,119.8c0,4.713,3.82,8.533,8.533,8.533s8.533-3.82,8.533-8.533v-16.862c0-4.713-3.82-8.533-8.533-8.533     s-8.533,3.82-8.533,8.533V119.8z" fill="#ac74ef"/>
			<path d="M68.267,103.049c-4.713,0-8.533,3.82-8.533,8.533v16.853c0,4.713,3.82,8.533,8.533,8.533s8.533-3.82,8.533-8.533v-16.853     C76.8,106.869,72.979,103.049,68.267,103.049z" fill="#ac74ef"/>
			<path d="M91.392,68.267h-0.017h-6.084c-5.444-0.009-10.745,1.742-15.112,4.992c-2.533,1.78-3.904,4.792-3.582,7.871     c0.322,3.079,2.287,5.742,5.134,6.959s6.129,0.796,8.577-1.099c1.452-1.081,3.216-1.662,5.026-1.655h6.059     c4.713,0,8.533-3.82,8.533-8.533S96.105,68.267,91.392,68.267z" fill="#ac74ef"/>
			<path d="M243.038,68.267h-16.845c-4.713,0-8.533,3.82-8.533,8.533s3.82,8.533,8.533,8.533h16.845c4.713,0,8.533-3.82,8.533-8.533     S247.751,68.267,243.038,68.267z" fill="#ac74ef"/>
			<path d="M276.745,85.333h16.853c4.713,0,8.533-3.82,8.533-8.533s-3.82-8.533-8.533-8.533h-16.853     c-4.713,0-8.533,3.82-8.533,8.533S272.032,85.333,276.745,85.333z" fill="#ac74ef"/>
			<path d="M377.856,85.333h14.677c0.36,0,0.719,0.025,1.075,0.077c0.365,0.044,0.733,0.067,1.101,0.068     c4.532,0.042,8.307-3.467,8.595-7.99c0.288-4.523-3.01-8.483-7.511-9.017c-1.082-0.133-2.17-0.201-3.26-0.205h-14.677     c-4.713,0-8.533,3.82-8.533,8.533S373.143,85.333,377.856,85.333z" fill="#ac74ef"/>
			<path d="M192.486,68.267h-16.853c-4.713,0-8.533,3.82-8.533,8.533s3.82,8.533,8.533,8.533h16.853c4.713,0,8.533-3.82,8.533-8.533     S197.199,68.267,192.486,68.267z" fill="#ac74ef"/>
			<path d="M327.296,85.333h16.853c4.713,0,8.533-3.82,8.533-8.533s-3.82-8.533-8.533-8.533h-16.853     c-4.713,0-8.533,3.82-8.533,8.533S322.583,85.333,327.296,85.333z" fill="#ac74ef"/>
			<path d="M110.933,196.267c-14.138,0-25.6,11.461-25.6,25.6s11.462,25.6,25.6,25.6s25.6-11.462,25.6-25.6     S125.072,196.267,110.933,196.267z M110.933,230.4c-4.713,0-8.533-3.82-8.533-8.533s3.82-8.533,8.533-8.533     s8.533,3.82,8.533,8.533S115.646,230.4,110.933,230.4z" fill="#ac74ef"/>
			<path d="M486.4,153.6h-34.133V76.8c-0.028-23.552-19.114-42.638-42.667-42.667H68.267C44.714,34.162,25.628,53.248,25.6,76.8     v86.545C10.576,167.224,0.058,180.75,0,196.267v51.2c0.058,15.517,10.576,29.042,25.6,32.922v86.545     c0.028,23.552,19.114,42.638,42.667,42.667h233.259c21.253,27.474,47.884,50.325,78.268,67.157c2.61,1.479,5.804,1.479,8.414,0     C510.592,407.305,512,293.368,512,288.546V179.2C512,165.062,500.539,153.6,486.4,153.6z M34.133,264.533     c-9.426,0-17.067-7.641-17.067-17.067v-51.2c0-9.426,7.641-17.067,17.067-17.067h102.4c9.426,0,17.067,7.641,17.067,17.067v51.2     c0,9.426-7.641,17.067-17.067,17.067H34.133z M68.267,392.533c-14.138,0-25.6-11.461-25.6-25.6V281.6h17.067     c0,4.713,3.82,8.533,8.533,8.533s8.533-3.82,8.533-8.533h59.733c18.851,0,34.133-15.282,34.133-34.133v-51.2     c0-18.851-15.282-34.133-34.133-34.133H76.8c0-4.713-3.82-8.533-8.533-8.533s-8.533,3.82-8.533,8.533H42.667V76.8     c0-14.138,11.461-25.6,25.6-25.6H409.6c14.138,0,25.6,11.461,25.6,25.6v76.8h-17.067c0-4.713-3.82-8.533-8.533-8.533     s-8.533,3.82-8.533,8.533H281.6c-14.138,0-25.6,11.462-25.6,25.6v109.346c1.043,24.136,6.494,47.877,16.085,70.05     c-4.272,0.452-7.524,4.041-7.552,8.337c0,4.713,3.821,8.533,8.533,8.533h6.878c2.884,5.604,6.135,11.292,9.754,17.067H68.267z      M494.933,288.538c0,4.361-1.638,106.385-110.933,170.94c-27.818-16.059-52.062-37.631-71.245-63.394     c-0.254-0.4-0.539-0.78-0.853-1.135c-23.049-30.919-36.549-67.905-38.835-106.402V179.2c0-4.713,3.82-8.533,8.533-8.533h204.8     c4.713,0,8.533,3.821,8.533,8.533V288.538z" fill="#ac74ef"/>
			<path d="M460.8,187.733c-4.713,0-8.533,3.82-8.533,8.533s3.821,8.533,8.533,8.533v83.627     c-0.051,3.217-2.074,79.471-81.604,133.683c-2.612,1.677-4.108,4.641-3.904,7.739c0.203,3.098,2.073,5.841,4.882,7.163     c2.809,1.322,6.115,1.013,8.631-0.805c86.767-59.136,89.011-143.949,89.062-147.661V204.8     C477.867,195.374,470.226,187.733,460.8,187.733z" fill="#ac74ef"/>
			<path d="M307.2,288.546V204.8h93.867c4.713,0,8.533-3.82,8.533-8.533s-3.82-8.533-8.533-8.533H307.2     c-9.426,0-17.067,7.641-17.067,17.067v83.746c2.397,34.912,14.812,68.392,35.755,96.427c1.79,2.469,4.761,3.797,7.794,3.481     c3.033-0.315,5.668-2.225,6.912-5.009c1.244-2.785,0.908-6.021-0.882-8.491C320.938,349.797,309.667,319.84,307.2,288.546z" fill="#ac74ef"/>
			<path d="M441.233,248.9c-3.332-3.331-8.734-3.331-12.066,0l-63.3,63.3l-9.967-9.967c-3.348-3.234-8.671-3.188-11.962,0.104     c-3.292,3.292-3.338,8.614-0.104,11.962l16,16c3.332,3.331,8.734,3.331,12.066,0l69.333-69.333     C444.564,257.634,444.564,252.233,441.233,248.9z" fill="#ac74ef"/>
		</g>
	</g>
</g>
<g>
</g>
<g>
</g>
<g>
</g>
<g>
</g>
<g>
</g>
<g>
</g>
<g>
</g>
<g>
</g>
<g>
</g>
<g>
</g>
<g>
</g>
<g>
</g>
<g>
</g>
<g>
</g>
<g>
</g>
</svg>
