<?xml version="1.0"?>
<svg xmlns="http://www.w3.org/2000/svg" height="512px" viewBox="-52 0 496 496" width="512px"><path d="m152 416c-13.230469 0-24 10.769531-24 24s10.769531 24 24 24 24-10.769531 24-24-10.769531-24-24-24zm0 32c-4.414062 0-8-3.585938-8-8s3.585938-8 8-8 8 3.585938 8 8-3.585938 8-8 8zm0 0" fill="#ac74ef"/><path d="m384 104h-.96875c-28.160156 0-55.65625-8.414062-79.03125-23.769531v-32.230469c0-26.472656-21.527344-48-48-48h-208c-26.472656 0-48 21.527344-48 48v400c0 26.472656 21.527344 48 48 48h208c26.472656 0 48-21.527344 48-48v-94.878906l50.097656-34.679688c23.734375-16.441406 37.902344-43.488281 37.902344-72.351562v-134.089844c0-4.425781-3.574219-8-8-8zm-96 344c0 17.648438-14.351562 32-32 32h-208c-17.648438 0-32-14.351562-32-32v-400c0-17.648438 14.351562-32 32-32h208c17.648438 0 32 14.351562 32 32v20.246094l-2.871094-2.398438c-2.96875-2.472656-7.28125-2.472656-10.25 0l-2.878906 2.398438v-28.246094c0-4.425781-3.574219-8-8-8h-224c-4.425781 0-8 3.574219-8 8v352c0 4.425781 3.574219 8 8 8h224c4.425781 0 8-3.574219 8-8v-27.808594l3.449219 2.382813c1.367187.945312 2.957031 1.425781 4.550781 1.425781s3.183594-.480469 4.550781-1.425781l3.449219-2.382813zm-120-336v16h-57.472656c-3.3125-9.289062-12.113282-16-22.527344-16-13.230469 0-24 10.769531-24 24s10.769531 24 24 24c10.414062 0 19.214844-6.710938 22.527344-16h57.472656v48h-17.472656c-3.3125-9.289062-12.113282-16-22.527344-16-13.230469 0-24 10.769531-24 24s10.769531 24 24 24c10.414062 0 19.214844-6.710938 22.527344-16h17.472656v38.089844c0 28.863281 14.167969 55.910156 37.902344 72.351562l50.097656 34.679688v30.878906h-208v-336h208v32.230469c-23.375 15.355469-50.871094 23.769531-79.03125 23.769531h-.96875c-4.425781 0-8 3.574219-8 8zm-72 24c0 4.414062-3.585938 8-8 8s-8-3.585938-8-8 3.585938-8 8-8 8 3.585938 8 8zm40 64c0 4.414062-3.585938 8-8 8s-8-3.585938-8-8 3.585938-8 8-8 8 3.585938 8 8zm240 46.089844c0 23.613281-11.59375 45.742187-31.015625 59.191406l-64.984375 44.992188-64.984375-44.992188c-19.421875-13.449219-31.015625-35.578125-31.015625-59.191406v-126.25c34.863281-1.535156 68.496094-14.511719 95.398438-36.917969l.601562-.507813.601562.507813c26.894532 22.40625 60.527344 35.382813 95.398438 36.917969zm0 0" fill="#ac74ef"/><path d="m200 216c0 44.113281 35.886719 80 80 80s80-35.886719 80-80-35.886719-80-80-80-80 35.886719-80 80zm144 0c0 35.289062-28.710938 64-64 64s-64-28.710938-64-64 28.710938-64 64-64 64 28.710938 64 64zm0 0" fill="#ac74ef"/><path d="m253.65625 218.34375-11.3125 11.3125 32 32c1.511719 1.511719 3.550781 2.34375 5.65625 2.34375.527344 0 1.070312-.054688 1.609375-.167969 2.628906-.535156 4.824219-2.367187 5.824219-4.863281l32-80-14.859375-5.9375-27.496094 68.738281zm0 0" fill="#ac74ef"/></svg>
