<svg height="480pt" viewBox="0 -23 480 479" width="480pt" xmlns="http://www.w3.org/2000/svg"><path d="m272 264.5 16 48-40 8-16-24v-32zm0 0" fill="#eecfb1"/><path d="m248 240.5h16v24h-16zm0 0" fill="#eecfb1"/><path d="m0 56.5h224v16h-224zm0 0" fill="#7d4739"/><path d="m264 24.5-40 120v-136zm0 0" fill="#7b7b7b"/><path d="m360 56.5-8 16-56-24-24 104-48-8 48-144zm0 0" fill="#4e4e4e"/><path d="m216 200.5-48 16-14.558594 43.761719c-8.246094-2.523438-16.820312-3.792969-25.441406-3.761719-10.03125-.019531-19.988281 1.6875-29.441406 5.039062l53.441406-61.039062zm0 0" fill="#0f71c7"/><path d="m264 240.5-8 .878906-64 7.121094-22.238281 18.558594c-5.175781-2.855469-10.648438-5.136719-16.320313-6.796875l14.558594-43.761719 48-16 8-56 48 8 8 72zm0 0" fill="#168de2"/><path d="m184 344.5c0 30.929688-25.070312 56-56 56s-56-25.070312-56-56 25.070312-56 56-56 56 25.070312 56 56zm0 0" fill="#fecf2c"/><g fill="#f29a2b"><path d="m169.761719 267.058594-25.761719 21.441406 9.441406-28.238281c5.671875 1.660156 11.144532 3.941406 16.320313 6.796875zm0 0"/><path d="m184 344.5c0-30.929688-25.070312-56-56-56s-56 25.070312-56 56 25.070312 56 56 56c30.914062-.035156 55.964844-25.085938 56-56zm-40-56 25.761719-21.441406c39.136719 21.109375 56.414062 68.070312 40.285156 109.511718-16.128906 41.4375-60.605469 64.367188-103.714844 53.464844s-71.339843-52.214844-65.832031-96.339844c5.511719-44.125 43.035156-77.230468 87.5-77.195312 8.621094-.03125 17.195312 1.238281 25.441406 3.761719zm0 0"/><path d="m128 376.5v-16c8.835938 0 16-7.164062 16-16h16c0 17.671875-14.328125 32-32 32zm0 0"/></g><path d="m360 72.5h-8l-2.03125-22.382812 10.4375-20.144532 15.1875 5.054688zm0 0" fill="#7b7b7b"/><path d="m480 72.5h-189.535156l3.6875-16h185.847656zm0 0" fill="#7d4739"/></svg>