<?xml version="1.0" encoding="iso-8859-1"?>
<!-- Generator: Adobe Illustrator 19.0.0, SVG Export Plug-In . SVG Version: 6.00 Build 0)  -->
<svg version="1.1" id="Capa_1" xmlns="http://www.w3.org/2000/svg" xmlns:xlink="http://www.w3.org/1999/xlink" x="0px" y="0px"
	 viewBox="0 0 512 512" style="enable-background:new 0 0 512 512;" xml:space="preserve">
<rect x="241" y="194.96" style="fill:#DCE1EB;" width="30" height="128.01"/>
<rect x="256" y="194.96" style="fill:#CDD2E1;" width="15" height="128.01"/>
<polygon style="fill:#AFB4C8;" points="289.143,209.957 222.857,209.957 203.511,146 308.489,146 "/>
<polygon style="fill:#9196AA;" points="289.143,209.957 256,209.957 256,146 308.489,146 "/>
<rect y="33.712" style="fill:#AFB4C8;" width="512" height="30"/>
<rect x="256" y="33.712" style="fill:#9196AA;" width="256" height="30"/>
<rect x="179.59" style="fill:#64E1DC;" width="152.82" height="152.82"/>
<rect x="256" style="fill:#00C8C8;" width="76.41" height="152.82"/>
<path style="fill:#64E1DC;" d="M496.298,512v-43.445l-59.961-11.498c-3.58-11.767-8.281-23.044-13.977-33.711l34.277-50.542
	l-61.441-61.441l-50.542,34.277c-10.667-5.696-21.944-10.397-33.711-13.977l-11.498-59.961h-86.891l-11.498,59.961
	c-11.767,3.58-23.044,8.281-33.711,13.977l-50.542-34.277l-61.441,61.441l34.277,50.542c-5.696,10.667-10.397,21.944-13.977,33.711
	l-59.961,11.498V512H496.298z"/>
<path style="fill:#00C8C8;" d="M496.298,512v-43.445l-59.961-11.498c-3.58-11.767-8.281-23.044-13.977-33.711l34.277-50.542
	l-61.441-61.441l-50.542,34.277c-10.667-5.696-21.944-10.397-33.711-13.977l-11.498-59.961H256V512H496.298z"/>
<path style="fill:#E9EDF5;" d="M256,417.052c-52.355,0-94.948,42.593-94.948,94.948h189.896
	C350.948,459.645,308.355,417.052,256,417.052z"/>
<path style="fill:#DCE1EB;" d="M256,417.052c0,37.107,0,94.948,0,94.948h94.948C350.948,459.645,308.355,417.052,256,417.052z"/>
<g>
</g>
<g>
</g>
<g>
</g>
<g>
</g>
<g>
</g>
<g>
</g>
<g>
</g>
<g>
</g>
<g>
</g>
<g>
</g>
<g>
</g>
<g>
</g>
<g>
</g>
<g>
</g>
<g>
</g>
</svg>
