<svg height="464pt" viewBox="-24 0 464 464" width="464pt" xmlns="http://www.w3.org/2000/svg"><path d="m62.625 161.367188c-3.234375 0-6.152344-1.949219-7.390625-4.9375-1.238281-2.988282-.554687-6.429688 1.734375-8.71875l71.199219-71.199219c2.007812-2.078125 4.984375-2.914063 7.78125-2.179688 2.796875.730469 4.980469 2.914063 5.710937 5.710938.734375 2.796875-.101562 5.773437-2.179687 7.78125l-71.199219 71.199219c-1.496094 1.507812-3.535156 2.351562-5.65625 2.34375zm0 0" fill="#ffdaaa"/><path d="m286.625 129.367188c-3.234375 0-6.152344-1.949219-7.390625-4.9375-1.238281-2.988282-.554687-6.429688 1.734375-8.71875l66.519531-66.503907c3.140625-3.03125 8.128907-2.988281 11.214844.097657 3.085937 3.085937 3.128906 8.078124.097656 11.214843l-66.519531 66.503907c-1.496094 1.507812-3.535156 2.351562-5.65625 2.34375zm0 0" fill="#ffdaaa"/><path d="m236.496094 135.199219c-1.761719.003906-3.472656-.582031-4.863282-1.664063l-58.296874-44.800781c-3.515626-2.691406-4.183594-7.726563-1.492188-11.242187 2.691406-3.515626 7.726562-4.183594 11.246094-1.492188l58.292968 44.800781c2.71875 2.089844 3.804688 5.679688 2.699219 8.921875-1.105469 3.246094-4.15625 5.425782-7.585937 5.421875zm0 0" fill="#ffdaaa"/><g fill="#ffaf46"><path d="m72 176c0 17.671875-14.328125 32-32 32s-32-14.328125-32-32 14.328125-32 32-32 32 14.328125 32 32zm0 0"/><path d="m133.648438 90.214844c14.476562 10.136718 34.429687 6.613281 44.566406-7.863282 10.132812-14.476562 6.613281-34.429687-7.863282-44.566406-14.480468-10.136718-34.433593-6.613281-44.566406 7.863282-10.136718 14.476562-6.617187 34.433593 7.863282 44.566406zm0 0"/><path d="m296 144c0 17.671875-14.328125 32-32 32s-32-14.328125-32-32 14.328125-32 32-32 32 14.328125 32 32zm0 0"/><path d="m408 32c0 17.671875-14.328125 32-32 32s-32-14.328125-32-32 14.328125-32 32-32 32 14.328125 32 32zm0 0"/></g><path d="m40 304h40v160h-40zm0 0" fill="#9fdaae"/><path d="m0 304h40v160h-40zm0 0" fill="#86d09a"/><path d="m152 192h40v272h-40zm0 0" fill="#9fdaae"/><path d="m112 192h40v272h-40zm0 0" fill="#86d09a"/><path d="m224 272h40v192h-40zm0 0" fill="#86d09a"/><path d="m264 272h40v192h-40zm0 0" fill="#9fdaae"/><path d="m336 160h40v304h-40zm0 0" fill="#86d09a"/><path d="m376 160h40v304h-40zm0 0" fill="#9fdaae"/></svg>