<svg height="512pt" viewBox="-46 0 512 512.00105" width="512pt" xmlns="http://www.w3.org/2000/svg"><path d="m404.683594 52.925781h-53.167969c-8.667969 0-298.34375 381.789063-298.34375 390.457031v52.925782c0 8.667968 7.027344 15.691406 15.691406 15.691406h335.820313c8.667968 0 15.695312-7.023438 15.695312-15.691406v-427.691406c0-8.664063-7.027344-15.691407-15.695312-15.691407zm0 0" fill="#19cffc"/><path d="m404.683594 52.925781h-53.167969c-4.640625 0-89.773437 109.367188-167.910156 212.359375v246.714844h221.082031c8.664062 0 15.691406-7.027344 15.691406-15.691406v-427.691406c0-8.664063-7.027344-15.691407-15.695312-15.691407zm0 0" fill="#4ab8f7"/><path d="m351.515625 0h-335.824219c-8.664062 0-15.691406 7.027344-15.691406 15.691406v427.691406c0 8.664063 7.027344 15.691407 15.691406 15.691407h335.824219c8.664063 0 15.691406-7.027344 15.691406-15.691407v-427.691406c0-8.664062-7.027343-15.691406-15.691406-15.691406zm0 0" fill="#dbeeff"/><path d="m351.515625 0h-167.910156v459.074219h167.910156c8.664063 0 15.691406-7.027344 15.691406-15.691407v-427.691406c0-8.664062-7.027343-15.691406-15.691406-15.691406zm0 0" fill="#bfe1ff"/><path d="m251.183594 161.699219c-14.085938-23.757813-39.980469-38.519531-67.582032-38.519531-27.597656 0-53.492187 14.761718-67.578124 38.523437-6.808594 11.488281-6.914063 25.296875-.28125 36.941406 6.6875 11.734375 18.730468 18.742188 32.214843 18.742188h71.289063c13.488281 0 25.53125-7.007813 32.21875-18.742188 6.632812-11.644531 6.527344-25.453125-.28125-36.945312zm0 0" fill="#fe6a16"/><path d="m183.605469 123.179688v94.207031h35.644531c13.484375 0 25.527344-7.007813 32.214844-18.742188 6.632812-11.644531 6.527344-25.453125-.28125-36.945312-14.085938-23.757813-39.980469-38.519531-67.578125-38.519531zm0 0" fill="#ff432e"/><path d="m217.277344 73.269531c-18.566406-18.566406-48.777344-18.566406-67.347656 0-8.992188 8.996094-13.945313 20.953125-13.945313 33.671875 0 12.722656 4.953125 24.679688 13.945313 33.675782 9.285156 9.28125 21.480468 13.925781 33.675781 13.925781 12.195312 0 24.390625-4.644531 33.671875-13.925781 8.996094-8.996094 13.949218-20.953126 13.949218-33.675782 0-12.71875-4.957031-24.675781-13.949218-33.671875zm0 0" fill="#ffd2bf"/><path d="m183.605469 154.542969c12.191406 0 24.386719-4.644531 33.671875-13.925781 8.996094-8.996094 13.949218-20.953126 13.949218-33.675782s-4.953124-24.679687-13.949218-33.671875c-9.285156-9.285156-21.480469-13.925781-33.671875-13.925781zm0 0" fill="#ffb89c"/><path d="m267.726562 268.175781h-168.246093c-8.667969 0-15.695313-7.023437-15.695313-15.691406 0-8.664063 7.027344-15.691406 15.695313-15.691406h168.246093c8.667969 0 15.695313 7.027343 15.695313 15.691406 0 8.667969-7.027344 15.691406-15.695313 15.691406zm0 0" fill="#27488f"/><path d="m267.726562 236.792969h-84.125v31.382812h84.125c8.667969 0 15.695313-7.023437 15.695313-15.691406 0-8.664063-7.027344-15.691406-15.695313-15.691406zm0 0" fill="#12254c"/><path d="m267.726562 321.855469h-168.246093c-8.667969 0-15.695313-7.027344-15.695313-15.695313 0-8.664062 7.027344-15.691406 15.695313-15.691406h168.246093c8.667969 0 15.695313 7.027344 15.695313 15.691406 0 8.667969-7.027344 15.695313-15.695313 15.695313zm0 0" fill="#27488f"/><path d="m267.726562 290.46875h-84.125v31.386719h84.125c8.667969 0 15.695313-7.027344 15.695313-15.695313 0-8.664062-7.027344-15.691406-15.695313-15.691406zm0 0" fill="#12254c"/><path d="m222.542969 375.53125h-123.0625c-8.667969 0-15.695313-7.023438-15.695313-15.691406 0-8.667969 7.027344-15.691406 15.695313-15.691406h123.0625c8.667969 0 15.691406 7.023437 15.691406 15.691406 0 8.667968-7.023437 15.691406-15.691406 15.691406zm0 0" fill="#27488f"/><path d="m222.542969 344.148438h-38.9375v31.382812h38.9375c8.667969 0 15.691406-7.023438 15.691406-15.691406 0-8.667969-7.023437-15.691406-15.691406-15.691406zm0 0" fill="#12254c"/></svg>