<svg height="512pt" viewBox="0 0 512 512" width="512pt" xmlns="http://www.w3.org/2000/svg"><path d="m95.035156 473.148438-20.070312-22.296876 75.035156-67.53125v-48.320312h30v61.679688zm0 0" fill="#ffc474"/><path d="m241 335h30v92h-30zm0 0" fill="#ffc474"/><path d="m426.414062 453.941406-94.414062-55.347656v-63.59375h30v46.40625l79.585938 46.652344zm0 0" fill="#ffb742"/><path d="m256 335h15v92h-15zm0 0" fill="#ffb742"/><path d="m451 350h-390v-350h390zm0 0" fill="#4db2ff"/><path d="m256 0h195v350h-195zm0 0" fill="#266cb2"/><path d="m50 512c-27.570312 0-50-22.429688-50-50s22.429688-50 50-50 50 22.429688 50 50-22.429688 50-50 50zm0 0" fill="#ffb742"/><path d="m256 512c-27.570312 0-50-22.429688-50-50s22.429688-50 50-50 50 22.429688 50 50-22.429688 50-50 50zm0 0" fill="#ffb742"/><path d="m462 512c-27.570312 0-50-22.429688-50-50s22.429688-50 50-50 50 22.429688 50 50-22.429688 50-50 50zm0 0" fill="#fe8100"/><path d="m151 75c0 8.285156-6.714844 15-15 15s-15-6.714844-15-15 6.714844-15 15-15 15 6.714844 15 15zm0 0" fill="#ff6e84"/><path d="m211 75c0 8.285156-6.714844 15-15 15s-15-6.714844-15-15 6.714844-15 15-15 15 6.714844 15 15zm0 0" fill="#ff6e84"/><path d="m271 75c0 8.285156-6.714844 15-15 15s-15-6.714844-15-15 6.714844-15 15-15 15 6.714844 15 15zm0 0" fill="#ff6e84"/><g fill="#ccf0ff"><path d="m121 120h120v30h-120zm0 0"/><path d="m151 180h162v30h-162zm0 0"/><path d="m131 240h71v30h-71zm0 0"/><path d="m232 240h48v30h-48zm0 0"/></g><path d="m343 180h48v30h-48zm0 0" fill="#80c9ff"/><path d="m256 180h57v30h-57zm0 0" fill="#80c9ff"/><path d="m256 240h24v30h-24zm0 0" fill="#80c9ff"/><path d="m271 75c0-8.285156-6.714844-15-15-15v30c8.285156 0 15-6.714844 15-15zm0 0" fill="#fe3b7f"/><path d="m306 462c0-27.570312-22.429688-50-50-50v100c27.570312 0 50-22.429688 50-50zm0 0" fill="#fe8100"/></svg>