<svg height="496pt" viewBox="0 0 496 496" width="496pt" xmlns="http://www.w3.org/2000/svg"><g fill="#434a54"><path d="m168 176c-2.046875 0-4.097656-.785156-5.65625-2.34375l-105.550781-105.550781c-3.128907-3.128907-3.128907-8.183594 0-11.3125 3.128906-3.128907 8.183593-3.128907 11.3125 0l105.550781 105.550781c3.128906 3.128906 3.128906 8.183594 0 11.3125-1.558594 1.558594-3.609375 2.34375-5.65625 2.34375zm0 0"/><path d="m335.046875 168.953125c-2.046875 0-4.09375-.785156-5.65625-2.34375-3.125-3.128906-3.125-8.183594 0-11.3125l91.457031-91.464844c3.128906-3.128906 8.183594-3.128906 11.3125 0 3.128906 3.128907 3.128906 8.183594 0 11.3125l-91.457031 91.464844c-1.558594 1.558594-3.605469 2.34375-5.65625 2.34375zm0 0"/><path d="m71.785156 432.214844c-2.050781 0-4.097656-.78125-5.65625-2.34375-3.128906-3.128906-3.128906-8.183594 0-11.3125l86.878906-86.878906c3.128907-3.128907 8.183594-3.128907 11.3125 0 3.128907 3.128906 3.128907 8.183593 0 11.3125l-86.878906 86.878906c-1.570312 1.570312-3.609375 2.34375-5.65625 2.34375zm0 0"/><path d="m426.503906 434.503906c-2.046875 0-4.097656-.785156-5.65625-2.34375l-91.457031-91.457031c-3.125-3.128906-3.125-8.183594 0-11.3125 3.128906-3.125 8.183594-3.125 11.3125 0l91.464844 91.464844c3.128906 3.128906 3.128906 8.183593 0 11.3125-1.566407 1.558593-3.617188 2.335937-5.664063 2.335937zm0 0"/></g><path d="m440 72c17.03125 0 30.953125 13.28125 31.921875 30-9.050781 6.320312-20.082031 10-31.921875 10s-22.871094-3.679688-31.921875-10c1.050781-16.71875 14.953125-30 31.921875-30zm0 0" fill="#48cfad"/><path d="m424 56c0 8.800781 7.199219 16 16 16-16.96875 0-30.871094 13.28125-31.921875 30-2.796875-1.921875-5.359375-4.078125-7.6875-6.398438-10.078125-10.160156-16.390625-24.082031-16.390625-39.601562 0-30.960938 25.128906-56 56-56 30.953125 0 56 25.039062 56 56 0 19.121094-9.511719 35.921875-24.078125 46-.96875-16.71875-14.890625-30-31.921875-30 8.871094 0 16-7.199219 16-16s-7.128906-16-16-16c-8.800781 0-16 7.199219-16 16zm0 0" fill="#656d78"/><path d="m95.59375 95.601562c-2.3125 2.398438-4.953125 4.550782-7.671875 6.398438-.96875-16.71875-14.890625-30-31.921875-30 8.871094 0 16-7.199219 16-16s-7.128906-16-16-16c-8.800781 0-16 7.199219-16 16s7.199219 16 16 16c-16.96875 0-30.871094 13.28125-31.921875 30-14.566406-10.078125-24.078125-26.960938-24.078125-46 0-30.960938 25.128906-56 56-56 30.953125 0 56 25.039062 56 56 0 15.519531-6.230469 29.441406-16.40625 39.601562zm0 0" fill="#656d78"/><path d="m56 72c17.03125 0 30.953125 13.28125 31.921875 30-9.050781 6.320312-20.082031 10-31.921875 10s-22.871094-3.679688-31.921875-10c1.050781-16.71875 14.953125-30 31.921875-30zm0 0" fill="#ac92ec"/><path d="m56 0c-2.0625 0-4.078125.121094-6.078125.34375-.035156 0-.066406.007812-.113281.015625-1.953125.226563-3.886719.542969-5.792969.960937 25.152344 5.496094 43.984375 27.847657 43.984375 54.679688 0 10.136719-2.703125 19.558594-7.375 27.726562 4.167969 5.058594 6.886719 11.328126 7.296875 18.273438 2.71875-1.839844 5.359375-4 7.671875-6.398438 10.175781-10.160156 16.40625-24.082031 16.40625-39.601562 0-30.960938-25.046875-56-56-56zm0 0" fill="#434a54"/><path d="m71.59375 95.601562c-2.3125 2.398438-4.953125 4.550782-7.671875 6.398438-5.890625 4.121094-12.675781 6.960938-19.921875 8.542969 1.71875.386719 3.472656.679687 5.230469.929687 2.242187.28125 4.472656.527344 6.769531.527344 11.839844 0 22.871094-3.679688 31.921875-10-.410156-6.945312-3.128906-13.214844-7.296875-18.273438-2.480469 4.34375-5.496094 8.34375-9.03125 11.875zm0 0" fill="#967adc"/><path d="m440 0c-2.0625 0-4.078125.121094-6.078125.34375-.035156 0-.066406.007812-.113281.015625-1.953125.226563-3.886719.542969-5.800782.960937 25.160157 5.496094 43.992188 27.847657 43.992188 54.679688 0 10.136719-2.703125 19.558594-7.375 27.726562 4.167969 5.058594 6.886719 11.328126 7.296875 18.273438 2.71875-1.839844 5.359375-4 7.671875-6.398438 10.175781-10.160156 16.40625-24.082031 16.40625-39.601562 0-30.960938-25.046875-56-56-56zm0 0" fill="#434a54"/><path d="m455.59375 95.601562c-2.3125 2.398438-4.953125 4.550782-7.671875 6.398438-5.890625 4.121094-12.675781 6.960938-19.921875 8.542969 1.71875.386719 3.472656.679687 5.230469.929687 2.242187.28125 4.472656.527344 6.769531.527344 11.839844 0 22.871094-3.679688 31.921875-10-.410156-6.945312-3.128906-13.214844-7.296875-18.273438-2.480469 4.34375-5.496094 8.34375-9.03125 11.875zm0 0" fill="#37bc9b"/><path d="m56 456c17.03125 0 30.953125 13.28125 31.921875 30-9.050781 6.320312-20.082031 10-31.921875 10s-22.871094-3.679688-31.921875-10c1.050781-16.71875 14.953125-30 31.921875-30zm0 0" fill="#48cfad"/><path d="m40 440c0 8.800781 7.199219 16 16 16-16.96875 0-30.871094 13.28125-31.921875 30-14.566406-10.078125-24.078125-26.960938-24.078125-46 0-30.960938 25.128906-56 56-56 15.441406 0 29.511719 6.238281 39.59375 16.398438 10.175781 10.160156 16.40625 24.082031 16.40625 39.601562 0 19.121094-9.511719 35.921875-24.078125 46-.96875-16.71875-14.890625-30-31.921875-30 8.871094 0 16-7.199219 16-16s-7.128906-16-16-16c-8.800781 0-16 7.199219-16 16zm0 0" fill="#656d78"/><path d="m440 456c17.03125 0 30.953125 13.28125 31.921875 30-9.050781 6.320312-20.082031 10-31.921875 10s-22.871094-3.679688-31.921875-10c1.050781-16.71875 14.953125-30 31.921875-30zm0 0" fill="#ac92ec"/><path d="m424 440c0 8.800781 7.199219 16 16 16-16.96875 0-30.871094 13.28125-31.921875 30-14.566406-10.078125-24.078125-26.960938-24.078125-46 0-15.519531 6.3125-29.441406 16.390625-39.601562 10.167969-10.160157 24.167969-16.398438 39.609375-16.398438 30.953125 0 56 25.039062 56 56 0 19.121094-9.511719 35.921875-24.078125 46-.96875-16.71875-14.890625-30-31.921875-30 8.871094 0 16-7.199219 16-16s-7.128906-16-16-16c-8.800781 0-16 7.199219-16 16zm0 0" fill="#656d78"/><path d="m327.839844 343.761719c-22.886719 15.359375-50.328125 24.238281-79.839844 24.238281-29.609375 0-57.046875-8.960938-79.921875-24.320312-38.636719-25.679688-64.078125-69.757813-64.078125-119.679688v48c0 33.679688 11.511719 64.640625 30.871094 89.121094 9.359375 11.839844 20.5625 22.238281 33.128906 30.558594 22.871094 15.359374 50.390625 24.320312 80 24.320312 29.59375 0 57.128906-8.960938 80-24.320312 38.558594-25.757813 64-69.757813 64-119.679688v-48c0 50-25.511719 94-64.160156 119.761719zm0 0" fill="#f6bb42"/><path d="m248 280h-32v-16.558594c-19.128906-11.121094-32-31.761718-32-55.441406 0-35.359375 28.71875-64 64-64 35.359375 0 64 28.640625 64 64 0 23.679688-12.800781 44.320312-32 55.441406v16.558594zm0 0" fill="#f5f7fa"/><path d="m248 144c-4.105469 0-8.105469.425781-11.992188 1.167969 29.609376 5.625 51.992188 31.585937 51.992188 62.832031 0 23.679688-12.800781 36.320312-32 47.441406v24.558594h24v-16.558594c19.199219-11.121094 32-31.761718 32-55.441406 0-35.359375-28.640625-64-64-64zm0 0" fill="#e6e9ed"/><path d="m216 304 8 8h48l8-8v-40.558594c19.199219-11.121094 32-31.761718 32-55.441406 0-35.359375-28.640625-64-64-64-35.28125 0-64 28.640625-64 64 0 23.679688 12.871094 44.320312 32 55.441406zm176-80c0 50-25.511719 94-64.160156 119.761719-22.886719 15.359375-50.328125 24.238281-79.839844 24.238281-29.609375 0-57.046875-8.960938-79.921875-24.320312-38.636719-25.679688-64.078125-69.757813-64.078125-119.679688 0-33.679688 11.511719-64.640625 30.871094-89.121094 26.410156-33.4375 67.289062-54.878906 113.128906-54.878906 79.511719 0 144 64.480469 144 144zm0 0" fill="#ffce54"/><path d="m440 384c-2.046875 0-4.078125.121094-6.0625.34375-.050781 0-.082031.007812-.113281.015625-1.96875.226563-3.902344.542969-5.816407.960937 25.175782 5.496094 43.992188 27.847657 43.992188 54.679688 0 10.136719-2.6875 19.558594-7.359375 27.726562 4.160156 5.058594 6.886719 11.328126 7.28125 18.273438 2.71875-1.839844 5.359375-4 7.6875-6.398438 10.160156-10.160156 16.390625-24.082031 16.390625-39.601562 0-30.960938-25.03125-56-56-56zm0 0" fill="#434a54"/><path d="m455.609375 479.601562c-2.328125 2.398438-4.96875 4.550782-7.6875 6.398438-5.875 4.121094-12.675781 6.960938-19.921875 8.542969 1.734375.386719 3.488281.679687 5.246094.929687 2.226562.28125 4.457031.527344 6.753906.527344 11.839844 0 22.886719-3.679688 31.921875-10-.394531-6.945312-3.128906-13.214844-7.28125-18.273438-2.480469 4.34375-5.496094 8.34375-9.03125 11.875zm0 0" fill="#967adc"/><path d="m56 384c-2.046875 0-4.078125.121094-6.0625.34375-.050781 0-.082031.007812-.113281.015625-1.96875.226563-3.902344.542969-5.816407.960937 25.175782 5.496094 43.992188 27.847657 43.992188 54.679688 0 10.136719-2.6875 19.558594-7.359375 27.726562 4.160156 5.058594 6.886719 11.328126 7.28125 18.273438 2.71875-1.839844 5.359375-4 7.6875-6.398438 10.160156-10.160156 16.390625-24.082031 16.390625-39.601562 0-30.960938-25.03125-56-56-56zm0 0" fill="#434a54"/><path d="m71.609375 479.601562c-2.328125 2.398438-4.96875 4.550782-7.6875 6.398438-5.875 4.121094-12.675781 6.960938-19.921875 8.542969 1.734375.386719 3.488281.679687 5.246094.929687 2.226562.28125 4.457031.527344 6.753906.527344 11.839844 0 22.886719-3.679688 31.921875-10-.394531-6.945312-3.128906-13.214844-7.28125-18.273438-2.480469 4.34375-5.496094 8.34375-9.03125 11.875zm0 0" fill="#37bc9b"/><path d="m240 367.695312v48c2.65625.144532 5.3125.304688 8 .304688s5.34375-.160156 8-.304688v-47.992187c-2.65625.136719-5.3125.296875-8 .296875-2.695312 0-5.34375-.160156-8-.304688zm0 0" fill="#edab37"/><path d="m320 348.625v48.015625c2.71875-1.578125 5.398438-3.207031 8-4.960937 2.742188-1.832032 5.398438-3.785157 8-5.792969v-48.03125c-2.65625 2.046875-5.359375 4.03125-8.160156 5.898437-2.550782 1.71875-5.175782 3.316406-7.839844 4.871094zm0 0" fill="#edab37"/><path d="m160 337.847656v48.046875c2.609375 2.007813 5.257812 3.960938 8 5.785157 2.601562 1.753906 5.28125 3.382812 8 4.960937v-48.046875c-2.6875-1.5625-5.34375-3.179688-7.921875-4.914062-2.765625-1.847657-5.453125-3.800782-8.078125-5.832032zm0 0" fill="#edab37"/><path d="m264 208h-32c-4.425781 0-8 3.574219-8 8s3.574219 8 8 8h8v56c0 4.425781 3.574219 8 8 8s8-3.574219 8-8v-56h8c4.425781 0 8-3.574219 8-8s-3.574219-8-8-8zm0 0" fill="#ffce54"/><path d="m280 280v24l-8 8h-48l-8-8v-24zm0 0" fill="#656d78"/><path d="m256 280v24l-8 8h24l8-8v-24zm0 0" fill="#434a54"/><path d="m460 440c0 11-8.902344 20-20 20-11 0-20-9-20-20s9-20 20-20c11.097656 0 20 9 20 20zm0 0" fill="#eac6bb"/><path d="m76 440c0 11-8.902344 20-20 20-11 0-20-9-20-20s9-20 20-20c11.097656 0 20 9 20 20zm0 0" fill="#eac6bb"/><path d="m76 56c0 11-8.902344 20-20 20-11 0-20-9-20-20s9-20 20-20c11.097656 0 20 9 20 20zm0 0" fill="#eac6bb"/><path d="m460 56c0 11-8.902344 20-20 20-11 0-20-9-20-20s9-20 20-20c11.097656 0 20 9 20 20zm0 0" fill="#eac6bb"/></svg>