<svg height="512pt" viewBox="0 0 512 512" width="512pt" xmlns="http://www.w3.org/2000/svg"><path d="m167 422h-116v-227h30v197h86zm0 0" fill="#0673a4"/><path d="m461 317h-30v-197h-86v-30h116zm0 0" fill="#054d6e"/><path d="m512 512h-360v-210h360zm0 0" fill="#fceea9"/><path d="m512 512h-280v-210h280zm0 0" fill="#fbde55"/><path d="m361.984375 391.453125c1.082031-4.328125 2.828125-8.445313 5.246094-12.355469 2.410156-3.914062 5.367187-7.367187 8.859375-10.363281 3.496094-2.996094 7.53125-5.367187 12.109375-7.113281 4.574219-1.746094 9.609375-2.621094 15.101562-2.621094 7.90625 0 14.8125 1.769531 20.71875 5.304688 5.910157 3.539062 10.277344 8.21875 13.109375 14.042968l-18.601562 13.230469c-.746094-2.164063-1.726563-3.953125-2.933594-5.367187-1.207031-1.414063-2.515625-2.539063-3.929688-3.371094-1.417968-.828125-2.914062-1.414063-4.496093-1.746094s-3.035157-.5-4.367188-.5c-3.828125 0-6.972656 1.042969-9.425781 3.121094-2.453125 2.082031-4.386719 4.660156-5.800781 7.738281h23.464843l-4.992187 12.480469h-20.84375c0 1.832031.125 3.621094.371094 5.367187h21.972656l-4.996094 12.480469h-11.355469c1.496094 1.667969 3.242188 2.996094 5.238282 3.996094 2 1 4.203125 1.496094 6.617187 1.496094 1.414063 0 2.871094-.183594 4.367188-.558594 1.5-.375 2.933593-1 4.308593-1.875 1.371094-.871094 2.621094-1.996094 3.746094-3.367188 1.121094-1.375 2.015625-3.058594 2.679688-5.058594l19.847656 11.859376c-1.25 3.246093-3.140625 6.160156-5.679688 8.738281-2.539062 2.578125-5.429687 4.742187-8.675781 6.488281-3.246093 1.746094-6.699219 3.082031-10.359375 3.996094-3.660156.914062-7.238281 1.371094-10.734375 1.371094-4.492187 0-8.695312-.6875-12.605469-2.058594-3.914062-1.371094-7.492187-3.285156-10.734374-5.742188-3.246094-2.453125-6.136719-5.324218-8.675782-8.613281-2.539062-3.285156-4.597656-6.839844-6.179687-10.671875h-12.355469l4.992188-12.480469h3.871093c-.167969-.914062-.253906-1.808593-.253906-2.683593s-.039063-1.765626-.125-2.683594h-8.484375l4.992188-12.480469zm0 0" fill="#f90"/><path d="m360 210h-360v-210h360zm0 0" fill="#10c47a"/><path d="m180 0h180v210h-180zm0 0" fill="#09935c"/><path d="m300 210h-240v-15c0-24.8125-20.1875-45-45-45h-15v-90h15c24.8125 0 45-20.1875 45-45v-15h240v15c0 24.8125 20.1875 45 45 45h15v90h-15c-24.8125 0-45 20.1875-45 45zm0 0" fill="#15e890"/><path d="m345 60c-24.8125 0-45-20.1875-45-45v-15h-120v210h120v-15c0-24.8125 20.1875-45 45-45h15v-90zm0 0" fill="#10c47a"/><path d="m196.53125 92.644531c-1.289062-.820312-2.695312-1.582031-4.21875-2.289062-1.292969-.640625-2.742188-1.242188-4.355469-1.800781-1.613281-.558594-3.242187-.980469-4.882812-1.277344v7.917968c.527343.117188 1.085937.28125 1.671875.484376.585937.207031 1.199218.394531 1.847656.574218 2.871094.878906 5.46875 1.84375 7.785156 2.902344 2.316406 1.054688 4.292969 2.300781 5.9375 3.738281 1.640625 1.4375 2.902344 3.179688 3.78125 5.234375.882813 2.054688 1.320313 4.546875 1.320313 7.476563 0 3.460937-.601563 6.410156-1.804688 8.839843-1.203125 2.4375-2.785156 4.429688-4.75 5.984376-1.964843 1.554687-4.207031 2.726562-6.726562 3.519531-2.523438.789062-5.132813 1.273437-7.832031 1.449219v10.644531h-7.035157v-10.820313c-4.046875-.351562-8.066406-1.140625-12.054687-2.375-3.988282-1.230468-7.5625-2.785156-10.730469-4.660156l7.386719-15.042969c1.585937.996094 3.285156 1.933594 5.105468 2.816407 1.523438.761718 3.296876 1.507812 5.320313 2.242187s4.089844 1.246094 6.203125 1.539063v-7.742188c-1.820312-.46875-3.636719-1.023438-5.453125-1.671875-2.761719-.933594-5.132813-1.945313-7.125-3.03125-1.996094-1.085937-3.640625-2.316406-4.929687-3.695313-1.289063-1.378906-2.242188-2.949218-2.855469-4.707031-.617188-1.757812-.925781-3.785156-.925781-6.070312 0-3.167969.527343-5.96875 1.582031-8.402344 1.058593-2.433594 2.492187-4.53125 4.3125-6.289063 1.816406-1.757812 3.941406-3.167968 6.378906-4.222656 2.429687-1.054687 5.027344-1.730468 7.785156-2.023437v-8.886719h7.035157v8.972656c1.9375.234375 3.8125.585938 5.632812 1.054688 1.816406.46875 3.5625 1.011718 5.234375 1.628906 1.667969.617188 3.238281 1.261719 4.703125 1.933594 1.464844.675781 2.816406 1.308594 4.046875 1.894531zm-21.550781-2.636719c0 .878907.292969 1.597657.882812 2.152344.585938.558594 1.464844 1.070313 2.636719 1.539063v-6.683594c-2.347656.292969-3.519531 1.289063-3.519531 2.992187zm11.964843 27.265626c0-.820313-.351562-1.539063-1.054687-2.152344-.707031-.617188-1.644531-1.15625-2.816406-1.628906v6.511718c1.40625-.117187 2.402343-.410156 2.992187-.882812.585938-.46875.878906-1.082032.878906-1.847656zm0 0" fill="#09935c"/><path d="m200.316406 102.894531c-1.644531-1.4375-3.621094-2.683593-5.9375-3.742187-2.316406-1.054688-4.914062-2.019532-7.785156-2.902344-.648438-.175781-1.261719-.363281-1.847656-.570312-.585938-.207032-1.144532-.367188-1.671875-.484376v-7.917968c1.640625.292968 3.269531.71875 4.882812 1.277344 1.613281.554687 3.0625 1.15625 4.355469 1.800781 1.523438.703125 2.929688 1.46875 4.21875 2.289062l7.390625-14.164062c-1.230469-.585938-2.582031-1.214844-4.046875-1.890625-1.46875-.675782-3.035156-1.320313-4.707031-1.9375-1.671875-.613282-3.414063-1.15625-5.234375-1.625-1.816406-.46875-3.691406-.820313-5.628906-1.054688v-8.972656h-4.304688v83.039062h4.304688v-10.644531c2.699218-.175781 5.308593-.660156 7.832031-1.449219 2.519531-.792968 4.761719-1.964843 6.726562-3.519531 1.964844-1.554687 3.546875-3.546875 4.75-5.980469 1.203125-2.433593 1.804688-5.382812 1.804688-8.84375 0-2.929687-.4375-5.421874-1.320313-7.476562-.878906-2.050781-2.140625-3.796875-3.78125-5.230469zm-14.25 16.226563c-.589844.472656-1.585937.765625-2.992187.882812v-6.511718c1.171875.472656 2.109375 1.011718 2.816406 1.625.703125.617187 1.054687 1.335937 1.054687 2.15625 0 .765624-.292968 1.378906-.878906 1.847656zm0 0" fill="#056e45"/></svg>