<?xml version="1.0" encoding="iso-8859-1"?>
<!-- Generator: Adobe Illustrator 19.0.0, SVG Export Plug-In . SVG Version: 6.00 Build 0)  -->
<svg version="1.1" id="Capa_1" xmlns="http://www.w3.org/2000/svg" xmlns:xlink="http://www.w3.org/1999/xlink" x="0px" y="0px"
	 viewBox="0 0 512 512" style="enable-background:new 0 0 512 512;" xml:space="preserve">
<path style="fill:#0053BF;" d="M437,0.5H75c-24.901,0-45,20.099-45,45v240c0,8.399,6.599,15,15,15h422c8.401,0,15-6.601,15-15v-240
	C482,20.599,461.901,0.5,437,0.5z"/>
<path style="fill:#05377F;" d="M482,45.5v240c0,8.399-6.599,15-15,15H256V0.5h181C461.901,0.5,482,20.599,482,45.5z"/>
<path style="fill:#E1F1FA;" d="M407,60.5H105c-8.401,0-15,6.599-15,15v210c0,8.399,6.599,15,15,15h302c8.401,0,15-6.601,15-15v-210
	C422,67.099,415.401,60.5,407,60.5z"/>
<path style="fill:#136EF1;" d="M437,481.5H286c-8.291,0-15-6.709-15-15s6.709-15,15-15h151c8.291,0,15,6.709,15,15
	S445.291,481.5,437,481.5z"/>
<g>
	<path style="fill:#1689FC;" d="M271,345.5v91c0,8.399-6.599,15-15,15s-15-6.601-15-15v-91c0-8.401,6.599-15,15-15
		S271,337.099,271,345.5z"/>
	<path style="fill:#1689FC;" d="M226,481.5H75c-8.291,0-15-6.709-15-15s6.709-15,15-15h151c8.291,0,15,6.709,15,15
		S234.291,481.5,226,481.5z"/>
</g>
<path style="fill:#136EF1;" d="M271,345.5v91c0,8.399-6.599,15-15,15v-121C264.401,330.5,271,337.099,271,345.5z"/>
<path style="fill:#BFE1FF;" d="M422,75.5v210c0,8.399-6.599,15-15,15H256v-240h151C415.401,60.5,422,67.099,422,75.5z"/>
<path style="fill:#2864F0;" d="M497,270.5H15c-8.401,0-15,6.599-15,15c0,41.4,33.6,75,75,75h362c41.4,0,75-33.6,75-75
	C512,277.099,505.401,270.5,497,270.5z"/>
<path style="fill:#0053BF;" d="M512,285.5c0,41.4-33.6,75-75,75H256v-90h241C505.401,270.5,512,277.099,512,285.5z"/>
<path style="fill:#65B1FC;" d="M256,421.5c-24.901,0-45,20.099-45,45c0,24.899,20.099,45,45,45s45-20.101,45-45
	C301,441.599,280.901,421.5,256,421.5z"/>
<path style="fill:#1689FC;" d="M467,511.5c-24.814,0-45-20.186-45-45s20.186-45,45-45s45,20.186,45,45S491.814,511.5,467,511.5z"/>
<path style="fill:#65B1FC;" d="M45,511.5c-24.814,0-45-20.186-45-45s20.186-45,45-45s45,20.186,45,45S69.814,511.5,45,511.5z"/>
<path style="fill:#1689FC;" d="M301,466.5c0,24.899-20.099,45-45,45v-90C280.901,421.5,301,441.599,301,466.5z"/>
<g>
</g>
<g>
</g>
<g>
</g>
<g>
</g>
<g>
</g>
<g>
</g>
<g>
</g>
<g>
</g>
<g>
</g>
<g>
</g>
<g>
</g>
<g>
</g>
<g>
</g>
<g>
</g>
<g>
</g>
</svg>
