<svg height="512pt" viewBox="0 -1 512.0005 512" width="512pt" xmlns="http://www.w3.org/2000/svg"><path d="m256.203125 122.140625c-.066406 0-.136719 0-.203125 0s-.132812 0-.203125 0c-121.21875 0-223.105469 94.660156-252.183594 124.46875-4.816406 4.9375-4.816406 12.8125 0 17.753906 29.078125 29.808594 130.964844 124.46875 252.183594 124.46875.070313 0 .136719-.003906.203125-.003906s.136719.003906.203125.003906c121.222656 0 223.105469-94.660156 252.183594-124.46875 4.820312-4.941406 4.820312-12.816406 0-17.753906-29.078125-29.808594-130.960938-124.46875-252.183594-124.46875zm0 0" fill="#e3f6ff"/><path d="m508.386719 246.609375c-29.078125-29.808594-130.960938-124.46875-252.183594-124.46875-.066406 0-.136719 0-.203125 0s-.132812 0-.203125 0c-9.996094 0-19.863281.644531-29.570313 1.839844 107.964844 13.332031 195.933594 95.277343 222.617188 122.628906 4.816406 4.9375 4.816406 12.8125 0 17.753906-26.683594 27.351563-114.652344 109.292969-222.617188 122.625 9.707032 1.199219 19.574219 1.84375 29.570313 1.84375.070313 0 .136719-.003906.203125-.003906s.136719.003906.203125.003906c121.222656 0 223.105469-94.660156 252.183594-124.46875 4.820312-4.941406 4.820312-12.816406 0-17.753906zm0 0" fill="#cee8f2"/><path d="m389.34375 255.484375c0 73.644531-59.699219 133.347656-133.34375 133.347656s-133.34375-59.703125-133.34375-133.347656 59.699219-133.34375 133.34375-133.34375 133.34375 59.699219 133.34375 133.34375zm0 0" fill="#59c7d3"/><path d="m256 122.140625c-10.234375 0-20.199219 1.152344-29.773438 3.335937 59.3125 13.527344 103.574219 66.597657 103.574219 130.007813s-44.261719 116.484375-103.574219 130.007813c9.574219 2.183593 19.539063 3.339843 29.773438 3.339843 73.644531 0 133.34375-59.703125 133.34375-133.347656s-59.699219-133.34375-133.34375-133.34375zm0 0" fill="#44b6bc"/><path d="m327.148438 255.636719c0 39.429687-31.964844 71.390625-71.390626 71.390625-39.429687 0-71.394531-31.960938-71.394531-71.390625 0-39.429688 31.964844-71.394531 71.394531-71.394531 39.425782 0 71.390626 31.964843 71.390626 71.394531zm0 0" fill="#465058"/><path d="m255.757812 184.242188c-10.628906 0-20.710937 2.324218-29.773437 6.484374 24.5625 11.289063 41.621094 36.105469 41.621094 64.910157 0 28.800781-17.058594 53.621093-41.621094 64.90625 9.0625 4.164062 19.144531 6.484375 29.773437 6.484375 39.425782 0 71.390626-31.960938 71.390626-71.390625 0-39.429688-31.964844-71.394531-71.390626-71.394531zm0 0" fill="#323e44"/><path d="m337.46875 208.664062c0 18.464844-14.96875 33.4375-33.4375 33.4375-18.464844 0-33.4375-14.972656-33.4375-33.4375 0-18.46875 14.972656-33.4375 33.4375-33.4375 18.46875 0 33.4375 14.96875 33.4375 33.4375zm0 0" fill="#e3f6ff"/><path d="m414.511719 423.96875c0-4.136719-3.351563-7.488281-7.484375-7.488281h-302.054688c-4.132812 0-7.484375 3.351562-7.484375 7.488281 0 4.132812 3.351563 7.484375 7.484375 7.484375h302.054688c4.136718 0 7.484375-3.351563 7.484375-7.484375zm0 0" fill="#59c7d3"/><g fill="#ff8c51"><path d="m401.484375 14.96875h90.53125c2.480469 0 4.5 2.019531 4.5 4.5v90.53125c0 4.136719 3.351563 7.484375 7.484375 7.484375s7.484375-3.347656 7.484375-7.484375v-90.53125c0-10.734375-8.730469-19.46875-19.46875-19.46875h-90.53125c-4.132813 0-7.484375 3.351562-7.484375 7.484375 0 4.136719 3.351562 7.484375 7.484375 7.484375zm0 0"/><path d="m8 117.484375c4.132812 0 7.484375-3.347656 7.484375-7.484375v-90.53125c0-2.480469 2.019531-4.5 4.5-4.5h90.53125c4.132813 0 7.484375-3.347656 7.484375-7.484375 0-4.132813-3.351562-7.484375-7.484375-7.484375h-90.53125c-10.734375 0-19.46875 8.734375-19.46875 19.46875v90.53125c0 4.136719 3.351563 7.484375 7.484375 7.484375zm0 0"/><path d="m110.515625 496h-90.53125c-2.480469 0-4.5-2.019531-4.5-4.5v-90.53125c0-4.132812-3.351563-7.484375-7.484375-7.484375s-7.484375 3.351563-7.484375 7.484375v90.53125c0 10.734375 8.734375 19.46875 19.46875 19.46875h90.53125c4.132813 0 7.484375-3.347656 7.484375-7.484375 0-4.132813-3.351562-7.484375-7.484375-7.484375zm0 0"/><path d="m504 393.484375c-4.132812 0-7.484375 3.351563-7.484375 7.484375v90.53125c0 2.480469-2.019531 4.5-4.5 4.5h-90.53125c-4.132813 0-7.484375 3.351562-7.484375 7.484375 0 4.136719 3.351562 7.484375 7.484375 7.484375h90.53125c10.734375 0 19.46875-8.730469 19.46875-19.46875v-90.53125c0-4.132812-3.351563-7.484375-7.484375-7.484375zm0 0"/><path d="m473.589844 110.503906c4.132812 0 7.484375-3.351562 7.484375-7.484375v-55.3125c0-9.535156-7.757813-17.296875-17.292969-17.296875h-55.316406c-4.132813 0-7.484375 3.351563-7.484375 7.484375 0 4.136719 3.351562 7.488281 7.484375 7.488281h55.316406c1.28125 0 2.324219 1.042969 2.324219 2.324219v55.3125c0 4.132813 3.351562 7.484375 7.484375 7.484375zm0 0"/><path d="m103.535156 30.410156h-55.3125c-9.539062 0-17.296875 7.757813-17.296875 17.296875v55.3125c0 4.132813 3.351563 7.484375 7.484375 7.484375 4.136719 0 7.484375-3.351562 7.484375-7.484375v-55.3125c0-1.285156 1.042969-2.324219 2.328125-2.324219h55.3125c4.132813 0 7.484375-3.351562 7.484375-7.488281 0-4.132812-3.351562-7.484375-7.484375-7.484375zm0 0"/><path d="m408.464844 480.558594h55.3125c9.539062 0 17.296875-7.757813 17.296875-17.292969v-55.3125c0-4.136719-3.351563-7.484375-7.484375-7.484375-4.132813 0-7.484375 3.347656-7.484375 7.484375v55.3125c0 1.28125-1.042969 2.324219-2.328125 2.324219h-55.3125c-4.132813 0-7.484375 3.351562-7.484375 7.484375 0 4.136719 3.351562 7.484375 7.484375 7.484375zm0 0"/><path d="m38.410156 400.464844c-4.132812 0-7.484375 3.351562-7.484375 7.488281v55.3125c0 9.535156 7.757813 17.292969 17.292969 17.292969h55.316406c4.132813 0 7.484375-3.351563 7.484375-7.484375 0-4.132813-3.351562-7.484375-7.484375-7.484375h-55.3125c-1.285156 0-2.328125-1.042969-2.328125-2.324219v-55.3125c0-4.136719-3.347656-7.488281-7.484375-7.488281zm0 0"/></g></svg>