<svg height="511pt" viewBox="0 0 511.99956 511" width="511pt" xmlns="http://www.w3.org/2000/svg"><path d="m289.0625 62.792969c-62.621094-62.621094-164.152344-62.621094-226.773438 0-62.621093 62.621093-62.621093 164.152343 0 226.773437 62.621094 62.621094 164.152344 62.621094 226.773438 0s62.621094-164.152344 0-226.773437zm0 0" fill="#95e6f9"/><path d="m62.289062 62.792969c-62.621093 62.621093-62.621093 164.152343 0 226.773437 62.625 62.621094 164.15625 62.621094 226.777344 0 .144532-.144531.28125-.292968.425782-.4375l-226.765626-226.761718c-.144531.140624-.292968.28125-.4375.425781zm0 0" fill="#bdefff"/><path d="m493.984375 493.625c-24.628906 24.625-64.773437 23.910156-88.507813-1.578125l-154.359374-165.757813c27.210937-16.535156 52.410156-41.550781 75.457031-75.601562l165.835937 154.429688c25.488282 23.734374 26.203125 63.878906 1.574219 88.507812zm0 0" fill="#cf4c88"/><path d="m251.117188 326.289062 154.359374 165.757813c23.734376 25.488281 63.878907 26.203125 88.507813 1.578125l-201.105469-201.105469c-13.335937 13.710938-27.261718 24.957031-41.761718 33.769531zm0 0" fill="#d26092"/><path d="m326.574219 250.6875c-23.050781 34.050781-48.246094 59.0625-75.457031 75.601562l57.683593 61.941407 79.792969-79.789063zm0 0" fill="#bec3d2"/><path d="m251.117188 326.289062 57.6875 61.941407 39.894531-39.894531-55.820313-55.820313c-13.335937 13.714844-27.261718 24.960937-41.761718 33.773437zm0 0" fill="#ced2e1"/><path d="m175.679688 351.859375c-45.011719 0-90.019532-17.132813-124.28125-51.398437-68.53125-68.527344-68.53125-180.035157 0-248.5625 68.527343-68.53125 180.035156-68.53125 248.5625 0 68.527343 68.527343 68.527343 180.035156 0 248.5625-34.265626 34.265624-79.273438 51.398437-124.28125 51.398437zm0-320.558594c-37.117188 0-74.238282 14.128907-102.492188 42.382813-56.515625 56.519531-56.515625 148.472656 0 204.988281s148.46875 56.515625 204.984375 0 56.515625-148.46875 0-204.988281c-28.257813-28.253906-65.375-42.382813-102.492187-42.382813zm0 0" fill="#ced2e1"/><path d="m192.09375 199.722656h-35.707031c-4.160157 0-7.589844-3.25-7.816407-7.402344l-5.609374-102.917968c-.242188-4.484375 3.328124-8.253906 7.816406-8.253906h46.925781c4.488281 0 8.058594 3.769531 7.816406 8.253906l-5.609375 102.917968c-.226562 4.152344-3.65625 7.402344-7.816406 7.402344zm0 0" fill="#f2cc40"/><path d="m192.804688 268.539062h-37.128907c-4.210937 0-7.621093-3.414062-7.621093-7.621093v-31.175781c0-4.210938 3.410156-7.621094 7.621093-7.621094h37.128907c4.210937 0 7.621093 3.410156 7.621093 7.621094v31.175781c0 4.207031-3.410156 7.621093-7.621093 7.621093zm0 0" fill="#f2cc40"/><path d="m278.171875 278.671875c-56.515625 56.515625-148.472656 56.515625-204.988281 0s-56.515625-148.46875 0-204.988281c.144531-.140625.292968-.28125.4375-.421875l-21.789063-21.789063c-.144531.144532-.292969.28125-.433593.425782-68.53125 68.527343-68.53125 180.035156 0 248.5625 34.261718 34.265624 79.269531 51.398437 124.28125 51.398437 45.007812 0 90.015624-17.132813 124.28125-51.398437.144531-.144532.28125-.292969.425781-.4375l-21.789063-21.785157c-.144531.144531-.28125.289063-.425781.433594zm0 0" fill="#dce1ea"/><g fill="#fbe25f"><path d="m150.777344 81.148438c-4.488282 0-8.058594 3.769531-7.816406 8.253906l5.609374 102.917968c.226563 4.148438 3.65625 7.402344 7.816407 7.402344h17.855469v-118.574218zm0 0"/><path d="m148.054688 229.949219v30.761719c0 4.320312 3.503906 7.824218 7.828124 7.824218h18.359376v-46.414062h-18.359376c-4.324218 0-7.828124 3.503906-7.828124 7.828125zm0 0"/></g></svg>