<?xml version="1.0" encoding="iso-8859-1"?>
<!-- Generator: Adobe Illustrator 19.0.0, SVG Export Plug-In . SVG Version: 6.00 Build 0)  -->
<svg version="1.1" id="Capa_1" xmlns="http://www.w3.org/2000/svg" xmlns:xlink="http://www.w3.org/1999/xlink" x="0px" y="0px"
	 viewBox="0 0 512 512" style="enable-background:new 0 0 512 512;" xml:space="preserve">
<path style="fill:#57555C;" d="M180,316v90c0,24.899-20.099,45-45,45s-45-20.101-45-45v-90c0-8.401,6.599-15,15-15h60
	C173.401,301,180,307.599,180,316z"/>
<path style="fill:#7A7780;" d="M75,181H60c-32.999,0-60,26.999-60,60c0,32.999,27.001,60,60,60h15c8.401,0,15-6.601,15-15v-90
	C90,187.599,83.401,181,75,181z"/>
<path style="fill:#57555C;" d="M90,241v45c0,8.399-6.599,15-15,15H60c-32.999,0-60-27.001-60-60H90z"/>
<path style="fill:#1DE8F1;" d="M497,271h-45c-8.291,0-15-6.709-15-15s6.709-15,15-15h45c8.291,0,15,6.709,15,15
	C512,264.291,505.291,271,497,271z"/>
<path style="fill:#1BD9DE;" d="M456.395,356.605l-30-30c-5.859-5.859-5.859-15.352,0-21.211s15.352-5.859,21.211,0l30,30
	c5.859,5.859,5.859,15.352,0,21.211C471.746,362.465,462.254,362.465,456.395,356.605z"/>
<path style="fill:#1DE8F1;" d="M426.395,206.605c-5.859-5.859-5.859-15.352,0-21.211l30-30c5.859-5.859,15.352-5.859,21.211,0
	s5.859,15.352,0,21.211l-30,30C441.746,212.465,432.254,212.465,426.395,206.605z"/>
<path style="fill:#FF507E;" d="M210,166v139.499L180,331h-75c-19.501,0-36.301-12.601-42.299-30c-1.8-4.801-2.701-9.6-2.701-15v-90
	c0-24.901,20.099-45,45-45h75L210,166z"/>
<path style="fill:#F40F78;" d="M210,241v64.499L180,331h-75c-19.501,0-36.301-12.601-42.299-30c-1.8-4.801-2.701-9.6-2.701-15v-45
	H210z"/>
<path style="fill:#E1E4FB;" d="M362,91v300c0,6-3.6,11.4-9.3,13.799c-5.4,2.401-12.001,1.201-16.199-3.3l-17.701-17.4
	C294.2,359.5,229.799,331,195,331h-15V151h15c34.799,0,99.2-28.5,123.8-53.101l17.701-17.401c4.199-4.499,10.499-5.7,16.199-3.3
	S362,85,362,91z"/>
<path style="fill:#C5C9F7;" d="M362,241v150c0,6-3.6,11.4-9.3,13.799c-5.4,2.401-12.001,1.201-16.199-3.3l-17.701-17.4
	C294.2,359.5,229.799,331,195,331h-15v-90H362z"/>
<path style="fill:#FF507E;" d="M392,91v300c0,16.5-13.5,30-30,30s-30-13.5-30-30V91c0-16.5,13.5-30,30-30S392,74.5,392,91z"/>
<path style="fill:#F40F78;" d="M392,241v150c0,16.5-13.5,30-30,30s-30-13.5-30-30V241H392z"/>
<path style="fill:#1BD9DE;" d="M452,271h45c8.291,0,15-6.709,15-15h-75C437,264.291,443.709,271,452,271z"/>
<g>
</g>
<g>
</g>
<g>
</g>
<g>
</g>
<g>
</g>
<g>
</g>
<g>
</g>
<g>
</g>
<g>
</g>
<g>
</g>
<g>
</g>
<g>
</g>
<g>
</g>
<g>
</g>
<g>
</g>
</svg>
