<svg height="487pt" viewBox="-32 0 487 487.86" width="487pt" xmlns="http://www.w3.org/2000/svg"><path d="m424.371094 347.351562v65.558594h-423.941406v-65.558594zm0 0" fill="#00efd1"/><path d="m424.371094 91.289062v256.0625h-423.941406v-256.0625h131.28125v104.289063c0 16.132813 36.117187 29.203125 80.6875 29.203125 12.667968.050781 25.308593-1.085938 37.761718-3.390625 25.539063-4.902344 42.929688-14.621094 42.929688-25.8125v-104.289063zm0 0" fill="#fedb41"/><path d="m293.089844 139.859375v55.71875c0 11.191406-17.390625 20.910156-42.929688 25.8125-12.453125 2.304687-25.09375 3.441406-37.761718 3.390625-44.570313 0-80.6875-13.070312-80.6875-29.203125v-55.71875c0 16.140625 36.117187 29.199219 80.6875 29.199219 44.570312 0 80.691406-13.058594 80.691406-29.199219zm0 0" fill="#00efd1"/><path d="m293.089844 138.710938v1.148437c0 16.140625-36.121094 29.199219-80.691406 29.199219-44.570313 0-80.6875-13.058594-80.6875-29.199219v-55.328125c0 16.140625 36.117187 29.199219 80.6875 29.199219 44.570312 0 80.691406-13.058594 80.691406-29.199219zm0 0" fill="#00acea"/><path d="m293.089844 29.199219v55.332031c0 16.140625-36.121094 29.199219-80.691406 29.199219-44.570313 0-80.6875-13.058594-80.6875-29.199219v-55.332031c0 16.128906 36.128906 29.199219 80.6875 29.199219 44.5625 0 80.691406-13.070313 80.691406-29.199219zm0 0" fill="#00efd1"/><path d="m268.601562 412.910156 18.726563 66.808594h-149.859375l18.730469-66.808594zm0 0" fill="#00acea"/><path d="m293.089844 29.199219c0-16.125-36.125-29.199219-80.691406-29.199219-44.5625 0-80.6875 13.074219-80.6875 29.199219 0 16.128906 36.125 29.199219 80.6875 29.199219 44.566406 0 80.691406-13.070313 80.691406-29.199219zm0 0" fill="#00acea"/><g fill="#f4b844"><path d="m318.730469 471.859375h-212.660157c-4.417968 0-8 3.582031-8 8s3.582032 8 8 8h212.660157c4.417969 0 8-3.582031 8-8s-3.582031-8-8-8zm0 0"/><path d="m206.398438 95.859375h12c4.417968 0 8-3.582031 8-8s-3.582032-8-8-8h-12c-4.417969 0-8 3.582031-8 8s3.582031 8 8 8zm0 0"/><path d="m206.398438 149.859375h12c4.417968 0 8-3.582031 8-8s-3.582032-8-8-8h-12c-4.417969 0-8 3.582031-8 8s3.582031 8 8 8zm0 0"/><path d="m206.398438 205.859375h12c4.417968 0 8-3.582031 8-8s-3.582032-8-8-8h-12c-4.417969 0-8 3.582031-8 8s3.582031 8 8 8zm0 0"/><path d="m262.398438 260.859375h-44v-36h-16v36h-40v16h100zm0 0"/></g><path d="m257.921875 268.859375c-.082031-.738281-.121094-1.484375-.121094-2.230469-.050781-12.226562 9.65625-22.265625 21.882813-22.617187 12.222656-.355469 22.496094 9.101562 23.152344 21.3125.660156 12.210937-8.542969 22.71875-20.734376 23.675781-12.1875.960938-22.921874-7.976562-24.179687-20.140625zm0 0" fill="#00acea"/><path d="m166.878906 268.859375c-1.253906 12.070313-11.90625 20.933594-24.003906 19.980469-12.09375-.953125-21.222656-11.378906-20.574219-23.496094.652344-12.117188 10.847657-21.503906 22.976563-21.15625 12.128906.351562 21.769531 10.308594 21.722656 22.441406 0 .746094-.039062 1.492188-.121094 2.230469zm0 0" fill="#00acea"/></svg>