<svg height="445pt" viewBox="-11 0 445 445.82151" width="445pt" xmlns="http://www.w3.org/2000/svg"><path d="m368.816406 305.800781h-148.222656v-51.878906c0-4.417969-3.578125-8-8-8-4.417969 0-8 3.582031-8 8v51.878906h-148.429688c-15.664062 0-28.570312 12.339844-28.570312 28v23.320313c0 4.417968 3.582031 8 8 8 4.421875 0 8-3.582032 8-8v-23.320313c0-6.835937 5.730469-12 12.570312-12h148.429688v35.320313c0 4.417968 3.582031 8 8 8 4.421875 0 8-3.582032 8-8v-35.320313h148.222656c6.84375 0 12.777344 5.164063 12.777344 12v23.320313c0 4.417968 3.582031 8 8 8 4.421875 0 8-3.582032 8-8v-23.320313c0-15.660156-13.113281-28-28.777344-28zm0 0" fill="#f4b844"/><path d="m415.476562 391.820312c10.6875 10.636719 12.367188 27.34375 4.011719 39.894532-8.355469 12.554687-24.417969 17.449218-38.355469 11.695312s-21.863281-20.558594-18.929687-35.347656c2.9375-14.789062 15.914063-25.441406 30.992187-25.441406 8.355469-.019532 16.375 3.289062 22.28125 9.199218zm0 0" fill="#00acea"/><path d="m150.226562 189.472656 22.628907 22.4375 25.21875-25.039062-22.617188-22.621094zm252.617188-12.292968h.191406c0 42.375-34.355468 76.726562-76.730468 76.722656h-227.417969c-42.375.003906-76.730469-34.347656-76.730469-76.722656h.007812c-.007812-.699219-.007812-.789063-.007812-.789063v-.027344c-.007812-48.882812 36.53125-90.054687 85.070312-95.851562 15.066407-53.152344 67.015626-87.058594 121.734376-79.460938 54.722656 7.597657 95.464843 54.375 95.484374 109.621094 0 .46875 0 .941406-.007812 1.410156 4.167969-.734375 8.398438-1.050781 12.628906-.949219 17.492188-.003906 34.269532 6.960938 46.613282 19.355469 12.34375 12.398438 19.242187 29.199219 19.164062 46.691407zm0 0" fill="#00efd1"/><path d="m234.886719 391.820312c10.691406 10.640626 12.375 27.351563 4.015625 39.90625-8.355469 12.558594-24.417969 17.460938-38.363282 11.703126-13.941406-5.753907-21.871093-20.558594-18.9375-35.351563 2.929688-14.796875 15.910157-25.457031 30.992188-25.457031 8.359375-.019532 16.382812 3.292968 22.292969 9.199218zm0 0" fill="#00acea"/><path d="m198.074219 186.871094-25.21875 25.039062-22.628907-22.4375 25.230469-25.222656zm0 0" fill="#fedb41"/><path d="m54.285156 391.820312c10.6875 10.636719 12.367188 27.34375 4.011719 39.894532-8.351563 12.550781-24.410156 17.449218-38.347656 11.695312-13.9375-5.75-21.867188-20.550781-18.9375-35.339844 2.933593-14.789062 15.90625-25.445312 30.984375-25.449218 8.355468-.019532 16.378906 3.292968 22.289062 9.199218zm0 0" fill="#00acea"/><path d="m139.195312 207.5c1.855469.003906 3.640626-.734375 4.949219-2.046875l83.019531-83.023437c2.734376-2.734376 2.734376-7.164063 0-9.898438-2.730468-2.734375-7.164062-2.734375-9.898437 0l-83.019531 83.019531c-2.003906 2.003907-2.601563 5.015625-1.519532 7.628907 1.085938 2.617187 3.636719 4.320312 6.46875 4.320312zm0 0" fill="#f4b844"/><path d="m246.15625 59.691406c18.695312 0 33.847656 15.15625 33.847656 33.851563 0 18.695312-15.152344 33.847656-33.847656 33.847656s-33.851562-15.152344-33.851562-33.847656c0-18.695313 15.15625-33.851563 33.851562-33.851563zm0 0" fill="#fedb41"/></svg>