<svg height="512pt" viewBox="0 0 512 512" width="512pt" xmlns="http://www.w3.org/2000/svg"><path d="m175 512h-140v-30c13.785156 0 25-11.214844 25-25v-45h90v45c0 13.785156 11.214844 25 25 25zm0 0" fill="#266cb2"/><path d="m150 457v-45h-45v100h70v-30c-13.785156 0-25-11.214844-25-25zm0 0" fill="#114378"/><path d="m477 220h-140v-30c13.785156 0 25-11.214844 25-25v-45h90v45c0 13.785156 11.214844 25 25 25zm0 0" fill="#266cb2"/><path d="m452 165v-45h-45v100h70v-30c-13.785156 0-25-11.214844-25-25zm0 0" fill="#114378"/><path d="m90 205h30v102h-30zm0 0" fill="#ff6e84"/><path d="m175 220h-140v-30c13.785156 0 25-11.214844 25-25v-45h90v45c0 13.785156 11.214844 25 25 25zm0 0" fill="#ffb742"/><path d="m150 165v-45h-45v100h70v-30c-13.785156 0-25-11.214844-25-25zm0 0" fill="#fe8100"/><path d="m210 150h-210v-150h210zm0 0" fill="#ffe2ba"/><path d="m210 442h-210v-150h210zm0 0" fill="#ccf0ff"/><path d="m195 60h122v30h-122zm0 0" fill="#ff6e84"/><g fill="#fe3b7f"><path d="m271 445c0 8.285156-6.714844 15-15 15s-15-6.714844-15-15 6.714844-15 15-15 15 6.714844 15 15zm0 0"/><path d="m331 445c0 8.285156-6.714844 15-15 15s-15-6.714844-15-15 6.714844-15 15-15 15 6.714844 15 15zm0 0"/><path d="m451 445c0 8.285156-6.714844 15-15 15s-15-6.714844-15-15 6.714844-15 15-15 15 6.714844 15 15zm0 0"/><path d="m451 325c0 8.285156-6.714844 15-15 15s-15-6.714844-15-15 6.714844-15 15-15 15 6.714844 15 15zm0 0"/><path d="m451 265c0 8.285156-6.714844 15-15 15s-15-6.714844-15-15 6.714844-15 15-15 15 6.714844 15 15zm0 0"/><path d="m391 445c0 8.285156-6.714844 15-15 15s-15-6.714844-15-15 6.714844-15 15-15 15 6.714844 15 15zm0 0"/><path d="m451 385c0 8.285156-6.714844 15-15 15s-15-6.714844-15-15 6.714844-15 15-15 15 6.714844 15 15zm0 0"/></g><path d="m105 292h105v150h-105zm0 0" fill="#80c9ff"/><path d="m105 0h105v150h-105zm0 0" fill="#ffc474"/><path d="m512 150h-210v-150h210zm0 0" fill="#4db2ff"/><path d="m407 0h105v150h-105zm0 0" fill="#266cb2"/></svg>