<svg height="512pt" viewBox="0 0 512 512" width="512pt" xmlns="http://www.w3.org/2000/svg"><path d="m150 452h212v30h-212zm0 0" fill="#ffe2ba"/><path d="m422 452h90v30h-90zm0 0" fill="#ffc474"/><path d="m256 452h106v30h-106zm0 0" fill="#ffc474"/><path d="m0 452h90v30h-90zm0 0" fill="#ffe2ba"/><path d="m225 390h-210v-390h210zm0 0" fill="#266cb2"/><path d="m120 0h105v390h-105zm0 0" fill="#114378"/><path d="m105 315h30v122h-30zm0 0" fill="#ffe2ba"/><path d="m120 512c-24.8125 0-45-20.1875-45-45s20.1875-45 45-45 45 20.1875 45 45-20.1875 45-45 45zm0 0" fill="#ffb742"/><g fill="#80c9ff"><path d="m75 60h90v30h-90zm0 0"/><path d="m75 120h90v30h-90zm0 0"/><path d="m75 180h90v30h-90zm0 0"/></g><path d="m120 60h45v30h-45zm0 0" fill="#4db2ff"/><path d="m120 120h45v30h-45zm0 0" fill="#4db2ff"/><path d="m120 180h45v30h-45zm0 0" fill="#4db2ff"/><path d="m120 315h15v122h-15zm0 0" fill="#ffc474"/><path d="m120 330c-24.8125 0-45-20.1875-45-45s20.1875-45 45-45 45 20.1875 45 45-20.1875 45-45 45zm0 0" fill="#ffb742"/><path d="m165 285c0-24.8125-20.1875-45-45-45v90c24.8125 0 45-20.1875 45-45zm0 0" fill="#fe8100"/><path d="m165 467c0-24.8125-20.1875-45-45-45v90c24.8125 0 45-20.1875 45-45zm0 0" fill="#fe8100"/><path d="m497 390h-210v-390h210zm0 0" fill="#266cb2"/><path d="m392 0h105v390h-105zm0 0" fill="#114378"/><path d="m377 315h30v122h-30zm0 0" fill="#ffe2ba"/><path d="m392 512c-24.8125 0-45-20.1875-45-45s20.1875-45 45-45 45 20.1875 45 45-20.1875 45-45 45zm0 0" fill="#ffb742"/><path d="m347 60h90v30h-90zm0 0" fill="#80c9ff"/><path d="m347 120h90v30h-90zm0 0" fill="#80c9ff"/><path d="m347 180h90v30h-90zm0 0" fill="#80c9ff"/><path d="m392 60h45v30h-45zm0 0" fill="#4db2ff"/><path d="m392 120h45v30h-45zm0 0" fill="#4db2ff"/><path d="m392 180h45v30h-45zm0 0" fill="#4db2ff"/><path d="m392 315h15v122h-15zm0 0" fill="#ffc474"/><path d="m392 330c-24.8125 0-45-20.1875-45-45s20.1875-45 45-45 45 20.1875 45 45-20.1875 45-45 45zm0 0" fill="#ffb742"/><path d="m437 285c0-24.8125-20.1875-45-45-45v90c24.8125 0 45-20.1875 45-45zm0 0" fill="#fe8100"/><path d="m437 467c0-24.8125-20.1875-45-45-45v90c24.8125 0 45-20.1875 45-45zm0 0" fill="#fe8100"/></svg>