<svg height="467pt" viewBox="-5 0 467 467.17" width="467pt" xmlns="http://www.w3.org/2000/svg"><path d="m8.085938 467.171875h48c4.417968 0 8-3.582031 8-8v-144c0-4.421875-3.582032-8-8-8h-48c-4.417969 0-8.0000005 3.578125-8.0000005 8v144c0 4.417969 3.5820315 8 8.0000005 8zm0 0" fill="#5aaae7"/><path d="m455.445312 272.449219-11.359374-11.277344c-9.371094-9.359375-24.550782-9.359375-33.921876 0l-82.078124 82.15625v-28.15625c-.027344-8.828125-7.175782-15.976563-16-16h-208l-40 40v112l40-40h224l127.359374-127.363281c3.121094-3.144532 3.121094-8.214844 0-11.359375zm0 0" fill="#ffdaaa"/><path d="m455.445312 283.808594-127.359374 127.363281h-224l-40 40v-112l40-40h208c8.824218.023437 15.972656 7.171875 16 16v28.15625l82.078124-82.15625c9.371094-9.359375 24.550782-9.359375 33.921876 0l11.359374 11.277344c3.121094 3.144531 3.121094 8.214843 0 11.359375zm0 0" fill="#ffdaaa"/><path d="m268.574219 25.570312-26.25-21.863281c-5.933594-4.941406-14.546875-4.941406-20.480469 0l-26.246094 21.863281c-7.296875 6.082032-11.511718 15.085938-11.511718 24.582032v137.019531h96v-137.019531c0-9.496094-4.21875-18.5-11.511719-24.582032zm-36.488281 57.601563c-8.835938 0-16-7.164063-16-16 0-8.839844 7.164062-16 16-16 8.835937 0 16 7.160156 16 16 0 8.835937-7.164063 16-16 16zm0 0" fill="#ff7956"/><path d="m328.085938 187.171875c0-35.347656-12.65625-64-48-64v64zm0 0" fill="#ffe477"/><path d="m288.085938 123.730469v63.441406h-8v-64c2.675781-.023437 5.351562.164063 8 .558594zm0 0" fill="#ffd422"/><path d="m136.085938 187.171875h48v-64c-35.34375 0-48 28.652344-48 64zm0 0" fill="#ffe477"/><path d="m184.085938 123.171875v64h-8v-63.441406c2.648437-.394531 5.320312-.582031 8-.558594zm0 0" fill="#ffe477"/><path d="m248.085938 67.171875c0 8.835937-7.164063 16-16 16-8.835938 0-16-7.164063-16-16 0-8.839844 7.164062-16 16-16 8.835937 0 16 7.160156 16 16zm0 0" fill="#78b9eb"/><g fill="#ff7956"><path d="m224.085938 211.171875h16v32h-16zm0 0"/><path d="m224.085938 259.171875h16v16h-16zm0 0"/><path d="m256.085938 211.171875h16v16h-16zm0 0"/><path d="m256.085938 243.171875h16v16h-16zm0 0"/><path d="m192.085938 211.171875h16v16h-16zm0 0"/><path d="m192.085938 243.171875h16v16h-16zm0 0"/></g><path d="m24.085938 19.171875h16v48h-16zm0 0" fill="#ffb655"/><path d="m8.085938 35.171875h48v16h-48zm0 0" fill="#ffb655"/><path d="m408.085938 123.171875h16v48h-16zm0 0" fill="#ffb655"/><path d="m392.085938 139.171875h48v16h-48zm0 0" fill="#ffb655"/><path d="m56.085938 203.171875h16v48h-16zm0 0" fill="#ffb655"/><path d="m40.085938 219.171875h48v16h-48zm0 0" fill="#ffb655"/><path d="m352.085938 19.171875h16v16h-16zm0 0" fill="#ff9478"/><path d="m320.085938 75.171875h16v16h-16zm0 0" fill="#ff9478"/><path d="m80.085938 91.171875h16v16h-16zm0 0" fill="#ff9478"/><path d="m8.085938 179.171875h16v16h-16zm0 0" fill="#ff9478"/><path d="m200.085938 331.171875h128v16h-128zm0 0" fill="#ffc477"/><path d="m80.085938 323.171875v112l-16 16v-112zm0 0" fill="#ffc477"/><path d="m184.085938 123.171875v64h-8v-63.441406c2.648437-.394531 5.320312-.582031 8-.558594zm0 0" fill="#ffd422"/><path d="m288.085938 123.730469v63.441406h-8v-64c2.675781-.023437 5.351562.164063 8 .558594zm0 0" fill="#ffd422"/></svg>