<svg height="512pt" viewBox="0 -22 512.00015 512" width="512pt" xmlns="http://www.w3.org/2000/svg">
    <path d="m501.640625 307.445312c-6.640625 6.601563-15.621094 10.3125-24.980469 10.328126h-35.308594c19.46875-.03125 35.28125 15.726562 35.308594 35.199218.011719 6.238282-1.632812 12.367188-4.769531 17.761719-1.542969 2.664063-3.410156 5.125-5.558594 7.328125-6.640625 6.597656-15.617187 10.308594-24.980469 10.328125h-17.65625c19.5 0 35.308594 15.808594 35.308594 35.308594s-15.808594 35.304687-35.308594 35.304687h-197.195312c-33.011719.019532-65.566406-7.691406-95.066406-22.507812l-25.507813-12.796875v-229.503907c68.25 0 123.578125-55.328124 123.578125-123.578124v-52.960938c.027344-9.738281 7.914063-17.625 17.652344-17.65625h17.65625c29.25 0 52.960938 23.710938 52.960938 52.960938v27.628906c.003906 28.472656-4.585938 56.757812-13.59375 83.769531l-4.058594 12.179687h157.558594c15.5625.445313 29.355468 10.136719 35.042968 24.628907 5.898438 18.585937-4.386718 38.433593-22.972656 44.332031-3.472656 1.105469-7.097656 1.664062-10.746094 1.65625h16.332032c15.558593.445312 29.351562 10.136719 35.042968 24.628906 3.941406 12.585938.574219 26.320313-8.738281 35.660156zm0 0" fill="#0de2e2" />
    <path d="m70.617188 423.699219c0 9.75-7.90625 17.652343-17.65625 17.652343s-17.652344-7.902343-17.652344-17.652343 7.902344-17.65625 17.652344-17.65625 17.65625 7.90625 17.65625 17.65625zm0 0" fill="#f1f2f2" />
    <g fill="#82e7e8">
        <path d="m471.890625 370.734375c-1.542969 2.664063-3.410156 5.125-5.558594 7.328125-6.640625 6.597656-15.617187 10.308594-24.980469 10.328125h-44.136718c-4.875 0-8.824219-3.953125-8.824219-8.828125s3.949219-8.828125 8.824219-8.828125zm0 0" />
        <path d="m454.238281 441.351562c-1.542969 2.660157-3.410156 5.121094-5.5625 7.324219-6.640625 6.601563-15.617187 10.3125-24.980469 10.328125h-26.480468c-4.875 0-8.828125-3.949218-8.828125-8.824218s3.953125-8.828126 8.828125-8.828126zm0 0" />
        <path d="m507.199219 300.117188c-1.542969 2.664062-3.410157 5.125-5.558594 7.328124-6.640625 6.601563-15.621094 10.3125-24.980469 10.328126h-61.789062c-4.875 0-8.828125-3.953126-8.828125-8.828126s3.953125-8.828124 8.828125-8.828124zm0 0" />
        <path d="m489.546875 229.503906c-1.542969 2.660156-3.410156 5.121094-5.5625 7.324219-6.640625 6.601563-15.617187 10.3125-24.980469 10.328125h-44.132812c-4.875 0-8.828125-3.953125-8.828125-8.828125s3.953125-8.824219 8.828125-8.824219zm0 0" />
    </g>
    <path d="m0 150.058594v150.058594h105.925781v-150.058594zm0 0" fill="#006df0" />
    <path d="m0 467.832031h105.925781v-167.714843h-105.925781zm52.960938-61.789062c9.75 0 17.65625 7.90625 17.65625 17.65625s-7.90625 17.652343-17.65625 17.652343-17.652344-7.902343-17.652344-17.652343 7.902344-17.65625 17.652344-17.65625zm0 0" fill="#005ece" />
</svg>