<?xml version="1.0" encoding="utf-8"?>
<!-- Generator: Adobe Illustrator 23.0.2, SVG Export Plug-In . SVG Version: 6.00 Build 0)  -->
<svg version="1.1" xmlns="http://www.w3.org/2000/svg" xmlns:xlink="http://www.w3.org/1999/xlink" x="0px" y="0px"
	 viewBox="0 0 500 372.5" style="enable-background:new 0 0 500 372.5;" xml:space="preserve">
<style type="text/css">
	.st0{display:none;}
	.st1{display:inline;fill:#FFFFFF;}
	.st2{fill:#FFD817;}
	.st3{fill:none;stroke:#FFA200;stroke-width:0.879;stroke-miterlimit:10;}
	.st4{fill:#FF7700;}
	.st5{fill:none;stroke:#995417;stroke-width:1.0223;stroke-miterlimit:10;}
	.st6{fill:#A6B1ED;}
	.st7{fill:#FFEB8A;}
	.st8{fill:#8EAD46;}
	.st9{fill:none;stroke:#525730;stroke-width:0.8771;stroke-miterlimit:10;}
	.st10{fill:none;stroke:#000000;stroke-width:0.9556;stroke-miterlimit:10;}
	.st11{fill:#D4DAFF;}
	.st12{fill:#ECFFBF;}
	.st13{fill:#598048;}
	.st14{fill:none;stroke:#525730;stroke-width:0.9512;stroke-miterlimit:10;}
	.st15{fill:none;stroke:#292E4A;stroke-width:1.0223;stroke-miterlimit:10;}
	.st16{fill:#3747A3;}
	.st17{fill:#4A60DB;}
	.st18{fill:#292E4A;}
	.st19{fill:none;stroke:#FFFFFF;stroke-width:1.4467;stroke-linecap:round;stroke-linejoin:round;stroke-miterlimit:10;}
	.st20{fill:none;stroke:#3747A3;stroke-width:0.9823;stroke-miterlimit:10;}
	.st21{fill:#F9B989;}
	.st22{fill:#FFFFFF;}
	.st23{fill:#6470B5;}
	.st24{fill:#495285;}
	.st25{fill:none;stroke:#FFA200;stroke-width:0.7146;stroke-miterlimit:10;}
	.st26{fill:#D1D1D1;}
	.st27{fill:#F59462;}
	.st28{fill:#995417;}
	.st29{fill:none;stroke:#495285;stroke-miterlimit:10;}
</style>
<g id="BACKGROUND" class="st0">
	<rect y="-51.3" class="st1" width="500" height="500"/>
</g>
<g id="OBJECTS">
	<g>
		<g>
			<rect x="197.7" y="80.4" class="st2" width="51.3" height="68"/>
			<line class="st3" x1="203.5" y1="92.4" x2="213.5" y2="92.4"/>
			<line class="st3" x1="203.5" y1="102.4" x2="241.2" y2="102.4"/>
			<line class="st3" x1="203.5" y1="112.5" x2="241.2" y2="112.5"/>
			<line class="st3" x1="203.5" y1="122.5" x2="241.2" y2="122.5"/>
			<line class="st3" x1="203.5" y1="132.5" x2="241.2" y2="132.5"/>
		</g>
		<g>
			<path class="st4" d="M34.1,123.9c0,0,7.1-21.6,10-29.7c2.9-8.1,4.8-25-5-26.8c-9.8-1.9-13.8,12-13.7,24.9
				C25.5,105.1,34.1,123.9,34.1,123.9z"/>
			<path class="st4" d="M32.4,158.5c0,0-7.1-41.4-20.1-37C-0.8,125.9,11.6,154.8,32.4,158.5z"/>
			<path class="st4" d="M38.9,144.5c0,0-1.2-14.1,5.1-26.4c6.2-12.3,14.1-11,15.6-5.4C63,125,43.7,136.6,38.9,144.5z"/>
			<path class="st4" d="M42.3,178.9c0,0-0.4-12.1,3.9-26.8c4.3-14.7,15.9-19.4,21.9-12.4c3.2,3.7-1,19.8-11.3,27
				C48.2,172.9,42.3,178.9,42.3,178.9z"/>
			<path class="st4" d="M39.1,189.8c0,0-7.5-19.6-18.1-24.4c-10.6-4.8-13.4,2.7-10.7,10.4C12.9,183.6,23.3,190.6,39.1,189.8z"/>
			<path class="st5" d="M38.1,68.4c0,0-13.2,63.2,8,137.6"/>
			<path class="st5" d="M60.3,142.3c-0.3,0.3-15.7,24.6-19.5,42"/>
			<path class="st5" d="M14.1,168.8c0,0,5.2,10.6,28.3,22.7"/>
			<path class="st5" d="M11.3,126.3c1.7,11.5,7,23.8,25.5,34.4"/>
			<path class="st5" d="M55.3,111.8c0,0-11.6,13.1-19.3,42.6"/>
		</g>
		<g>
			<path class="st4" d="M480.9,194.5c0,0-1.9-14.2-2.7-19.6c-0.8-5.4,0-16,6.3-16c6.3,0,7.1,9,5.5,17.1
				C488.5,183.9,480.9,194.5,480.9,194.5z"/>
			<path class="st4" d="M477.9,216.1c0,0,9.3-24.8,16.9-20.5S491.2,216.4,477.9,216.1z"/>
			<path class="st4" d="M475.5,206.7c0,0,2.4-8.6,0-16.9s-7.4-8.5-9-5.2C462.9,191.7,473.5,201.2,475.5,206.7z"/>
			<path class="st5" d="M485,159.7c0,0,0.7,40.7-21.3,84.2"/>
			<path class="st5" d="M494.7,198.7c-2.4,6.9-7.2,13.9-19.8,18.3"/>
			<path class="st5" d="M469.2,184.5c0,0,5.7,9.5,6.9,28.7"/>
		</g>
		<path class="st6" d="M408.3,129.5c10.9,0,45.8,0,53,0c7.2,0,13.4,0.7,13.9-2.6c0.5-3.3-4.6-4.1-6.7-6.9
			c-2.1-2.9-1.4-12.9-10.2-12.9s-11.1,7.1-14.5,5.8c-3.4-1.3-5.3-16.6-13.9-16.3c-8.6,0.2-13.7,20.1-18.3,18.4
			c-4.5-1.6-13.3-1-14.3,4.8c-1,5.7-17.6,2.9-18.2,7.4C378.6,131.6,395.5,129.5,408.3,129.5z"/>
		<g>
			<path class="st7" d="M393.6,151.3c3.1,0.6,5.9,1.5,8.2,2.7c2.4,1.2,4.3,2.6,5.9,4.2c1.6,1.6,2.8,3.2,3.6,4.9
				c0.8,1.7,1.3,3.3,1.4,4.8c0.1,0.8-0.2,1.4-0.7,1.8c-0.5,0.5-1.2,0.7-1.9,0.7h-6.7c-1.1,0-1.9-0.2-2.4-0.6c-0.5-0.4-1-1-1.5-1.6
				c-1-1.6-2.4-2.9-4.4-4.1c-1.9-1.2-4.8-1.7-8.7-1.7c-1.7,0-3.2,0.2-4.7,0.5c-1.5,0.3-2.8,0.8-3.9,1.5c-1.1,0.7-2,1.5-2.6,2.4
				c-0.6,0.9-1,2-1,3.2c0,1.4,0.3,2.6,1,3.5c0.7,0.9,1.8,1.7,3.4,2.4c1.6,0.7,3.6,1.3,6,1.8c2.5,0.6,5.4,1.2,8.9,2
				c3.8,0.8,7.1,1.8,9.7,2.9c2.6,1.1,4.8,2.4,6.5,4c1.7,1.5,2.9,3.3,3.6,5.3c0.7,2,1.1,4.3,1.1,6.9c0,2.4-0.5,4.7-1.4,6.9
				c-1,2.1-2.3,4-4.2,5.7c-1.8,1.7-4,3.1-6.6,4.2c-2.6,1.1-5.6,1.9-8.9,2.4v6.4c0,0.7-0.3,1.3-0.8,1.8c-0.5,0.5-1.1,0.8-1.8,0.8
				h-7.7c-0.7,0-1.3-0.3-1.8-0.8c-0.5-0.5-0.8-1.1-0.8-1.8v-6.4c-2.9-0.4-5.6-1.2-8.1-2.2c-2.5-1-4.7-2.3-6.6-3.8
				c-1.9-1.5-3.4-3.2-4.5-5.2c-1.1-2-1.8-4.2-1.9-6.5c-0.1-0.8,0.2-1.4,0.7-1.8c0.5-0.5,1.2-0.7,1.9-0.7h6.7c1.1,0,1.9,0.2,2.5,0.6
				c0.6,0.4,1.1,0.9,1.4,1.7c0.4,0.8,1,1.6,1.6,2.4c0.6,0.8,1.5,1.5,2.6,2.2c1.1,0.6,2.4,1.1,4.1,1.6c1.6,0.4,3.6,0.6,6.1,0.6
				c1.9,0,3.8-0.1,5.5-0.4c1.8-0.3,3.3-0.8,4.7-1.4c1.3-0.7,2.4-1.5,3.3-2.4c0.8-1,1.2-2.2,1.2-3.6c0-1.4-0.4-2.5-1.3-3.4
				c-0.9-0.9-2.2-1.6-4.1-2.3c-1.8-0.6-4.1-1.2-6.7-1.8c-2.7-0.6-5.8-1.3-9.3-2.2c-3.2-0.8-6-1.6-8.4-2.7c-2.4-1-4.4-2.3-5.9-3.8
				c-1.6-1.5-2.7-3.3-3.5-5.3c-0.8-2-1.1-4.5-1.1-7.3c0-2.4,0.5-4.7,1.4-6.8c1-2.1,2.3-3.9,4-5.6c1.7-1.7,3.7-3,6.1-4.1
				c2.4-1.1,4.9-1.9,7.7-2.4v-6.4c0-0.7,0.3-1.3,0.8-1.8c0.5-0.5,1.1-0.8,1.8-0.8h7.7c0.7,0,1.3,0.3,1.8,0.8
				c0.5,0.5,0.8,1.1,0.8,1.8V151.3z"/>
		</g>
		<g>
			<g>
				<path class="st8" d="M329,327.5h152.2c0,0,8.4-1.2,3.6-9.9c-4.7-8.7-7.3-8.7-1.5-27.2c5.8-18.5,16.3-52.7,8-54.5
					c-8.4-1.8-17.4,24.4-28,25.5c-10.5,1,13.1-90.3-12.7-91.1c-25.8-0.8-36.7,61.3-45.8,72.2c-9.1,10.9-22.3-7.7-32.1,6.4
					c-9.8,14.1-7.1,59.6-16.7,55C340.1,296.1,329,327.5,329,327.5z"/>
				<path class="st9" d="M450.7,170.4c0,0-17.3,101.6-41.6,157.2"/>
				<path class="st9" d="M491.4,236c0,0-24.3,62.8-53.2,91.5"/>
				<path class="st9" d="M378.3,244.2c0,0,15.2,41.8,14.7,83.3"/>
				<path class="st9" d="M339.3,309.3c0,0,3.7,10.1,10.8,18.3"/>
				<path class="st9" d="M370.2,254.3c0,0,4,3,13.8,8.6"/>
				<path class="st9" d="M366.1,272c0,0,10,15.5,25.1,27.1"/>
				<path class="st9" d="M408.1,237.1c0,0-2,44,9,70"/>
				<path class="st9" d="M423.9,196.7c0,0-1.6,47.5,6.6,66.2"/>
				<path class="st9" d="M461.1,239.5c0,0-16,32.7-37.5,47.9"/>
				<path class="st9" d="M463.3,202.9c0,0-13.1,13-23.6,22.4"/>
				<line class="st9" x1="438.2" y1="175.4" x2="444.5" y2="202.9"/>
				<path class="st9" d="M493,255.7c0,0-8.1,9.6-17.8,16.2"/>
				<path class="st9" d="M483.4,290.5c0,0-19.4,18.4-35.3,25.7"/>
			</g>
			<line class="st10" x1="496.6" y1="327.5" x2="315.2" y2="327.5"/>
		</g>
		<path class="st11" d="M66.9,252.7v-13.2l-8.3,0.4c-0.5-2-1.3-3.8-2.3-5.6l6.2-5.6l-9.3-9.3l-5.6,6.2c-1.7-1-3.6-1.8-5.6-2.3
			l0.4-8.3H29.3l0.4,8.3c-2,0.5-3.8,1.3-5.6,2.3l-5.6-6.2l-9.3,9.3l6.2,5.6c-1,1.7-1.8,3.6-2.3,5.6l-8.3-0.4v13.2l8.3-0.4
			c0.5,2,1.3,3.8,2.3,5.6l-6.2,5.6l9.3,9.3l5.6-6.2c1.7,1,3.6,1.8,5.6,2.3l-0.4,8.3h13.2l-0.4-8.3c2-0.5,3.8-1.3,5.6-2.3l5.6,6.2
			l9.3-9.3l-6.2-5.6c1-1.7,1.8-3.6,2.3-5.6L66.9,252.7z M35.9,257.6c-6.4,0-11.5-5.2-11.5-11.5c0-6.4,5.2-11.5,11.5-11.5
			c6.4,0,11.5,5.2,11.5,11.5C47.4,252.4,42.2,257.6,35.9,257.6z"/>
		<path class="st11" d="M173.7,166v-15l-9.5,0.5c-0.6-2.3-1.5-4.4-2.6-6.4l7.1-6.3L158,128.2l-6.3,7.1c-2-1.1-4.1-2-6.4-2.6l0.5-9.5
			h-15l0.5,9.5c-2.3,0.6-4.4,1.5-6.4,2.6l-6.3-7.1L108,138.8l7.1,6.3c-1.1,2-2,4.1-2.6,6.4l-9.5-0.5v15l9.5-0.5
			c0.6,2.3,1.5,4.4,2.6,6.4l-7.1,6.3l10.6,10.6l6.3-7.1c2,1.1,4.1,2,6.4,2.6l-0.5,9.5h15l-0.5-9.5c2.3-0.6,4.4-1.5,6.4-2.6l6.3,7.1
			l10.6-10.6l-7.1-6.3c1.1-2,2-4.1,2.6-6.4L173.7,166z M138.3,171.6c-7.3,0-13.1-5.9-13.1-13.1s5.9-13.1,13.1-13.1
			c7.3,0,13.1,5.9,13.1,13.1S145.6,171.6,138.3,171.6z"/>
		<path class="st12" d="M42.3,321.8h316c0,0-16.3-24-40.3-30.2c-24-6.2-31.1,4.1-44.7-18.8s-26.1-37-42.5-37.6
			c-16.3-0.6-43.2,16.9-73.6-1.9c-35.6-22-64.4-2.8-66.1,26C89.5,288.2,35.2,278.7,42.3,321.8z"/>
		<path class="st13" d="M245,321.8c0,0,6.1-17.3,11.8-16c5.7,1.2,9.5,9.7,16.1,2.9c6.6-6.7,3.3-30.3,15.2-32.3
			c11.9-2,5.2,26.4,13,21.6c9.6-5.9,19.5-37.1,31.6-34.2c12.1,2.9,11.8,58,11.8,58H245z"/>
		<polygon class="st2" points="208.5,321.8 254.6,231.1 281.3,240.8 312.7,171.1 344,182.8 384.9,87.6 402.1,93.8 402.1,42.2 
			353,78.2 369.5,83.2 328.4,144.6 292.4,126.8 245.2,193.8 206.3,174.5 117.8,321.8 		"/>
		<g>
			<path class="st8" d="M14.4,322.1c0,0-13.1-49.1-3.3-50.5c9.8-1.4,8.6,10.3,18.1,9.8c9.4-0.5-5.8-85.8,16.6-89.4
				c22.4-3.6,35.8,81.6,47,72.9c11.2-8.7,35-55.8,38.3,56.8L14.4,322.1z"/>
			<path class="st14" d="M45.7,192.1c0,0,4.6,75.5,23.5,130.1"/>
			<path class="st14" d="M52.8,193.9c0,0-1.9,14.9-4.9,23"/>
			<path class="st14" d="M33.8,214.2c0,0,1.7,7,17.1,26.3"/>
			<path class="st14" d="M71.9,226.6c0,0-3.1,50.9-11.6,64.7"/>
			<path class="st14" d="M11,271.7c0,0,6.9,21.9,31.4,50.5"/>
			<path class="st14" d="M32.5,247.4c0,0,9.1,33.3,32.7,62.5"/>
			<path class="st14" d="M22.1,278.5c0,0,2.1,9.3,3,20.5"/>
			<path class="st14" d="M9.1,297.9c0,0,11.2,7.9,27.1,16.7"/>
		</g>
		<line class="st15" x1="10.9" y1="321.8" x2="329" y2="321.8"/>
		<g>
			<path class="st16" d="M64.6,346V174.5c0-8.7,7-15.7,15.7-15.7h76.5c8.7,0,15.7,7,15.7,15.7V346c0,8.7-7,15.7-15.7,15.7H80.3
				C71.6,361.8,64.6,354.7,64.6,346z"/>
			<path class="st17" d="M73,346V174.5c0-8.7,7-15.7,15.7-15.7h76.5c8.7,0,15.7,7,15.7,15.7V346c0,8.7-7,15.7-15.7,15.7H88.7
				C80,361.8,73,354.7,73,346z"/>
			<path class="st18" d="M163.8,163.9h-17.1c-0.9,0-1.7,0.6-2,1.5l-0.8,2.6c-0.4,1.4-1.8,2.4-3.2,2.4h-27.4c-1.5,0-2.8-1-3.2-2.4
				l-0.8-2.6c-0.3-0.9-1.1-1.5-2-1.5H90.1c-6.6,0-11.9,5.3-11.9,11.9v168.7c0,6.6,5.3,11.9,11.9,11.9h73.6c6.6,0,11.9-5.3,11.9-11.9
				V175.9C175.7,169.3,170.4,163.9,163.8,163.9z"/>
			<path class="st18" d="M134.5,166.3h-15.2c-0.5,0-0.8-0.4-0.8-0.8l0,0c0-0.5,0.4-0.8,0.8-0.8h15.2c0.5,0,0.8,0.4,0.8,0.8l0,0
				C135.4,165.9,135,166.3,134.5,166.3z"/>
			<line class="st19" x1="68.3" y1="192.9" x2="68.3" y2="218.1"/>
			<line class="st19" x1="68.3" y1="225.9" x2="68.3" y2="237.7"/>
		</g>
		<g>
			<polygon class="st17" points="303.8,353.9 323.7,240.1 470.6,240.1 450.7,353.9 			"/>
			<polygon class="st18" points="446.6,349.1 309.6,349.1 327.7,244.9 464.8,244.9 			"/>
			<rect x="206.7" y="353.9" class="st16" width="244.6" height="8.2"/>
			<rect x="206.7" y="353.9" class="st17" width="112.4" height="8.2"/>
			<line class="st20" x1="451.2" y1="353.9" x2="206.7" y2="353.9"/>
		</g>
		<g>
			<path class="st21" d="M414.2,325c0,0,1.5,4.3,1,6.4c-0.5,2.1-2.2,3.9-2.3,7c-0.1,3.1,0.2,8.5,1.2,8.7c1,0.2,0.3-4.1,1.2-4.4
				s3.9,6.3,3.9,6.3h8.9c0,0-3.1-19.2-3.5-22.4C424.1,323.2,414.2,325,414.2,325z"/>
			<path class="st21" d="M263,273.8c0,0-14.3-1.2-18-2.1c-3.6-0.9-13.2,2.1-13.2,2.1l16,13.2c0,0,4-2.5,8.4-3.2
				c4.4-0.7,7.4-0.5,7.4-0.5L263,273.8z"/>
			<path class="st21" d="M324.5,191.6c-0.2,3.6-1.1,12.6-0.6,16.8c0.6,4.2,2.7,7.1,7.1,6.4c4.3-0.7,8.2,17.7,8.2,17.7l9.3,1.4
				l6.7-10.2l-6.3-11.2c0,0,4.6-12.4,2.2-19.7c-2.4-7.3-19.6-13-26.1-10.6C318.5,184.5,324.5,191.6,324.5,191.6z"/>
			<polygon class="st4" points="333.7,222.5 344.4,226.8 346.6,231.7 346.6,225.4 354.7,217 356.8,221.6 378.2,306.3 346.3,306.3 
				327.6,231.7 333.2,228 			"/>
			<polygon class="st22" points="395.7,348.9 330.6,348.9 342.7,306.3 392.2,306.3 			"/>
			<path class="st23" d="M333.2,228c3.2,8.7,17.5,69,19.7,77.1c2.2,8.2,3.5,30.7,3.5,30.7s-18.9,0.4-23.2,0
				c-4.3-0.4,1.4-26.5,1.2-32.5s-11.6-37-11.6-37s-21.4,18.7-24.7,19.1c-3.3,0.4-37-0.9-37-0.9v-11.8c0,0,28.3-1.6,31.4-3.3
				c3.1-1.6,21.8-23.2,26.3-28.7C323.3,235.2,327.5,228.2,333.2,228z"/>
			<path class="st24" d="M315.9,252.9c-2.5,0.3-5,15.8-8.2,20.3c-2,2.9-4.9,7.3-6.6,10.5c6.9-4.6,21.6-17.4,21.6-17.4
				C321.4,263,318.4,252.6,315.9,252.9z"/>
			<path class="st23" d="M413.5,327.6h12.4l-4.9-27.3c-1.6-10.1-4.8-19.8-9.6-28.8c-8.1-15.3-20.7-38.1-25.9-42
				c-3.4-2.6-18.8-8.4-28.7-7.9c0,0,11.3,69.5,12.9,80.4s8.4,32.4,8.4,32.4H401l-5.3-31.3l-6.1-29.2l12.9,17.3L413.5,327.6z"/>
			<path class="st24" d="M389.6,273.9c0,0-7.8-10.8-9.5-16.8c-1.8-6-2.7-14.3-1.9-16.6s-1.9-3.3-3.1,6.7c-1.2,9.9-1.2,18.8,4.8,28.6
				c6,9.8,1.8,15.5,6.5,24.2s10.9,12.1,10.9,12.1L389.6,273.9z"/>
			<path d="M316.7,181c3.1-6.8,10.6-2.7,18.8-1.8c8.2,1,15.9,2,18.6,7.9c2.7,5.9-0.6,17.8-5.1,25.2c0,0-3.6-4.5-3.7-7.6
				c0-3.1,3.7-5.1,2.1-8.1c-1.5-3-3.7-1.1-4.2,0.2c-0.5,1.3-0.8,2.6-1.3,2c-0.6-0.7,0.5-3.5,0.2-5.8c-0.3-2.3-1.4-5.7-6.6-5
				c-5.2,0.8-10.6-0.4-10.6-0.4l-0.3,3.9C324.5,191.6,313.2,188.7,316.7,181z"/>
		</g>
		<path class="st6" d="M85.6,66c17,0,103.1,0,122.5,0s27.4-2.4,17.4-9.4s-13-7.3-16.4-14.3c-3.3-7-11-11.5-21.7-10.1
			c-10.7,1.4-17.9,5.2-26.1-3.1c-8.2-8.3-15.9-21.2-35.9-13.6c-20.9,8-21.9,27.1-38.7,30.9C69.8,50.3,51.2,66,85.6,66z"/>
		<g>
			<path class="st17" d="M186.9,224.3c0,0,7.3-1.3,10.2-9.7c2.8-8.5,10.6-17.3,24.1-16c13.6,1.3,20.4,11.1,18.6,25.7
				c-1.9,14.6-14.4,16.8-23.6,16.6c-9.3-0.1-15.6-9.8-19.6-12.9C192.5,224.8,186.9,224.3,186.9,224.3z"/>
			<path class="st22" d="M229.5,221.9v-4.4l-2.8,0.1c-0.2-0.7-0.4-1.3-0.8-1.9l2.1-1.9l-3.1-3.1l-1.9,2.1c-0.6-0.3-1.2-0.6-1.9-0.8
				l0.1-2.8h-4.4l0.1,2.8c-0.7,0.2-1.3,0.4-1.9,0.8l-1.9-2.1l-3.1,3.1l2.1,1.9c-0.3,0.6-0.6,1.2-0.8,1.9l-2.8-0.1v4.4l2.8-0.1
				c0.2,0.7,0.4,1.3,0.8,1.9l-2.1,1.9l3.1,3.1l1.9-2.1c0.6,0.3,1.2,0.6,1.9,0.8l-0.1,2.8h4.4l-0.1-2.8c0.7-0.2,1.3-0.4,1.9-0.8
				l1.9,2.1l3.1-3.1l-2.1-1.9c0.3-0.6,0.6-1.2,0.8-1.9L229.5,221.9z M219.1,223.5c-2.1,0-3.9-1.7-3.9-3.9s1.7-3.9,3.9-3.9
				c2.1,0,3.9,1.7,3.9,3.9S221.2,223.5,219.1,223.5z"/>
		</g>
		<g>
			<rect x="259" y="68.8" class="st7" width="33.2" height="44"/>
			<line class="st25" x1="262.7" y1="76.5" x2="269.2" y2="76.5"/>
			<line class="st25" x1="262.7" y1="83" x2="287.2" y2="83"/>
			<line class="st25" x1="262.7" y1="89.5" x2="287.2" y2="89.5"/>
			<line class="st25" x1="262.7" y1="96" x2="287.2" y2="96"/>
			<line class="st25" x1="262.7" y1="102.5" x2="287.2" y2="102.5"/>
		</g>
		<g>
			<path class="st17" d="M253.8,159.3c4.5-4.2,49.5-1.7,52.7,0.9c3.1,2.6,1,20.7,1.1,27.5c0.1,4,3.7,11.9,8.4,12.3
				c-5.4,2.8-13.9,0.8-18.2-1.6c-4.3-2.5-5.7-2-13.8-2s-21,0-26.4,0c-5.3,0-6.9-5.3-6.9-13.3S250.9,162.1,253.8,159.3z"/>
			<g>
				<path class="st2" d="M283,167c1,0.2,1.8,0.5,2.6,0.8c0.7,0.4,1.4,0.8,1.9,1.3c0.5,0.5,0.9,1,1.1,1.5c0.3,0.5,0.4,1,0.4,1.5
					c0,0.2-0.1,0.4-0.2,0.6c-0.2,0.1-0.4,0.2-0.6,0.2h-2.1c-0.3,0-0.6-0.1-0.8-0.2c-0.2-0.1-0.3-0.3-0.5-0.5
					c-0.3-0.5-0.8-0.9-1.4-1.3c-0.6-0.4-1.5-0.5-2.7-0.5c-0.5,0-1,0.1-1.5,0.2c-0.5,0.1-0.9,0.3-1.2,0.5c-0.3,0.2-0.6,0.5-0.8,0.8
					c-0.2,0.3-0.3,0.6-0.3,1c0,0.5,0.1,0.8,0.3,1.1c0.2,0.3,0.6,0.5,1.1,0.7c0.5,0.2,1.1,0.4,1.9,0.6c0.8,0.2,1.7,0.4,2.8,0.6
					c1.2,0.3,2.2,0.6,3,0.9c0.8,0.3,1.5,0.8,2,1.2c0.5,0.5,0.9,1,1.1,1.7c0.2,0.6,0.3,1.3,0.3,2.2c0,0.8-0.1,1.5-0.4,2.2
					c-0.3,0.7-0.7,1.3-1.3,1.8c-0.6,0.5-1.3,1-2.1,1.3c-0.8,0.4-1.7,0.6-2.8,0.7v2c0,0.2-0.1,0.4-0.2,0.6c-0.2,0.2-0.3,0.2-0.6,0.2
					h-2.4c-0.2,0-0.4-0.1-0.6-0.2c-0.2-0.2-0.2-0.3-0.2-0.6v-2c-0.9-0.1-1.7-0.4-2.5-0.7c-0.8-0.3-1.5-0.7-2.1-1.2
					c-0.6-0.5-1.1-1-1.4-1.6s-0.6-1.3-0.6-2c0-0.2,0.1-0.4,0.2-0.6c0.2-0.1,0.4-0.2,0.6-0.2h2.1c0.3,0,0.6,0.1,0.8,0.2
					c0.2,0.1,0.3,0.3,0.4,0.5c0.1,0.3,0.3,0.5,0.5,0.8c0.2,0.3,0.5,0.5,0.8,0.7c0.3,0.2,0.8,0.4,1.3,0.5c0.5,0.1,1.1,0.2,1.9,0.2
					c0.6,0,1.2,0,1.7-0.1c0.6-0.1,1-0.2,1.5-0.4c0.4-0.2,0.8-0.5,1-0.8c0.3-0.3,0.4-0.7,0.4-1.1c0-0.4-0.1-0.8-0.4-1.1
					c-0.3-0.3-0.7-0.5-1.3-0.7c-0.6-0.2-1.3-0.4-2.1-0.6c-0.8-0.2-1.8-0.4-2.9-0.7c-1-0.2-1.9-0.5-2.6-0.8c-0.7-0.3-1.4-0.7-1.9-1.2
					c-0.5-0.5-0.9-1-1.1-1.7c-0.2-0.6-0.4-1.4-0.4-2.3c0-0.8,0.1-1.5,0.4-2.1c0.3-0.6,0.7-1.2,1.2-1.8c0.5-0.5,1.2-1,1.9-1.3
					c0.7-0.3,1.5-0.6,2.4-0.8v-2c0-0.2,0.1-0.4,0.2-0.6c0.2-0.2,0.3-0.2,0.6-0.2h2.4c0.2,0,0.4,0.1,0.6,0.2c0.2,0.2,0.2,0.3,0.2,0.6
					V167z"/>
			</g>
		</g>
		<g>
			<path class="st22" d="M155.7,313.4l2.5,43.1H88.7c0,0,1.8-9.6,1.8-17.4c0-15.5,9.3-25.7,9.3-25.7H155.7z"/>
			<polygon class="st26" points="134.9,356.5 158.3,356.5 155.7,313.4 146.8,313.4 			"/>
			<path class="st27" d="M177.2,184.1c0,0-0.7,9.8,0.5,11.5c1.3,1.7,0.8,2.8-0.4,3.4c-1.2,0.5-1.2,9.6-3.9,10.3
				c-2.7,0.6-5.1-1.4-6.1,1.5c-1,2.9-2.3,9.9-2.3,9.9l-17.2-1.2l4.8-12.7c0,0-3.3-9.4-1.1-17.6C153.9,180.9,176.7,175.9,177.2,184.1
				z"/>
			<path class="st23" d="M143.9,215.6l28.7,4c0.7,0.1,1.1,0.7,0.9,1.4l-1.7,6.6c0,0,1.5,10.2,0.9,17.8c-0.5,7.6-6.7,34.1-8.4,42.3
				c-1.6,8.2-2.9,28.3-7.1,28.5c-4.2,0.2-52.7,0-61,0s4.2-8.5,8.4-16c4.2-7.4,9.3-32.5,16-46.9c6.7-14.3,21.6-30.4,22-33.5
				C143,216.7,142.3,215.4,143.9,215.6z"/>
			<path class="st24" d="M141.4,244.7c-3-3.8-4.7-2.9-3.1,3.5c1.6,6.4,3.7,12.1,9.7,15.9c5.4,3.4,6.7,23.9,15.5,29.1
				c0.3-2.2,0.6-4.1,0.9-5.6c1.3-6.7,5.7-25.6,7.6-36.5C172,251.2,144,248,141.4,244.7z"/>
			<path class="st27" d="M177.9,252.9c0,0,10.4,14,13.7,15c3.4,1,37,3.7,39.9,3.7c2.9,0,9.5,4.1,12.2,5.4s9.5,7.1,6,9.2
				c-3.5,2.1-9.7,1.9-13.3,0s-6.4-4.4-9.6-4.4c-3.2,0-34.3,0.8-41.1-1.3c-9.4-2.9-24.1-18.8-26.5-20.9L177.9,252.9z"/>
			<path class="st21" d="M228.5,284.1c0.3-2.1-0.1-4.2,2.9-3.1c3,1.1,6.1,3.6,8.4,4.3s-0.1,3.5-2,3.5S228.3,286.2,228.5,284.1z"/>
			<path class="st21" d="M228.2,273.3c0,0,12.3-2.2,15.5-1.7c3.1,0.5,1.1,1.8-2.5,2.9C233,276.9,224.9,274.9,228.2,273.3z"/>
			<path class="st28" d="M159.5,194.3c0,0-3.3-3.3-4.2,0c-0.9,3.3,2.7,6,2.1,7.8c-0.6,1.8-3.4,8.9-5.4,8.5c-2-0.4,0.5-4.4-1.8-8
				c-2.4-3.6-5.4-8-3.5-16.2c2-8.2,8.4-6,10.5-9.1c2.2-3.1,4-6.2,12.5-5.3c8.5,0.9,12.3-4.1,16-0.2c3.6,4,3.1,11.2-6,13.2
				c-9.1,2-10.9-0.7-12.8,1.5C165.1,188.9,161.9,194.2,159.5,194.3z"/>
			<path class="st23" d="M139.4,242.5l17.8,20.4l22.8-8.8c0,0-10.7-16.2-14.3-20.5c-3.6-4.4-10-8.8-15.4-7.9
				C144.8,226.6,135,236.6,139.4,242.5z"/>
			<path class="st29" d="M162,230c0,0,4.9,3.5,10.8,13.5"/>
		</g>
		<line class="st15" x1="52" y1="361.8" x2="181.1" y2="361.8"/>
		<line class="st15" x1="202.7" y1="361.8" x2="471.9" y2="361.8"/>
	</g>
</g>
<g id="DESIGNED_BY_FREEPIK">
</g>
</svg>
