<?xml version="1.0" encoding="utf-8"?>
<!-- Generator: Adobe Illustrator 23.0.2, SVG Export Plug-In . SVG Version: 6.00 Build 0)  -->
<svg version="1.1" id="Слой_1" xmlns="http://www.w3.org/2000/svg" xmlns:xlink="http://www.w3.org/1999/xlink" x="0px" y="0px"
	 viewBox="0 0 567.4 401.4" style="enable-background:new 0 0 567.4 401.4;" xml:space="preserve">
<style type="text/css">
	.st0{fill:#FCFCFC;}
	.st1{fill:url(#SVGID_1_);}
	.st2{fill:url(#SVGID_2_);}
	.st3{fill:#64A4FF;}
	.st4{fill:#BBD070;}
	.st5{fill:#97A43C;}
	.st6{fill:#48753A;}
	.st7{fill:#DBD8E3;}
	.st8{fill:#323657;}
	.st9{fill:#EEA987;}
	.st10{fill:#E8734D;}
	.st11{fill:#C4C1CC;}
	.st12{fill:#EFAA88;}
	.st13{fill:#EEA886;}
	.st14{fill:#16202E;}
	.st15{fill:#A77860;}
	.st16{fill:#4DA8F2;}
	.st17{fill:#FFC955;}
	.st18{clip-path:url(#SVGID_4_);fill:#96CBFF;}
	.st19{clip-path:url(#SVGID_4_);fill:#95CAFF;}
	.st20{clip-path:url(#SVGID_4_);fill:#94C9FF;}
	.st21{clip-path:url(#SVGID_4_);fill:#93C9FF;}
	.st22{clip-path:url(#SVGID_4_);fill:#92C8FF;}
	.st23{clip-path:url(#SVGID_4_);fill:#91C7FF;}
	.st24{clip-path:url(#SVGID_4_);fill:#90C6FF;}
	.st25{clip-path:url(#SVGID_4_);fill:#8FC6FF;}
	.st26{clip-path:url(#SVGID_4_);fill:#8EC5FF;}
	.st27{clip-path:url(#SVGID_4_);fill:#8DC4FF;}
	.st28{clip-path:url(#SVGID_4_);fill:#8CC3FF;}
	.st29{clip-path:url(#SVGID_4_);fill:#8BC2FF;}
	.st30{clip-path:url(#SVGID_4_);fill:#8AC2FF;}
	.st31{clip-path:url(#SVGID_4_);fill:#89C1FF;}
	.st32{clip-path:url(#SVGID_4_);fill:#88C0FF;}
	.st33{clip-path:url(#SVGID_4_);fill:#87BFFF;}
	.st34{clip-path:url(#SVGID_4_);fill:#86BFFF;}
	.st35{clip-path:url(#SVGID_4_);fill:#85BEFF;}
	.st36{clip-path:url(#SVGID_4_);fill:#84BDFF;}
	.st37{clip-path:url(#SVGID_4_);fill:#83BCFF;}
	.st38{clip-path:url(#SVGID_4_);fill:#82BBFF;}
	.st39{clip-path:url(#SVGID_4_);fill:#81BBFF;}
	.st40{clip-path:url(#SVGID_4_);fill:#80BAFF;}
	.st41{clip-path:url(#SVGID_4_);fill:#7FB9FF;}
	.st42{clip-path:url(#SVGID_4_);fill:#7EB8FF;}
	.st43{clip-path:url(#SVGID_4_);fill:#7DB7FF;}
	.st44{clip-path:url(#SVGID_4_);fill:#7CB7FF;}
	.st45{clip-path:url(#SVGID_4_);fill:#7BB6FF;}
	.st46{clip-path:url(#SVGID_4_);fill:#7AB5FF;}
	.st47{clip-path:url(#SVGID_4_);fill:#79B4FF;}
	.st48{clip-path:url(#SVGID_4_);fill:#78B4FF;}
	.st49{clip-path:url(#SVGID_4_);fill:#77B3FF;}
	.st50{clip-path:url(#SVGID_4_);fill:#76B2FF;}
	.st51{clip-path:url(#SVGID_4_);fill:#74B1FF;}
	.st52{clip-path:url(#SVGID_4_);fill:#73B0FF;}
	.st53{clip-path:url(#SVGID_4_);fill:#72B0FF;}
	.st54{clip-path:url(#SVGID_4_);fill:#71AFFF;}
	.st55{clip-path:url(#SVGID_4_);fill:#70AEFF;}
	.st56{clip-path:url(#SVGID_4_);fill:#6FADFF;}
	.st57{clip-path:url(#SVGID_4_);fill:#6EADFF;}
	.st58{clip-path:url(#SVGID_4_);fill:#6DACFF;}
	.st59{clip-path:url(#SVGID_4_);fill:#6CABFF;}
	.st60{clip-path:url(#SVGID_4_);fill:#6BAAFF;}
	.st61{clip-path:url(#SVGID_4_);fill:#6AA9FF;}
	.st62{clip-path:url(#SVGID_4_);fill:#69A9FF;}
	.st63{clip-path:url(#SVGID_4_);fill:#68A8FF;}
	.st64{clip-path:url(#SVGID_4_);fill:#67A7FF;}
	.st65{clip-path:url(#SVGID_4_);fill:#66A6FF;}
	.st66{clip-path:url(#SVGID_4_);fill:#65A6FF;}
	.st67{clip-path:url(#SVGID_4_);fill:#64A5FF;}
	.st68{clip-path:url(#SVGID_4_);fill:#63A4FF;}
	.st69{clip-path:url(#SVGID_4_);fill:#62A3FF;}
	.st70{clip-path:url(#SVGID_4_);fill:#61A2FF;}
	.st71{clip-path:url(#SVGID_4_);fill:#60A2FF;}
	.st72{clip-path:url(#SVGID_4_);fill:#5FA1FF;}
	.st73{clip-path:url(#SVGID_4_);fill:#5EA0FF;}
	.st74{clip-path:url(#SVGID_4_);fill:#5D9FFF;}
	.st75{clip-path:url(#SVGID_4_);fill:#5C9EFF;}
	.st76{clip-path:url(#SVGID_4_);fill:#5B9EFF;}
	.st77{clip-path:url(#SVGID_4_);fill:#5A9DFF;}
	.st78{clip-path:url(#SVGID_4_);fill:#599CFF;}
	.st79{clip-path:url(#SVGID_4_);fill:#589BFF;}
	.st80{clip-path:url(#SVGID_4_);fill:#579BFF;}
	.st81{clip-path:url(#SVGID_4_);fill:#569AFF;}
	.st82{clip-path:url(#SVGID_4_);fill:#5599FF;}
	.st83{fill:#CFA345;}
	.st84{fill:#6069A8;}
	.st85{fill:#202338;}
	.st86{fill:#464240;}
	.st87{fill:#EB4747;}
	.st88{fill:#5F8CC9;}
	.st89{fill:#5E5853;}
	.st90{fill:#91887F;}
	.st91{fill:#EDDAD3;}
	.st92{fill:#6E6760;}
	.st93{fill:#807066;}
	.st94{fill:#FFCB55;}
	.st95{fill:#CF8C6C;}
	.st96{fill:#3B3F66;}
	.st97{fill:#555C94;}
	.st98{fill:#354C70;}
	.st99{fill:#DEB135;}
	.st100{fill:#F2C344;}
	.st101{fill:#D9D0C4;}
	.st102{fill:#84BDFF;}
	.st103{fill:#FFD255;}
	.st104{fill:#3C5780;}
	.st105{fill:#C48A6F;}
	.st106{clip-path:url(#SVGID_6_);fill:#96CBFF;}
	.st107{clip-path:url(#SVGID_6_);fill:#95CAFF;}
	.st108{clip-path:url(#SVGID_6_);fill:#94C9FF;}
	.st109{clip-path:url(#SVGID_6_);fill:#93C9FF;}
	.st110{clip-path:url(#SVGID_6_);fill:#92C8FF;}
	.st111{clip-path:url(#SVGID_6_);fill:#91C7FF;}
	.st112{clip-path:url(#SVGID_6_);fill:#90C6FF;}
	.st113{clip-path:url(#SVGID_6_);fill:#8FC6FF;}
	.st114{clip-path:url(#SVGID_6_);fill:#8EC5FF;}
	.st115{clip-path:url(#SVGID_6_);fill:#8DC4FF;}
	.st116{clip-path:url(#SVGID_6_);fill:#8CC3FF;}
	.st117{clip-path:url(#SVGID_6_);fill:#8BC2FF;}
	.st118{clip-path:url(#SVGID_6_);fill:#8AC2FF;}
	.st119{clip-path:url(#SVGID_6_);fill:#89C1FF;}
	.st120{clip-path:url(#SVGID_6_);fill:#88C0FF;}
	.st121{clip-path:url(#SVGID_6_);fill:#87BFFF;}
	.st122{clip-path:url(#SVGID_6_);fill:#86BFFF;}
	.st123{clip-path:url(#SVGID_6_);fill:#85BEFF;}
	.st124{clip-path:url(#SVGID_6_);fill:#84BDFF;}
	.st125{clip-path:url(#SVGID_6_);fill:#83BCFF;}
	.st126{clip-path:url(#SVGID_6_);fill:#82BBFF;}
	.st127{clip-path:url(#SVGID_6_);fill:#81BBFF;}
	.st128{clip-path:url(#SVGID_6_);fill:#80BAFF;}
	.st129{clip-path:url(#SVGID_6_);fill:#7FB9FF;}
	.st130{clip-path:url(#SVGID_6_);fill:#7EB8FF;}
	.st131{clip-path:url(#SVGID_6_);fill:#7DB7FF;}
	.st132{clip-path:url(#SVGID_6_);fill:#7CB7FF;}
	.st133{clip-path:url(#SVGID_6_);fill:#7BB6FF;}
	.st134{clip-path:url(#SVGID_6_);fill:#7AB5FF;}
	.st135{clip-path:url(#SVGID_6_);fill:#79B4FF;}
	.st136{clip-path:url(#SVGID_6_);fill:#78B4FF;}
	.st137{clip-path:url(#SVGID_6_);fill:#77B3FF;}
	.st138{clip-path:url(#SVGID_6_);fill:#76B2FF;}
	.st139{clip-path:url(#SVGID_6_);fill:#74B1FF;}
	.st140{clip-path:url(#SVGID_6_);fill:#73B0FF;}
	.st141{clip-path:url(#SVGID_6_);fill:#72B0FF;}
	.st142{clip-path:url(#SVGID_6_);fill:#71AFFF;}
	.st143{clip-path:url(#SVGID_6_);fill:#70AEFF;}
	.st144{clip-path:url(#SVGID_6_);fill:#6FADFF;}
	.st145{clip-path:url(#SVGID_6_);fill:#6EADFF;}
	.st146{clip-path:url(#SVGID_6_);fill:#6DACFF;}
	.st147{clip-path:url(#SVGID_6_);fill:#6CABFF;}
	.st148{clip-path:url(#SVGID_6_);fill:#6BAAFF;}
	.st149{clip-path:url(#SVGID_6_);fill:#6AA9FF;}
	.st150{clip-path:url(#SVGID_6_);fill:#69A9FF;}
	.st151{clip-path:url(#SVGID_6_);fill:#68A8FF;}
	.st152{clip-path:url(#SVGID_6_);fill:#67A7FF;}
	.st153{clip-path:url(#SVGID_6_);fill:#66A6FF;}
	.st154{clip-path:url(#SVGID_6_);fill:#65A6FF;}
	.st155{clip-path:url(#SVGID_6_);fill:#64A5FF;}
	.st156{clip-path:url(#SVGID_6_);fill:#63A4FF;}
	.st157{clip-path:url(#SVGID_6_);fill:#62A3FF;}
	.st158{clip-path:url(#SVGID_6_);fill:#61A2FF;}
	.st159{clip-path:url(#SVGID_6_);fill:#60A2FF;}
	.st160{clip-path:url(#SVGID_6_);fill:#5FA1FF;}
	.st161{clip-path:url(#SVGID_6_);fill:#5EA0FF;}
	.st162{clip-path:url(#SVGID_6_);fill:#5D9FFF;}
	.st163{clip-path:url(#SVGID_6_);fill:#5C9EFF;}
	.st164{clip-path:url(#SVGID_6_);fill:#5B9EFF;}
	.st165{clip-path:url(#SVGID_6_);fill:#5A9DFF;}
	.st166{clip-path:url(#SVGID_6_);fill:#599CFF;}
	.st167{clip-path:url(#SVGID_6_);fill:#589BFF;}
	.st168{clip-path:url(#SVGID_6_);fill:#579BFF;}
	.st169{clip-path:url(#SVGID_6_);fill:#569AFF;}
	.st170{clip-path:url(#SVGID_6_);fill:#5599FF;}
	.st171{fill:#DB9C7C;}
	.st172{clip-path:url(#SVGID_8_);fill:#96CBFF;}
	.st173{clip-path:url(#SVGID_8_);fill:#95CAFF;}
	.st174{clip-path:url(#SVGID_8_);fill:#94C9FF;}
	.st175{clip-path:url(#SVGID_8_);fill:#93C9FF;}
	.st176{clip-path:url(#SVGID_8_);fill:#92C8FF;}
	.st177{clip-path:url(#SVGID_8_);fill:#91C7FF;}
	.st178{clip-path:url(#SVGID_8_);fill:#90C6FF;}
	.st179{clip-path:url(#SVGID_8_);fill:#8FC6FF;}
	.st180{clip-path:url(#SVGID_8_);fill:#8EC5FF;}
	.st181{clip-path:url(#SVGID_8_);fill:#8DC4FF;}
	.st182{clip-path:url(#SVGID_8_);fill:#8CC3FF;}
	.st183{clip-path:url(#SVGID_8_);fill:#8BC2FF;}
	.st184{clip-path:url(#SVGID_8_);fill:#8AC2FF;}
	.st185{clip-path:url(#SVGID_8_);fill:#89C1FF;}
	.st186{clip-path:url(#SVGID_8_);fill:#88C0FF;}
	.st187{clip-path:url(#SVGID_8_);fill:#87BFFF;}
	.st188{clip-path:url(#SVGID_8_);fill:#86BFFF;}
	.st189{clip-path:url(#SVGID_8_);fill:#85BEFF;}
	.st190{clip-path:url(#SVGID_8_);fill:#84BDFF;}
	.st191{clip-path:url(#SVGID_8_);fill:#83BCFF;}
	.st192{clip-path:url(#SVGID_8_);fill:#82BBFF;}
	.st193{clip-path:url(#SVGID_8_);fill:#81BBFF;}
	.st194{clip-path:url(#SVGID_8_);fill:#80BAFF;}
	.st195{clip-path:url(#SVGID_8_);fill:#7FB9FF;}
	.st196{clip-path:url(#SVGID_8_);fill:#7EB8FF;}
	.st197{clip-path:url(#SVGID_8_);fill:#7DB7FF;}
	.st198{clip-path:url(#SVGID_8_);fill:#7CB7FF;}
	.st199{clip-path:url(#SVGID_8_);fill:#7BB6FF;}
	.st200{clip-path:url(#SVGID_8_);fill:#7AB5FF;}
	.st201{clip-path:url(#SVGID_8_);fill:#79B4FF;}
	.st202{clip-path:url(#SVGID_8_);fill:#78B4FF;}
	.st203{clip-path:url(#SVGID_8_);fill:#77B3FF;}
	.st204{clip-path:url(#SVGID_8_);fill:#76B2FF;}
	.st205{clip-path:url(#SVGID_8_);fill:#74B1FF;}
	.st206{clip-path:url(#SVGID_8_);fill:#73B0FF;}
	.st207{clip-path:url(#SVGID_8_);fill:#72B0FF;}
	.st208{clip-path:url(#SVGID_8_);fill:#71AFFF;}
	.st209{clip-path:url(#SVGID_8_);fill:#70AEFF;}
	.st210{clip-path:url(#SVGID_8_);fill:#6FADFF;}
	.st211{clip-path:url(#SVGID_8_);fill:#6EADFF;}
	.st212{clip-path:url(#SVGID_8_);fill:#6DACFF;}
	.st213{clip-path:url(#SVGID_8_);fill:#6CABFF;}
	.st214{clip-path:url(#SVGID_8_);fill:#6BAAFF;}
	.st215{clip-path:url(#SVGID_8_);fill:#6AA9FF;}
	.st216{clip-path:url(#SVGID_8_);fill:#69A9FF;}
	.st217{clip-path:url(#SVGID_8_);fill:#68A8FF;}
	.st218{clip-path:url(#SVGID_8_);fill:#67A7FF;}
	.st219{clip-path:url(#SVGID_8_);fill:#66A6FF;}
	.st220{clip-path:url(#SVGID_8_);fill:#65A6FF;}
	.st221{clip-path:url(#SVGID_8_);fill:#64A5FF;}
	.st222{clip-path:url(#SVGID_8_);fill:#63A4FF;}
	.st223{clip-path:url(#SVGID_8_);fill:#62A3FF;}
	.st224{clip-path:url(#SVGID_8_);fill:#61A2FF;}
	.st225{clip-path:url(#SVGID_8_);fill:#60A2FF;}
	.st226{clip-path:url(#SVGID_8_);fill:#5FA1FF;}
	.st227{clip-path:url(#SVGID_8_);fill:#5EA0FF;}
	.st228{clip-path:url(#SVGID_8_);fill:#5D9FFF;}
	.st229{clip-path:url(#SVGID_8_);fill:#5C9EFF;}
	.st230{clip-path:url(#SVGID_8_);fill:#5B9EFF;}
	.st231{clip-path:url(#SVGID_8_);fill:#5A9DFF;}
	.st232{clip-path:url(#SVGID_8_);fill:#599CFF;}
	.st233{clip-path:url(#SVGID_8_);fill:#589BFF;}
	.st234{clip-path:url(#SVGID_8_);fill:#579BFF;}
	.st235{clip-path:url(#SVGID_8_);fill:#569AFF;}
	.st236{clip-path:url(#SVGID_8_);fill:#5599FF;}
	.st237{fill:#293B57;}
	.st238{fill:#E3F2FF;}
	.st239{fill:#EBEBEB;}
	.st240{fill:#162D40;}
	.st241{fill:#1D3B54;}
	.st242{fill:#D1C0BA;}
	.st243{fill:#FAE6DE;}
	.st244{fill:#54281A;}
	.st245{fill:#366E9C;}
	.st246{fill:#5C544D;}
	.st247{fill:#3C4145;}
	.st248{fill:#FCCCA2;}
	.st249{fill:#E2D2CA;}
	.st250{fill:#63A4FF;}
	.st251{fill:#F25F54;}
	.st252{fill:#C98462;}
	.st253{fill:#DE9D7D;}
	.st254{fill:#252E3B;}
	.st255{fill:#88C0FF;}
	.st256{fill:#5FA0FF;}
	.st257{fill:#5189DB;}
	.st258{fill:#C2BEBC;}
	.st259{fill:#D6D6D6;}
	.st260{fill:#E8E8E8;}
	.st261{fill:#C2C2C2;}
</style>
<g>
	<rect x="-42.7" y="-65" class="st0" width="664.7" height="518.6"/>
	<g>
		<linearGradient id="SVGID_1_" gradientUnits="userSpaceOnUse" x1="396.9183" y1="239.4543" x2="551.311" y2="239.4543">
			<stop  offset="0" style="stop-color:#96CBFF"/>
			<stop  offset="1" style="stop-color:#5599FF"/>
		</linearGradient>
		<path class="st1" d="M531.1,273.7c3.2-5.4,5.6-11.1,7.2-17l12.8-2.4l0.1-14.1l0.1-14.1l-12.7-2.7c-1.5-5.9-3.8-11.7-6.9-17.1
			l7.3-10.7l-9.9-10.1l-9.9-10.1l-10.9,7.1c-5.4-3.2-11.1-5.6-17-7.2l-2.4-12.8l-14.1-0.1l-14.1-0.1L458,175
			c-5.9,1.5-11.7,3.8-17.1,6.9l-10.7-7.3l-10.1,9.9l-10.1,9.9l7.1,10.9c-3.2,5.4-5.6,11.1-7.2,17l-12.8,2.4l-0.1,14.1l-0.1,14.1
			l12.7,2.7c1.5,5.9,3.8,11.7,6.9,17.1l-7.3,10.7l9.9,10.1l9.9,10.1l10.9-7.1c5.4,3.2,11.1,5.6,17,7.2l2.4,12.8l14.1,0.1l14.1,0.1
			l2.7-12.7c5.9-1.5,11.7-3.8,17.1-6.9l10.7,7.3l10.1-9.9l10.1-9.9L531.1,273.7z M449.4,263.7c-13.4-13.6-13.2-35.5,0.5-48.9
			c13.6-13.4,35.5-13.2,48.9,0.5c13.4,13.6,13.2,35.5-0.5,48.9C484.7,277.5,462.8,277.3,449.4,263.7z"/>
		
			<linearGradient id="SVGID_2_" gradientUnits="userSpaceOnUse" x1="-137.8107" y1="810.7146" x2="-22.5267" y2="810.7146" gradientTransform="matrix(0.9948 -0.1022 0.1022 0.9948 147.9792 -676.0029)">
			<stop  offset="0" style="stop-color:#96CBFF"/>
			<stop  offset="1" style="stop-color:#5599FF"/>
		</linearGradient>
		<path class="st2" d="M196,159.8c2-4.2,3.3-8.7,4.1-13.2l9.3-2.8l-1-10.5l-1-10.5l-9.6-1c-1.5-4.3-3.7-8.4-6.4-12.2l4.6-8.5
			l-8.1-6.7l-8.1-6.7l-7.5,6.1c-4.2-2-8.7-3.3-13.2-4.1l-2.8-9.3l-10.5,1l-10.5,1l-1,9.6c-4.3,1.5-8.4,3.7-12.2,6.4l-8.5-4.6
			l-6.7,8.1l-6.7,8.1l6.1,7.5c-2,4.2-3.3,8.7-4.1,13.2l-9.3,2.8l1,10.5l1,10.5l9.6,1c1.5,4.3,3.7,8.4,6.4,12.2l-4.6,8.5l8.1,6.7
			l8.1,6.7l7.5-6.1c4.2,2,8.7,3.3,13.2,4.1l2.8,9.3l10.5-1l10.5-1l1-9.6c4.3-1.5,8.4-3.7,12.2-6.4l8.5,4.6l6.7-8.1l6.7-8.1
			L196,159.8z M134.6,158.6c-11-9.1-12.5-25.4-3.4-36.4c9.1-11,25.4-12.5,36.4-3.4c11,9.1,12.5,25.4,3.4,36.4
			C161.9,166.2,145.6,167.7,134.6,158.6z"/>
		<g>
			<path class="st3" d="M507.3,372h-0.9v-62.9c0-14-11.4-25.4-25.4-25.4h-64.7c-14.5,0-26.3-11.8-26.3-26.3V140
				c0-14-11.4-25.4-25.4-25.4H199.8v-0.9h164.9c14.5,0,26.3,11.8,26.3,26.3v117.5c0,14,11.4,25.4,25.4,25.4h64.7
				c14.5,0,26.3,11.8,26.3,26.3V372z"/>
		</g>
		<g>
			<g>
				<g>
					<g>
						<g>
							<path class="st4" d="M242.1,73.9c0,0,10,39.7-14,50.6c-24,10.9-19.4-9-19.4-9s-9.8-2.7,16.9-17.9
								C238.3,90.4,242.1,73.9,242.1,73.9z"/>
						</g>
					</g>
				</g>
			</g>
			<g>
				<g>
					<g>
						<g>
							<path class="st5" d="M304.9,77.4c0,0,4.9,34.6-40.4,49.6c-45.4,15-51.8,34-51.8,34S211.3,84.2,304.9,77.4z"/>
						</g>
					</g>
				</g>
			</g>
			<g>
				<g>
					<g>
						<g>
							<path class="st6" d="M212.4,146.8c-13.4-5.1,18.5-32.7,43.1-31.9c24.6,0.7,41.2,9.8,57.7,6
								C313.2,120.9,278.6,172.1,212.4,146.8z"/>
						</g>
					</g>
				</g>
			</g>
		</g>
		<g>
			<g>
				<g>
					<path class="st7" d="M257.6,169.8c0.8-10.4,1.3-20.2,1.6-29.3c-2.5-1.3-5.6-2.9-8-4c-7.5-3.6-18-8.4-24.7-11.5
						c-3.9-1.8-7.8-3.1-7.8-3.1s-26.8-2.6-29-2.4c-0.7,0-4,1.2-8.4,2.9c-9.5,3.6-27.8,11-30.8,13.1c-4.3,3.1-19.6,78.2-20,83.3
						c-0.4,5,20.8,11.7,40.5,16.9c0,7.6-0.2,18.3-0.3,28c0,1.7-0.1,3.3-0.1,4.9h86c-0.1-1.7-0.2-3.3-0.3-4.9c0-0.2,0-0.4,0-0.6
						c-0.3-6.6-1.6-18.4-1.3-29.9c0,0-0.2-12.1,1-17.3C256.2,192.7,257.6,169.8,257.6,169.8z M148.5,214c0.1-9.8,13.2-28,13.2-28
						s0.6-0.3,0.6-0.2c0,0,0.7-0.1,0.7-0.1c0,0,2-1.9,2-1.9c0.5,1.7,4.8,26.3,5.8,40.6C158.6,222,148.4,218.7,148.5,214z"/>
				</g>
			</g>
			<g>
				<g>
					<path class="st8" d="M259.2,263.6c-0.6-4.1-1.1-8.1-1.6-12.1c0,0,0,0,0-0.1c-0.2-1.3-0.3-2.6-0.5-3.9c0-0.1,0-0.1,0-0.2
						c-0.6-5.5-1.2-10.8-1.5-15.6c-0.3-3.7,0-7.3,0.5-10.8c1.5-24.7,2.2-50.6,2.2-50.6c0.8-10.6,1.2-20.6,1.5-29.9
						c0,0-33.7-15.9-36.7-16.8c0,0,6.4,15,11.2,48.5c1.8,12.9,5.3,34.6,7.7,56.7v0c1.3,11.9,3.9,24.1,5.8,34.9
						c0.3,1.7,0.6,3.3,0.8,4.9h11.3C259.7,266.8,259.4,265.2,259.2,263.6z"/>
				</g>
			</g>
			<g>
				<g>
					<path class="st8" d="M203.1,224c1.3-12.5,2.5-24.9,1.9-31.7c-4.6-54.8-17.8-69.3-19.7-71.4c-1.5,0.6-7.1,2.7-8.7,3.3
						c-9,3.5-27.3,10-29.8,11.8c-4.3,3.1-21.2,81.8-21.7,86.9c-0.3,3.4,21.7,10.6,44.2,17.1c-0.2,6.2,0.4,14.9-1.7,23.9
						c-0.4,1.6-0.9,2.6-1,4.8l31.3-0.1c0.2-1.6,0.4-3.2,0.6-4.9c0.6-4.9,1.2-9.9,1.8-15.2c9.4,2.4,15.8,4,15.8,4s8.8-14.9,11.4-21
						C228.1,230.3,216.7,227.6,203.1,224z M162.6,205.1c-0.3-11.2-0.2-19-0.2-19c1.1,3.8,2.6,14.8,4,25.7
						C161.8,209.5,162.7,207.4,162.6,205.1z"/>
				</g>
			</g>
			<g>
				<g>
					<path class="st9" d="M188.4,120.3c0,0,3.4-6.4,2.5-24.7c-0.3-5.1,26.6,12,26.6,12s-0.1,1.7-0.2,4.1c0,1,0,2.1,0,3.2
						c0,0.3,0,0.6,0,0.9c0,0.5,0,1,0,1.5c0,0.6,0,1.2,0.1,1.8c0,0.7,0.1,1.3,0.1,1.9c0.1,1.1,0.8,3.1,1,3.6
						C219.7,127.3,198.5,127.5,188.4,120.3z"/>
				</g>
			</g>
			<g>
				<path class="st10" d="M210.9,131.9l5,6.7c0,0-2.9,3.9-8.1,1L210.9,131.9z"/>
			</g>
			<g>
				<path class="st10" d="M214.6,138.9c0,0,18.2,44.3,14.3,100.7l-5.7,10.4l-6.5-8.9c0,0-1-74.8-6.2-102.4L214.6,138.9z"/>
			</g>
			<g>
				<path class="st9" d="M216.2,125.7l-5.3,6.2c0,0-8.5-1.6-11-6.1C197.4,121.4,216.2,125.7,216.2,125.7z"/>
			</g>
			<g>
				<path class="st11" d="M217.5,120.3c0,0-0.6,4.7-6.5,11.6l6.4,8.7l3.5-18L217.5,120.3z"/>
			</g>
			<g>
				<path class="st11" d="M190,114.6c0,0,12.3,13.9,20.9,17.3l-4,9.9l-19.7-21.7L190,114.6z"/>
			</g>
			<g>
				<g>
					<path class="st8" d="M316.6,240.6c0,0-16.3-15.9-27.1-18.5c-5-1.2-11.5-8.1-17.7-16.1c-2-2.6-4-5.4-6-8.2c0,0,0,0,0,0
						c-7.6-11-13.6-21.5-13.6-21.5s-22.5-26.4-4.4-38.1c0,0,7.7-0.2,12,2.1c4.4,2.4,13.7,21.8,15.2,25.2
						c1.6,3.4,18.7,35.4,19.8,36.1c1.1,0.7,3.1,3.3,9.9,7c8.4,4.5,21.5,17.7,21.5,17.7L316.6,240.6z"/>
				</g>
			</g>
			<g>
				<path class="st12" d="M238.1,259c0,0-2.3-0.1-3.3-0.6c0,0-1.7-1.1-3-1.8c-0.4-0.2-0.8-0.4-1-0.5c-1-0.4-3.3-1-5.5-2.6
					c-2.1-1.6-9.2-8.2-9.2-8.2l4.5-7l2.1-6.9c0,0,16.3,1.6,18.5,2.9c0.2,0.1,0.4,0.3,0.6,0.4c1.7,1.3,2.5,3,3.3,3.7
					c0.3,0.3,3.2,3.3,3,4.6c-0.2,1.7-1.1,2.8-2.1,3.3c0,0-0.6,3.3-2.3,4.8c0,0-0.4,3.1-3.1,4.3C240.8,255.5,240,258.6,238.1,259z"/>
			</g>
			<g>
				<path class="st13" d="M212.1,48.3c0,0,29.5-7.1,23.3,30.3c-6.2,37.4-13.3,40.4-31.3,33c-18-7.5-16.7-31.4-17.8-43.1
					C185.3,56.8,202.7,48.9,212.1,48.3z"/>
			</g>
			<g>
				<path class="st13" d="M196.6,74.2c-0.4-3.3-7-4.4-7.4,0.5c-0.5,4.9,3.2,13.5,5.6,12.7C197.3,86.5,197.2,78.8,196.6,74.2z"/>
			</g>
			<g>
				<path class="st14" d="M188.1,87.6c0,0,0.6-11.8,4.9-12.2c4.3-0.4,5,4.3,5,4.3l4.3,0.8c0,0-1.5-10.3,2.7-12.1
					c4.3-1.9,27.8,5.3,31.2,2.2c3.4-3.1,1.5-23.9-4.8-26.7c-6.3-2.8-23.5-8.9-36-0.2c0,0-9.8-1-11.2,7
					C183,58.5,185.3,81.8,188.1,87.6z"/>
			</g>
			<g>
				<path class="st8" d="M228.5,231.4l-12.2,21c0,0-32.3-8.3-39.8-10.4l17.2-20.5C193.7,221.4,219.1,227.2,228.5,231.4z"/>
			</g>
			<g>
				<path class="st15" d="M217.4,119L217.4,119c-15.8-1.6-22-13.8-22-13.8c10,9.9,21.9,9.6,21.9,9.6c0,0.3,0,0.6,0,0.9
					c0,0.5,0,1,0,1.5C217.3,117.9,217.4,118.5,217.4,119z"/>
			</g>
		</g>
		<g>
			<path class="st16" d="M436.1,304.8c-0.9-1.1-2.2-1.9-3.8-1.9c-2.1,0-4,1.3-4.6,3.3l0,0l0,0c-0.2,0.5-0.2,1-0.3,1.5
				c0,0.6,0.1,1.2,0.3,1.7c0.3,0.9,0.9,1.6,1.6,2.2c0.7,0.5,1.6,0.9,2.5,1c0.1,0,0.3,0,0.4,0c0.1,0,0.2,0,0.2,0c0,0,0.1,0,0.1,0
				c0.5,0,0.9-0.1,1.4-0.3c1.8-0.7,3.1-2.4,3.2-4.5C437.1,306.7,436.7,305.7,436.1,304.8z M433.5,311.1L433.5,311.1
				c-0.3,0.1-0.7,0.2-1,0.2l0,0c-0.1,0-0.2,0-0.2,0c-0.3,0-0.7-0.1-1-0.2c-0.4-0.1-0.8-0.3-1.2-0.6c-0.1-0.1-0.2-0.2-0.4-0.3
				c-0.7-0.7-1.1-1.6-1-2.6c0-0.3,0-0.5,0.1-0.8c0-0.1,0.1-0.2,0.1-0.4c0.5-1.4,1.9-2.5,3.5-2.5c1.2,0,2.2,0.6,2.8,1.4
				c0.5,0.6,0.8,1.4,0.7,2.2C435.8,309.3,434.8,310.6,433.5,311.1z"/>
		</g>
		<g>
			<path class="st13" d="M251.4,214.2c18.4,18.9,42.6,42.7,42.6,42.7l9.5-18c0,0-21.5-25.3-36.1-42.1
				C262.9,198.9,254.6,204.2,251.4,214.2z"/>
		</g>
		<g>
			<g>
				<path class="st13" d="M240,239.6c0,0,4.9,2.4,6.2,3.5c1.3,1.1,6.5,5,7.8,5.9c1.3,0.9-1.9,3.5-11.3-0.5
					C233.5,244.4,240,239.6,240,239.6z"/>
			</g>
		</g>
		<g>
			<polygon class="st17" points="240.5,185.5 231.9,265.6 345.2,265.6 353.9,185.5 			"/>
		</g>
		<g>
			<path class="st17" d="M351.7,261.9H237.4l8.7-81h114.3L351.7,261.9z M238.4,261h112.5l8.5-79.2H246.9L238.4,261z"/>
		</g>
		<g>
			
				<rect x="222.8" y="258.4" transform="matrix(-1 -1.224647e-16 1.224647e-16 -1 464.6141 523.931)" class="st17" width="18.9" height="7.2"/>
		</g>
		<g>
			<g>
				<defs>
					<rect id="SVGID_3_" x="40.7" y="265.4" width="308.1" height="4.9"/>
				</defs>
				<clipPath id="SVGID_4_">
					<use xlink:href="#SVGID_3_"  style="overflow:visible;"/>
				</clipPath>
				<path class="st18" d="M40.7,265.4v4.9V265.4z"/>
				<rect x="40.7" y="265.4" class="st18" width="4.7" height="4.9"/>
				<rect x="45.4" y="265.4" class="st19" width="4.7" height="4.9"/>
				<rect x="50.2" y="265.4" class="st20" width="4.7" height="4.9"/>
				<rect x="54.9" y="265.4" class="st21" width="4.7" height="4.9"/>
				<rect x="59.6" y="265.4" class="st22" width="4.7" height="4.9"/>
				<rect x="64.4" y="265.4" class="st23" width="4.7" height="4.9"/>
				<rect x="69.1" y="265.4" class="st24" width="4.7" height="4.9"/>
				<rect x="73.9" y="265.4" class="st25" width="4.7" height="4.9"/>
				<rect x="78.6" y="265.4" class="st26" width="4.7" height="4.9"/>
				<rect x="83.3" y="265.4" class="st27" width="4.7" height="4.9"/>
				<rect x="88.1" y="265.4" class="st28" width="4.7" height="4.9"/>
				<rect x="92.8" y="265.4" class="st29" width="4.7" height="4.9"/>
				<rect x="97.6" y="265.4" class="st30" width="4.7" height="4.9"/>
				<rect x="102.3" y="265.4" class="st31" width="4.7" height="4.9"/>
				<rect x="107" y="265.4" class="st32" width="4.7" height="4.9"/>
				<rect x="111.8" y="265.4" class="st33" width="4.7" height="4.9"/>
				<rect x="116.5" y="265.4" class="st34" width="4.7" height="4.9"/>
				<rect x="121.3" y="265.4" class="st35" width="4.7" height="4.9"/>
				<rect x="126" y="265.4" class="st36" width="4.7" height="4.9"/>
				<rect x="130.7" y="265.4" class="st37" width="4.7" height="4.9"/>
				<rect x="135.5" y="265.4" class="st38" width="4.7" height="4.9"/>
				<rect x="140.2" y="265.4" class="st39" width="4.7" height="4.9"/>
				<rect x="145" y="265.4" class="st40" width="4.7" height="4.9"/>
				<rect x="149.7" y="265.4" class="st41" width="4.7" height="4.9"/>
				<rect x="154.4" y="265.4" class="st42" width="4.7" height="4.9"/>
				<rect x="159.2" y="265.4" class="st43" width="4.7" height="4.9"/>
				<rect x="163.9" y="265.4" class="st44" width="4.7" height="4.9"/>
				<rect x="168.7" y="265.4" class="st45" width="4.7" height="4.9"/>
				<rect x="173.4" y="265.4" class="st46" width="4.7" height="4.9"/>
				<rect x="178.1" y="265.4" class="st47" width="4.7" height="4.9"/>
				<rect x="182.9" y="265.4" class="st48" width="4.7" height="4.9"/>
				<rect x="187.6" y="265.4" class="st49" width="4.7" height="4.9"/>
				<rect x="192.4" y="265.4" class="st50" width="4.7" height="4.9"/>
				<rect x="197.1" y="265.4" class="st51" width="4.7" height="4.9"/>
				<rect x="201.8" y="265.4" class="st52" width="4.7" height="4.9"/>
				<rect x="206.6" y="265.4" class="st53" width="4.7" height="4.9"/>
				<rect x="211.3" y="265.4" class="st54" width="4.7" height="4.9"/>
				<rect x="216.1" y="265.4" class="st55" width="4.7" height="4.9"/>
				<rect x="220.8" y="265.4" class="st56" width="4.7" height="4.9"/>
				<rect x="225.5" y="265.4" class="st57" width="4.7" height="4.9"/>
				<rect x="230.3" y="265.4" class="st58" width="4.7" height="4.9"/>
				<rect x="235" y="265.4" class="st59" width="4.7" height="4.9"/>
				<rect x="239.8" y="265.4" class="st60" width="4.7" height="4.9"/>
				<rect x="244.5" y="265.4" class="st61" width="4.7" height="4.9"/>
				<rect x="249.2" y="265.4" class="st62" width="4.7" height="4.9"/>
				<rect x="254" y="265.4" class="st63" width="4.7" height="4.9"/>
				<rect x="258.7" y="265.4" class="st64" width="4.7" height="4.9"/>
				<rect x="263.5" y="265.4" class="st65" width="4.7" height="4.9"/>
				<rect x="268.2" y="265.4" class="st66" width="4.7" height="4.9"/>
				<rect x="272.9" y="265.4" class="st67" width="4.7" height="4.9"/>
				<rect x="277.7" y="265.4" class="st68" width="4.7" height="4.9"/>
				<rect x="282.4" y="265.4" class="st69" width="4.7" height="4.9"/>
				<rect x="287.2" y="265.4" class="st70" width="4.7" height="4.9"/>
				<rect x="291.9" y="265.4" class="st71" width="4.7" height="4.9"/>
				<rect x="296.6" y="265.4" class="st72" width="4.7" height="4.9"/>
				<rect x="301.4" y="265.4" class="st73" width="4.7" height="4.9"/>
				<rect x="306.1" y="265.4" class="st74" width="4.7" height="4.9"/>
				<rect x="310.9" y="265.4" class="st75" width="4.7" height="4.9"/>
				<rect x="315.6" y="265.4" class="st76" width="4.7" height="4.9"/>
				<rect x="320.4" y="265.4" class="st77" width="4.7" height="4.9"/>
				<rect x="325.1" y="265.4" class="st78" width="4.7" height="4.9"/>
				<rect x="329.8" y="265.4" class="st79" width="4.7" height="4.9"/>
				<rect x="334.6" y="265.4" class="st80" width="4.7" height="4.9"/>
				<rect x="339.3" y="265.4" class="st81" width="4.7" height="4.9"/>
				<rect x="344.1" y="265.4" class="st82" width="4.7" height="4.9"/>
				<path class="st82" d="M348.8,270.3v-4.9V270.3z"/>
			</g>
		</g>
		<g>
			<rect x="270.1" y="369.5" class="st17" width="267" height="4.9"/>
		</g>
		<g>
			<path class="st83" d="M286.6,224.2c-0.9,4.5,1.2,8.6,4.6,9.4c3.5,0.7,7-2.3,7.9-6.8c0.9-4.5-1.2-8.7-4.6-9.4
				C291,216.7,287.5,219.8,286.6,224.2z"/>
		</g>
		<g>
			<g>
				<g>
					<path class="st84" d="M502.8,192.5c0,0,2.6,4.4,3.7,5.2c1.5,1,0.6,2-0.2,2c-0.7,0-4.3,0.3-5.1-0.6c-0.8-0.9-1.2-3.6-1.9-4.3
						c-0.7-0.7-1.5-3.5,0.4-4.2C501.3,189.8,502.8,192.5,502.8,192.5z"/>
				</g>
			</g>
		</g>
		<g>
			<g>
				<g>
					<path class="st85" d="M501.7,190.5c0,0,3,5.2,3.5,6c0.5,0.8-1,0.8-1.9,0.4c-0.9-0.4-3.2-4.1-3.6-4.8c-0.4-0.8-0.1-1.7-0.1-1.7
						L501.7,190.5z"/>
				</g>
			</g>
		</g>
		<g>
			<g>
				<g>
					<polygon class="st84" points="498.6,193.3 499.3,198.7 499.7,198.7 499.6,194.9 					"/>
				</g>
			</g>
		</g>
		<g>
			<g>
				<g>
					<path class="st84" d="M476.9,192.5c0,0,2.6,4.4,3.7,5.2c1.5,1,0.6,2-0.2,2c-0.7,0-4.3,0.3-5.1-0.6c-0.8-0.9-1.2-3.6-1.9-4.3
						c-0.7-0.7-1.5-3.6,0.4-4.2C475.4,189.9,476.9,192.5,476.9,192.5z"/>
				</g>
			</g>
		</g>
		<g>
			<g>
				<g>
					<path class="st85" d="M475.9,190.6c0,0,2.8,5.2,3.4,5.9c0.5,0.8-1,0.8-1.9,0.4c-0.9-0.4-3.2-4.1-3.6-4.8
						c-0.4-0.8-0.1-1.7-0.1-1.7L475.9,190.6z"/>
				</g>
			</g>
		</g>
		<g>
			<g>
				<g>
					<polygon class="st84" points="472.7,193.3 473.4,198.7 473.7,198.7 473.6,194.9 					"/>
				</g>
			</g>
		</g>
		<g>
			<g>
				<g>
					<path class="st85" d="M465.3,152.2l23.7,10.8c0,0,2.6,0.9,2.9,3.8c0.9,9.2,7.8,23.7,7.8,23.7c2.2,1.1,2,0.1,2,0.1
						c-1.4-4.4-3.1-22.8-3.7-30.1c-0.1-1.6-0.2-2.6-0.2-3c0-0.2-0.3-0.5-0.7-0.9c-3.2-2.6-16.6-8.1-16.6-8.1
						C470.4,148.2,465.3,152.2,465.3,152.2z"/>
				</g>
			</g>
		</g>
		<g>
			<g>
				<g>
					<path class="st85" d="M460.8,156.8c0.7,6.4,9.9,5.7,9.9,5.7h11.1c0,0-2.9,6.5-4,11.9c-1.2,5.8-4,16-4,16s0.2,0.3,2.2,0.2
						c0,0,8.7-17.3,12-21.7c0.7-0.9,2.8-6,3.1-9.1c0.1-1,0-1.8-0.3-2.1c-0.4-0.3-1.3-0.9-2.4-1.7c-3.5-2.2-9.5-5.6-12.8-6.3
						c-4.5-1-11.6-2.9-11.6-2.9S460.1,150.4,460.8,156.8z"/>
				</g>
			</g>
		</g>
		<g>
			<path class="st86" d="M468.3,107.5c0,0-1.7-3.1-0.8-6.5c0.8-3.3,3.9-6.7,8.5-5.2c4.6,1.5,8.2,5.1,5.5,9.2
				c-2.7,4.1,2.5,5.9,1.1,7.9c-1.3,1.9-0.8,4-0.3,4.4c0.6,0.5,2.4,2.1,2.2,4c-0.2,1.9-8.8-5.6-8.8-5.6S471,106.3,468.3,107.5z"/>
		</g>
		<g>
			<path class="st87" d="M482.2,147.7c0,0-0.7,3.3-18.4-0.9C463.8,146.8,469.8,144.9,482.2,147.7z"/>
		</g>
		<g>
			<g>
				<path class="st88" d="M463.6,147.8c-0.3,0.5-0.5,1-0.8,1.6c6.5,0.2,12.9,0.4,19.4,0.6c-1-3.4-0.7-8.1-0.5-11.6
					c0.2-4.3,2.6-7.3,2.3-11.6c1.3,0.2,1.5,0.2,2.8,0.4c-2-5.6-2.6-8.3-8.7-10.5c-2-0.7-3.3-0.8-5.4-0.7c-7,0.6-9.2,0.7-12.6,7
					c5.4,0.9,4.5,2.8,6.2,8.2c0.8,2.6,1.6,5.6,1.2,8.3C467,142.3,463.6,145.3,463.6,147.8z"/>
			</g>
		</g>
		<g>
			<g>
				<path class="st13" d="M474.9,118c-2.9-0.5-2.3-2.1-2.3-2.1s0.1-0.9,0.2-2c0-0.3,0-0.6,0-0.9c0-0.5,0-1-0.1-1.4
					c-0.2-1.9,5.2-0.8,5.2-0.8s-0.3,3.9,0.4,5.1C479.2,117,477.8,118.5,474.9,118z"/>
			</g>
		</g>
		<g>
			<g>
				<path class="st13" d="M469.4,115.8c0,0,5.8,6.7,8,8.3c0,0,2.5-2.2,0.9-8.1C478.3,116,475.5,114.6,469.4,115.8z"/>
			</g>
		</g>
		<g>
			<path class="st13" d="M469.5,99.7c0,0-3,5.8,0,11.3c3,5.5,8.9-2.4,9.3-3.3c0.4-0.9,2.4-6.2-1.6-7.8
				C473.1,98.3,470.4,98.1,469.5,99.7z"/>
		</g>
		<g>
			<path class="st86" d="M470.5,101.7c0,0-2.1,2.7-2.3,4.7c0,0-0.8-3.8,1.5-7.5c2.3-3.7,8.3-0.2,9.1,1.3c0.8,1.5,3.1,2.8-0.8,9
				C478,109.3,471,104.4,470.5,101.7z"/>
		</g>
		<g>
			<path class="st15" d="M475.4,111.6c0,0-0.5,1.1-2.6,2.2c0-0.3,0-0.6,0-0.9C472.8,112.9,474.2,112.7,475.4,111.6z"/>
		</g>
		<g>
			<path class="st13" d="M444.8,142.5c0,0-1.4,0.6-2.1,0.3s-1.7-0.3-2.1-0.3c-0.4,0-1.8-0.5-1.8,0c0,0.5,2.3,0.9,2.7,1.1
				c0.5,0.2-1.4,1.2-1.5,1.6c-0.2,0.4,1.9,3.4,3,2.5c1.2-0.8,1.8-2.5,2-2.6c0.2-0.1,0.9-0.6,0.9-0.6L444.8,142.5z"/>
		</g>
		<g>
			<path class="st13" d="M440.2,145c0,0-3.4,2.8-3.4,3.2c-0.1,0.4,0.1,0.6,0.5,0.3c0.3-0.2,3.3-2.6,3.3-2.6s-3.4,4-3.5,4.3
				c-0.1,0.2,0.3,0.5,0.4,0.4c0.2-0.1,3.8-3.9,3.8-3.9s-3.1,3.7-3.2,4c0,0.2,0.4,0.5,0.6,0.2c0.3-0.3,3.4-3.5,3.4-3.5
				s-2.1,2.9-2,3.1c0.1,0.2,0.3,0.5,0.9-0.3c0.5-0.8,1.9-2.4,1.9-2.4L440.2,145z"/>
		</g>
		<g>
			<g>
				<path class="st17" d="M480.6,162.4h-9.9c0,0-9.1,0.7-9.9-5.7c-0.7-6.4,3-9.9,3-9.9s4.8,1.3,9,2.3c2.1-0.4,4.7-0.7,7.6-0.7
					c0,0,17.9,5.9,17.3,9C497.8,157.5,490.3,153.5,480.6,162.4z"/>
			</g>
		</g>
		<g>
			<polygon class="st89" points="474.1,151.4 493,151.1 483.5,155.9 			"/>
		</g>
		<g>
			<path class="st88" d="M480,149c0,0-4.3,1.6-9.5,0.2l-0.2-1.9l10.7,0.6L480,149z"/>
		</g>
		<g>
			<polygon class="st90" points="483.5,155.9 474.1,152.3 474.1,151.4 484.2,155 			"/>
		</g>
		<g>
			<g>
				<path class="st91" d="M479.9,149.9c-0.1,0.7,0.7,1.2,1.3,0.9l1.1-0.5c0.3-0.1,0.5-0.5,0.5-0.8c-0.5-2.9-1.4-14,0-15.9
					c0.5-0.7,0.9-1.3,1-1.9c0.9,2.4,2.1,5.6,2.6,7.3l8.9,11.9l3,0.8c-3.7-9-6.7-13.8-6.7-13.8c-0.6-1.6-2.3-6.3-3.7-10.5
					c-0.9-2.7-1.8-5.1-2.3-6.5c-0.2-0.7-0.7-1.2-1.3-1.6c-1.4-0.8-3.7-2.1-5.8-3.1c0,0,0,0,0,0c-0.1,0-0.1-0.1-0.2-0.1c0,0,0,0,0,0
					c0,0,0,0,0,0C482.3,122,480.7,139,479.9,149.9C479.9,149.8,479.9,149.8,479.9,149.9z"/>
			</g>
			<g>
				<path class="st91" d="M465.2,116.5c-1.3,0.2-4.4,3.3-6.1,6.4c-1.9,3.5-3.9,7.5-5.3,8.9c-2.7,2.4-10.2,11-10.6,10.8
					c-0.1-0.1,2.1,2.6,2.3,2.7c0.1,0.1,12.3-10.5,13.5-12.1c1.1-1.5,4.1-7.9,5-7.8c0,0,0,0,0,0c0,0,0,0,0,0c0.1,0.1,1.1,2.5,2.2,5.9
					c0,0.1,0,0.1,0.1,0.2c0.7,2.4,0.6,5,0.3,7.9c-0.3,2.2-1.9,5.8-2.9,7.6c-0.1,0.2-0.1,0.6,0,0.9c0,0,0,0,0,0
					c0.1,0.2,0.2,0.3,0.3,0.4l3.6,1.3l0.8,0.3c0.6,0.2,1.2,0.1,1.7-0.2c0.4-0.3,0.7-0.7,0.7-1.2c0.8-6.1,1.8-12.4,2.6-14.7
					c3.5-10.4-1.4-18.1-1.4-18.1S466.3,116.1,465.2,116.5z"/>
			</g>
		</g>
		<g>
			<polygon class="st92" points="483.5,155.9 489.1,140.6 507.2,140.9 501.9,155 			"/>
		</g>
		<g>
			<path class="st93" d="M494.9,147.4c-0.6,1.1-0.4,2.3,0.4,2.7c0.8,0.4,1.8-0.2,2.4-1.3c0.6-1.1,0.4-2.3-0.4-2.7
				C496.5,145.7,495.4,146.3,494.9,147.4z"/>
		</g>
		<g>
			<path class="st86" d="M475.8,105.5c0,0,1.2,1.8,0.1,3.4c-1.1,1.6,0.3,3.1,0.5,4.7c0.2,1.6-4.5,6,0.8,8.2c5.2,2.2,6.9-1.4,5.6-3.4
				c-1.3-2-2.3-3.6-2.4-6.5C480.2,109,479.3,104.6,475.8,105.5z"/>
		</g>
		<g>
			<polygon class="st94" points="450.2,98 461.1,98 461.1,105.9 461.1,107.6 459.4,105.9 450.2,105.9 			"/>
		</g>
		<g>
			<g>
				<g>
					<g>
						<g>
							<path class="st4" d="M388.9,219.5c0,0-23.8,22.7-12.2,40.3c11.6,17.6,17,2.2,17,2.2s7.8,2.4-3.8-19.4
								C384.4,232.4,388.9,219.5,388.9,219.5z"/>
						</g>
					</g>
				</g>
			</g>
			<g>
				<g>
					<g>
						<g>
							<path class="st5" d="M344.8,194.9c0,0-18.2,21.4,6.1,51c24.3,29.6,20.6,45.3,20.6,45.3S405.4,239.7,344.8,194.9z"/>
						</g>
					</g>
				</g>
			</g>
			<g>
				<g>
					<g>
						<g>
							<path class="st6" d="M377,282.2c11.3,2.3,2.2-30.6-14.8-40.7c-17-10-32.2-11-41.7-20.7C320.5,220.9,321.3,271,377,282.2z"/>
						</g>
					</g>
				</g>
			</g>
		</g>
		<g>
			<g>
				<g>
					<g>
						<path class="st13" d="M303,296.7c0,0,0.5-1.3,0.6-1.5c0.1-0.2,0.6-0.5,1.2-0.8c0.6-0.3,1.6-0.5,1.7-0.4
							c0.1,0.1,0.2,0.1,0.4,0.3c0.1,0.3,0.1,0.6,0.1,0.6s0.3,0.3,0.2,0.6c0,0,0.3,0.3,0.1,0.7c0,0,0.3,0.3,0.1,0.5
							c0,0-0.5,0.3-0.7,0.5c-0.2,0.2-1.2,0.8-2.4,1.2C304.5,298.4,303.3,298.4,303,296.7z"/>
					</g>
				</g>
			</g>
			<g>
				<g>
					<g>
						<path class="st95" d="M304.9,296c0,0,0,0.7-0.1,0.9c-0.1,0.2,1.4,0.6,1.4,0.6S305.7,296,304.9,296z"/>
					</g>
				</g>
			</g>
			<g>
				<g>
					<g>
						<polygon class="st96" points="276.7,364 277.4,362 280.2,362.4 279.8,364.3 						"/>
					</g>
				</g>
			</g>
			<g>
				<g>
					<g>
						<polygon class="st97" points="299.6,363.8 299.7,364.9 302.8,364.4 302.6,362.7 						"/>
					</g>
				</g>
			</g>
			<g>
				<g>
					<g>
						<g>
							<path class="st98" d="M293,332.2c0,0-0.4,2.4-1,5.2c-0.1,0.5-0.2,1-0.3,1.4c-0.5,2.6-1,5.1-1.2,5.7
								c-0.4,1.2-9.8,18.3-9.8,18.3s-3.8-0.3-4-0.8c0,0,7.8-18.6,7.8-19.2c0-0.7,1-19.7,1-19.7S292.8,331.1,293,332.2z"/>
						</g>
					</g>
				</g>
			</g>
			<g>
				<g>
					<g>
						<g>
							<path class="st98" d="M297.2,321.9c0,0,3.7,18.7,4,20.1c0.3,1.4,1.7,20.6,1.7,20.6s-0.8,1.7-3.9,1.1c0,0-4.1-20.6-4.5-21.3
								c-1.4-2.7-8-15.6-8.6-17.5c-0.6-1.9-0.5-4-0.5-4S290.4,318.1,297.2,321.9z"/>
						</g>
					</g>
				</g>
			</g>
			<g>
				<g>
					<g>
						<g>
							<path class="st99" d="M295.7,297.7c0,0,1.6,4,2,3.9c0.4-0.1,5-5.5,5-5.5s2.1,2.6,1.8,2.9c-0.4,0.4-5.8,9.5-6.6,9.3
								c-0.7-0.2-4.1-5.7-4.1-5.7S293.7,298.4,295.7,297.7z"/>
						</g>
					</g>
				</g>
			</g>
			<g>
				<g>
					<g>
						<g>
							<path class="st100" d="M288.8,290.1c0,0,4.2,3.2,5.3,4.4c1.1,1.3,4.3,6.5,4.1,8.1c-0.9,6-1.3,11.2-1.3,15.3
								c0,3.6,1.1,4.5,0.4,4.5c-0.8,0.1-11.3,3.8-12.8,4.3c0,0,1-12.6,1.5-14.1C286.5,311.2,284.4,295.9,288.8,290.1z"/>
						</g>
					</g>
				</g>
			</g>
			<g>
				<g>
					<g>
						<path class="st101" d="M315.6,284l0.9,4.7l0.9,4.7c0,0-5.3-1.7-11.4-0.5l-0.4-2.1l-0.4-2.1C311.3,287.6,315.6,284,315.6,284z"
							/>
					</g>
				</g>
			</g>
			<g>
				<g>
					<g>
						<path class="st102" d="M299.7,364.9c0,0,2.3-0.4,2.4-0.5c0.1-0.1,0.6-1,0.9-0.8c0.4,0.2,0.4,1.3,0.7,1.5
							c0.3,0.2,3.1,2,3.4,2.4c0.3,0.3,2.4,0.1,2.7,0.7c0.2,0.6,0.3,2-2.8,1.6c-3.1-0.3-6.6,0.2-7.3-0.2
							C299,369.2,299.5,365.8,299.7,364.9z"/>
					</g>
				</g>
			</g>
			<g>
				<g>
					<g>
						<path class="st102" d="M276.7,364c0,0,2.3-0.1,2.4-0.1c0.1-0.1,0.7-0.9,1-0.7c0.3,0.2,0.2,1.3,0.5,1.5c0.3,0.2,2.7,2.5,3,2.9
							c0.3,0.4,2.4,0.5,2.5,1.1c0.1,0.6-0.1,2-3.1,1.2c-3-0.8-6.6-0.9-7.2-1.4C275.3,368.1,276.4,364.8,276.7,364z"/>
					</g>
				</g>
			</g>
			<g>
				<g>
					<g>
						<g>
							<path class="st9" d="M294.9,322.8c0,0,0.3,1.1,0.7,1.4c0.4,0.2-2.1,2.7-2.1,2.7s-1-2.3-1-2.5
								C292.6,324.1,294.9,322.8,294.9,322.8z"/>
						</g>
					</g>
				</g>
			</g>
			<g>
				<g>
					<g>
						<g>
							<path class="st103" d="M287,295c0,0-3,14.2-3.2,15.6c-0.2,1.4,8.7,14.5,8.7,14.5l3-1.8c0,0-7.2-13.2-7.2-13.8
								c0-0.6,3.5-12,3.5-12s1.4-2.5-1.1-3.7C288.1,292.6,287,295,287,295z"/>
						</g>
					</g>
				</g>
			</g>
			<g>
				<g>
					<g>
						<path class="st104" d="M296.6,323.8c0,0,1,4.8,0.9,6.3s-5.6-2.3-5.3-3.8L296.6,323.8z"/>
					</g>
				</g>
			</g>
			<g>
				<g>
					<g>
						<g>
							<g>
								<path class="st13" d="M288.8,290.1c0,0,7.6,8.3,7.1,7.3c-1.7-3.3-2.8-3.8-2.8-4.4c0-0.5,0.2-1.8,0.2-2.3
									c0.1-0.9,0.1-1.6,0.1-1.6s-3.8-5.3-3.6-3.5C290.1,287.5,288.8,290.1,288.8,290.1z"/>
							</g>
						</g>
					</g>
				</g>
			</g>
			<g>
				<g>
					<g>
						<g>
							<g>
								<path class="st13" d="M296.1,280.3c0,0,1,2.4,1.1,3c0,0.6-0.1,1,0,1.7c0.1,0.7,0.7,2.1,0.6,2.5c-0.1,0.5-1.1,0.2-1.2,1
									c-0.1,0.8-0.9,2.3-1.2,2.3c-0.9,0.1-4.5-1.4-4.8-2.1c-0.2-0.8-1.5-4.9-1.9-5.7s6.3-5.2,6.9-3.9
									C296.1,280.3,296.1,280.3,296.1,280.3z"/>
							</g>
						</g>
					</g>
				</g>
			</g>
			<g>
				<g>
					<g>
						<path class="st14" d="M286.9,282.2c-0.5-2.1,1.9-2.3,1.9-2.3s1.6-1.8,5.3-1.6c3.7,0.2,3.1,5.1,3.1,5.1s-2.6-0.4-3.7-0.1
							c0,0-0.1,2.1,0,2.6l-1.4-0.1c0,0,0.2-1.8-0.5-1.9s-0.9,3.9-2.1,4.8c0,0,0-0.3-0.2-0.6l0,0l0,0c-0.2-0.4-0.6-1.2-1-2
							C287.8,284.7,287.2,283.2,286.9,282.2z"/>
					</g>
				</g>
			</g>
			<g>
				<g>
					<g>
						<g>
							<g>
								<path class="st13" d="M292.5,284.2c0,0-0.5-1.4-1.8-0.5c-0.9,0.7,0,3,0.9,3C292.6,286.7,292.9,285.4,292.5,284.2z"/>
							</g>
						</g>
					</g>
				</g>
			</g>
			<g>
				<g>
					<g>
						<path class="st105" d="M290.2,288.1c0,0,0.2,0.7,0.4,0.9c0.2,0.2,1.1,0.9,2.8,1.5l-0.1,1.5
							C293.3,291.9,290.1,290.7,290.2,288.1z"/>
					</g>
				</g>
			</g>
			<g>
				<g>
					<g>
						<g>
							<defs>
								<path id="SVGID_5_" d="M306.9,298.1l0.5-0.3l-2.4-5.1l-1.4,0.6l2.1,4.4C306,298.2,306.4,298.3,306.9,298.1z"/>
							</defs>
							<clipPath id="SVGID_6_">
								<use xlink:href="#SVGID_5_"  style="overflow:visible;"/>
							</clipPath>
							<path class="st106" d="M303.7,292.7v5.6V292.7z"/>
							<rect x="303.7" y="292.7" class="st106" width="0.1" height="5.6"/>
							<rect x="303.7" y="292.7" class="st107" width="0.1" height="5.6"/>
							<rect x="303.8" y="292.7" class="st108" width="0.1" height="5.6"/>
							<rect x="303.9" y="292.7" class="st109" width="0.1" height="5.6"/>
							<rect x="303.9" y="292.7" class="st110" width="0.1" height="5.6"/>
							<rect x="304" y="292.7" class="st111" width="0.1" height="5.6"/>
							<rect x="304" y="292.7" class="st112" width="0.1" height="5.6"/>
							<rect x="304.1" y="292.7" class="st113" width="0.1" height="5.6"/>
							<rect x="304.1" y="292.7" class="st114" width="0.1" height="5.6"/>
							<rect x="304.2" y="292.7" class="st115" width="0.1" height="5.6"/>
							<rect x="304.3" y="292.7" class="st116" width="0.1" height="5.6"/>
							<rect x="304.3" y="292.7" class="st117" width="0.1" height="5.6"/>
							<rect x="304.4" y="292.7" class="st118" width="0.1" height="5.6"/>
							<rect x="304.4" y="292.7" class="st119" width="0.1" height="5.6"/>
							<rect x="304.5" y="292.7" class="st120" width="0.1" height="5.6"/>
							<rect x="304.5" y="292.7" class="st121" width="0.1" height="5.6"/>
							<rect x="304.6" y="292.7" class="st122" width="0.1" height="5.6"/>
							<rect x="304.7" y="292.7" class="st123" width="0.1" height="5.6"/>
							<rect x="304.7" y="292.7" class="st124" width="0.1" height="5.6"/>
							<rect x="304.8" y="292.7" class="st125" width="0.1" height="5.6"/>
							<rect x="304.8" y="292.7" class="st126" width="0.1" height="5.6"/>
							<rect x="304.9" y="292.7" class="st127" width="0.1" height="5.6"/>
							<rect x="305" y="292.7" class="st128" width="0.1" height="5.6"/>
							<rect x="305" y="292.7" class="st129" width="0.1" height="5.6"/>
							<rect x="305.1" y="292.7" class="st130" width="0.1" height="5.6"/>
							<rect x="305.1" y="292.7" class="st131" width="0.1" height="5.6"/>
							<rect x="305.2" y="292.7" class="st132" width="0.1" height="5.6"/>
							<rect x="305.2" y="292.7" class="st133" width="0.1" height="5.6"/>
							<rect x="305.3" y="292.7" class="st134" width="0.1" height="5.6"/>
							<rect x="305.4" y="292.7" class="st135" width="0.1" height="5.6"/>
							<rect x="305.4" y="292.7" class="st136" width="0.1" height="5.6"/>
							<rect x="305.5" y="292.7" class="st137" width="0.1" height="5.6"/>
							<rect x="305.5" y="292.7" class="st138" width="0.1" height="5.6"/>
							<rect x="305.6" y="292.7" class="st139" width="0.1" height="5.6"/>
							<rect x="305.7" y="292.7" class="st140" width="0.1" height="5.6"/>
							<rect x="305.7" y="292.7" class="st141" width="0.1" height="5.6"/>
							<rect x="305.8" y="292.7" class="st142" width="0.1" height="5.6"/>
							<rect x="305.8" y="292.7" class="st143" width="0.1" height="5.6"/>
							<rect x="305.9" y="292.7" class="st144" width="0.1" height="5.6"/>
							<rect x="305.9" y="292.7" class="st145" width="0.1" height="5.6"/>
							<rect x="306" y="292.7" class="st146" width="0.1" height="5.6"/>
							<rect x="306.1" y="292.7" class="st147" width="0.1" height="5.6"/>
							<rect x="306.1" y="292.7" class="st148" width="0.1" height="5.6"/>
							<rect x="306.2" y="292.7" class="st149" width="0.1" height="5.6"/>
							<rect x="306.2" y="292.7" class="st150" width="0.1" height="5.6"/>
							<rect x="306.3" y="292.7" class="st151" width="0.1" height="5.6"/>
							<rect x="306.3" y="292.7" class="st152" width="0.1" height="5.6"/>
							<rect x="306.4" y="292.7" class="st153" width="0.1" height="5.6"/>
							<rect x="306.5" y="292.7" class="st154" width="0.1" height="5.6"/>
							<rect x="306.5" y="292.7" class="st155" width="0.1" height="5.6"/>
							<rect x="306.6" y="292.7" class="st156" width="0.1" height="5.6"/>
							<rect x="306.6" y="292.7" class="st157" width="0.1" height="5.6"/>
							<rect x="306.7" y="292.7" class="st158" width="0.1" height="5.6"/>
							<rect x="306.8" y="292.7" class="st159" width="0.1" height="5.6"/>
							<rect x="306.8" y="292.7" class="st160" width="0.1" height="5.6"/>
							<rect x="306.9" y="292.7" class="st161" width="0.1" height="5.6"/>
							<rect x="306.9" y="292.7" class="st162" width="0.1" height="5.6"/>
							<rect x="307" y="292.7" class="st163" width="0.1" height="5.6"/>
							<rect x="307" y="292.7" class="st164" width="0.1" height="5.6"/>
							<rect x="307.1" y="292.7" class="st165" width="0.1" height="5.6"/>
							<rect x="307.2" y="292.7" class="st166" width="0.1" height="5.6"/>
							<rect x="307.2" y="292.7" class="st167" width="0.1" height="5.6"/>
							<rect x="307.3" y="292.7" class="st168" width="0.1" height="5.6"/>
							<rect x="307.3" y="292.7" class="st169" width="0.1" height="5.6"/>
							<rect x="307.4" y="292.7" class="st170" width="0.1" height="5.6"/>
							<path class="st170" d="M307.5,298.3v-5.6V298.3z"/>
						</g>
					</g>
				</g>
			</g>
			<g>
				<g>
					<g>
						<path class="st171" d="M306.3,294c0,0-1.5,0.8-1.4,1.1c0.1,0.3,0.3,0.3,0.3,0.3l-0.5,0.6c0,0-0.1,0.6,0.6,0.5
							c0,0-0.1,0.5,0.5,0.4c0,0,0.1,0.4,0.4,0.4c0.3,0,1.3-0.6,1.3-0.6s0.1-0.2-0.1-0.5c0,0,0.2-0.4-0.1-0.7c0,0,0.1-0.3-0.2-0.6
							c0,0,0.1-0.7-0.5-0.9C306.5,294,306.4,294,306.3,294z"/>
					</g>
				</g>
			</g>
			<g>
				<g>
					<g>
						<g>
							<defs>
								<polygon id="SVGID_7_" points="301.9,293.8 307.2,292.8 306.4,288.5 301.1,289.7 								"/>
							</defs>
							<clipPath id="SVGID_8_">
								<use xlink:href="#SVGID_7_"  style="overflow:visible;"/>
							</clipPath>
							<path class="st172" d="M301.1,288.5v5.4V288.5z"/>
							<rect x="301.1" y="288.5" class="st172" width="0.1" height="5.4"/>
							<rect x="301.2" y="288.5" class="st173" width="0.1" height="5.4"/>
							<rect x="301.3" y="288.5" class="st174" width="0.1" height="5.4"/>
							<rect x="301.3" y="288.5" class="st175" width="0.1" height="5.4"/>
							<rect x="301.4" y="288.5" class="st176" width="0.1" height="5.4"/>
							<rect x="301.5" y="288.5" class="st177" width="0.1" height="5.4"/>
							<rect x="301.6" y="288.5" class="st178" width="0.1" height="5.4"/>
							<rect x="301.7" y="288.5" class="st179" width="0.1" height="5.4"/>
							<rect x="301.8" y="288.5" class="st180" width="0.1" height="5.4"/>
							<rect x="301.9" y="288.5" class="st181" width="0.1" height="5.4"/>
							<rect x="302" y="288.5" class="st182" width="0.1" height="5.4"/>
							<rect x="302.1" y="288.5" class="st183" width="0.1" height="5.4"/>
							<rect x="302.2" y="288.5" class="st184" width="0.1" height="5.4"/>
							<rect x="302.3" y="288.5" class="st185" width="0.1" height="5.4"/>
							<rect x="302.4" y="288.5" class="st186" width="0.1" height="5.4"/>
							<rect x="302.5" y="288.5" class="st187" width="0.1" height="5.4"/>
							<rect x="302.6" y="288.5" class="st188" width="0.1" height="5.4"/>
							<rect x="302.7" y="288.5" class="st189" width="0.1" height="5.4"/>
							<rect x="302.8" y="288.5" class="st190" width="0.1" height="5.4"/>
							<rect x="302.9" y="288.5" class="st191" width="0.1" height="5.4"/>
							<rect x="303" y="288.5" class="st192" width="0.1" height="5.4"/>
							<rect x="303.1" y="288.5" class="st193" width="0.1" height="5.4"/>
							<rect x="303.1" y="288.5" class="st194" width="0.1" height="5.4"/>
							<rect x="303.2" y="288.5" class="st195" width="0.1" height="5.4"/>
							<rect x="303.3" y="288.5" class="st196" width="0.1" height="5.4"/>
							<rect x="303.4" y="288.5" class="st197" width="0.1" height="5.4"/>
							<rect x="303.5" y="288.5" class="st198" width="0.1" height="5.4"/>
							<rect x="303.6" y="288.5" class="st199" width="0.1" height="5.4"/>
							<rect x="303.7" y="288.5" class="st200" width="0.1" height="5.4"/>
							<rect x="303.8" y="288.5" class="st201" width="0.1" height="5.4"/>
							<rect x="303.9" y="288.5" class="st202" width="0.1" height="5.4"/>
							<rect x="304" y="288.5" class="st203" width="0.1" height="5.4"/>
							<rect x="304.1" y="288.5" class="st204" width="0.1" height="5.4"/>
							<rect x="304.2" y="288.5" class="st205" width="0.1" height="5.4"/>
							<rect x="304.3" y="288.5" class="st206" width="0.1" height="5.4"/>
							<rect x="304.4" y="288.5" class="st207" width="0.1" height="5.4"/>
							<rect x="304.5" y="288.5" class="st208" width="0.1" height="5.4"/>
							<rect x="304.6" y="288.5" class="st209" width="0.1" height="5.4"/>
							<rect x="304.7" y="288.5" class="st210" width="0.1" height="5.4"/>
							<rect x="304.8" y="288.5" class="st211" width="0.1" height="5.4"/>
							<rect x="304.9" y="288.5" class="st212" width="0.1" height="5.4"/>
							<rect x="305" y="288.5" class="st213" width="0.1" height="5.4"/>
							<rect x="305" y="288.5" class="st214" width="0.1" height="5.4"/>
							<rect x="305.1" y="288.5" class="st215" width="0.1" height="5.4"/>
							<rect x="305.2" y="288.5" class="st216" width="0.1" height="5.4"/>
							<rect x="305.3" y="288.5" class="st217" width="0.1" height="5.4"/>
							<rect x="305.4" y="288.5" class="st218" width="0.1" height="5.4"/>
							<rect x="305.5" y="288.5" class="st219" width="0.1" height="5.4"/>
							<rect x="305.6" y="288.5" class="st220" width="0.1" height="5.4"/>
							<rect x="305.7" y="288.5" class="st221" width="0.1" height="5.4"/>
							<rect x="305.8" y="288.5" class="st222" width="0.1" height="5.4"/>
							<rect x="305.9" y="288.5" class="st223" width="0.1" height="5.4"/>
							<rect x="306" y="288.5" class="st224" width="0.1" height="5.4"/>
							<rect x="306.1" y="288.5" class="st225" width="0.1" height="5.4"/>
							<rect x="306.2" y="288.5" class="st226" width="0.1" height="5.4"/>
							<rect x="306.3" y="288.5" class="st227" width="0.1" height="5.4"/>
							<rect x="306.4" y="288.5" class="st228" width="0.1" height="5.4"/>
							<rect x="306.5" y="288.5" class="st229" width="0.1" height="5.4"/>
							<rect x="306.6" y="288.5" class="st230" width="0.1" height="5.4"/>
							<rect x="306.7" y="288.5" class="st231" width="0.1" height="5.4"/>
							<rect x="306.8" y="288.5" class="st232" width="0.1" height="5.4"/>
							<rect x="306.8" y="288.5" class="st233" width="0.1" height="5.4"/>
							<rect x="306.9" y="288.5" class="st234" width="0.1" height="5.4"/>
							<rect x="307" y="288.5" class="st235" width="0.1" height="5.4"/>
							<rect x="307.1" y="288.5" class="st236" width="0.1" height="5.4"/>
							<path class="st236" d="M307.2,293.8v-5.4V293.8z"/>
						</g>
					</g>
				</g>
			</g>
			<g>
				<g>
					<g>
						<path class="st13" d="M303.7,295.2c0,0,1.2,0,1.8,0.2c0.1,0.1,0.3,0.1,0.3,0.3c0,0.2-0.2,0.4-0.7,0.4c-0.5,0-1.2,0.3-1.2,0.3
							S303.4,296.3,303.7,295.2z"/>
					</g>
				</g>
			</g>
			<g>
				<g>
					<g>
						<path class="st237" d="M292,337.4c-0.1,0.5-0.2,1-0.3,1.4l-3-8C289.1,331.6,292,337.4,292,337.4z"/>
					</g>
				</g>
			</g>
		</g>
		<g>
			<path class="st17" d="M125.2,241.8H77.4c-3.5,0-6.4-2.9-6.4-6.4v-75.5c0-3.5,2.9-6.4,6.4-6.4h47.8c3.5,0,6.4,2.9,6.4,6.4v75.5
				C131.6,238.9,128.7,241.8,125.2,241.8z"/>
		</g>
		<g>
			<g>
				<g>
					<g>
						<g>
							<rect x="122" y="210.5" class="st238" width="3.1" height="23.9"/>
						</g>
					</g>
				</g>
			</g>
			<g>
				<g>
					<g>
						<g>
							<rect x="115.8" y="213.2" class="st238" width="3.1" height="21.2"/>
						</g>
					</g>
				</g>
			</g>
			<g>
				<g>
					<g>
						<g>
							<rect x="109.1" y="216.7" class="st238" width="3.1" height="17.7"/>
						</g>
					</g>
				</g>
			</g>
			<g>
				<g>
					<g>
						<g>
							<rect x="102.2" y="221" class="st238" width="3.1" height="13.3"/>
						</g>
					</g>
				</g>
			</g>
			<g>
				<g>
					<g>
						<polygon class="st238" points="83.4,218.2 82.7,218 88.7,201.4 101.5,198 106.1,179.7 116,175.3 118.2,161.2 119,161.3 
							116.7,175.9 106.7,180.2 102.1,198.5 89.2,202 						"/>
					</g>
				</g>
			</g>
			<g>
				<g>
					<path class="st17" d="M103.3,197c0.7,0.8,0.6,2-0.3,2.7c-0.8,0.7-2,0.6-2.7-0.3c-0.7-0.8-0.6-2,0.3-2.7
						C101.4,196.1,102.6,196.2,103.3,197z"/>
				</g>
			</g>
			<g>
				<g>
					<path class="st238" d="M103.2,200c-1,0.8-2.4,0.7-3.2-0.3c-0.8-1-0.7-2.4,0.3-3.2c1-0.8,2.4-0.7,3.2,0.3
						C104.4,197.8,104.2,199.2,103.2,200z M100.8,197c-0.7,0.5-0.8,1.5-0.2,2.2c0.5,0.7,1.5,0.8,2.2,0.2c0.7-0.5,0.8-1.5,0.2-2.2
						C102.5,196.6,101.5,196.5,100.8,197z"/>
				</g>
			</g>
			<g>
				<g>
					<path class="st17" d="M108,178.9c0.7,0.8,0.6,2-0.3,2.7c-0.8,0.7-2,0.6-2.7-0.3c-0.7-0.8-0.6-2,0.3-2.7
						C106.1,177.9,107.3,178,108,178.9z"/>
				</g>
			</g>
			<g>
				<g>
					<path class="st238" d="M107.9,181.9c-1,0.8-2.4,0.7-3.2-0.3c-0.8-1-0.7-2.4,0.3-3.2c1-0.8,2.4-0.7,3.2,0.3
						C109,179.6,108.9,181.1,107.9,181.9z M105.5,178.9c-0.7,0.5-0.8,1.5-0.2,2.2c0.5,0.7,1.5,0.8,2.2,0.2c0.7-0.5,0.8-1.5,0.2-2.2
						C107.1,178.4,106.1,178.3,105.5,178.9z"/>
				</g>
			</g>
			<g>
				<g>
					<path class="st17" d="M117.7,174.4c0.7,0.8,0.6,2-0.3,2.7c-0.8,0.7-2,0.6-2.7-0.3c-0.7-0.8-0.6-2,0.3-2.7
						C115.8,173.4,117,173.5,117.7,174.4z"/>
				</g>
			</g>
			<g>
				<g>
					<path class="st238" d="M117.7,177.4c-1,0.8-2.4,0.7-3.2-0.3c-0.8-1-0.7-2.4,0.3-3.2c1-0.8,2.4-0.7,3.2,0.3
						C118.8,175.1,118.7,176.6,117.7,177.4z M115.2,174.4c-0.7,0.5-0.8,1.5-0.2,2.2c0.5,0.7,1.5,0.8,2.2,0.2
						c0.7-0.5,0.8-1.5,0.2-2.2C116.9,173.9,115.9,173.8,115.2,174.4z"/>
				</g>
			</g>
			<g>
				<g>
					<path class="st17" d="M90.5,200.6c0.7,0.8,0.6,2-0.3,2.7c-0.8,0.7-2,0.6-2.7-0.3s-0.6-2,0.3-2.7
						C88.6,199.7,89.8,199.8,90.5,200.6z"/>
				</g>
			</g>
			<g>
				<g>
					<path class="st238" d="M90.4,203.6c-1,0.8-2.4,0.7-3.2-0.3c-0.8-1-0.7-2.4,0.3-3.2c1-0.8,2.4-0.7,3.2,0.3
						C91.6,201.4,91.4,202.8,90.4,203.6z M88,200.6c-0.7,0.5-0.8,1.5-0.2,2.2c0.5,0.7,1.5,0.8,2.2,0.2c0.7-0.5,0.8-1.5,0.2-2.2
						C89.7,200.2,88.7,200.1,88,200.6z"/>
				</g>
			</g>
			<g>
				<g>
					<g>
						<g>
							<path class="st239" d="M95.3,182.5H78.8c-0.8,0-1.4-0.6-1.4-1.4v-1.2c0-0.8,0.6-1.4,1.4-1.4h16.5c0.8,0,1.4,0.6,1.4,1.4v1.2
								C96.7,181.9,96.1,182.5,95.3,182.5z"/>
						</g>
					</g>
				</g>
			</g>
			<g>
				<g>
					<g>
						<g>
							<path class="st239" d="M95.3,175.5H78.8c-0.8,0-1.4-0.6-1.4-1.4v-1.2c0-0.8,0.6-1.4,1.4-1.4h16.5c0.8,0,1.4,0.6,1.4,1.4v1.2
								C96.7,174.9,96.1,175.5,95.3,175.5z"/>
						</g>
					</g>
				</g>
			</g>
		</g>
		<g>
			<g>
				<path class="st14" d="M63.6,185.7c0,0-0.6,5.5,0.5,6.9c0,0-2.7-0.6-3.3-1.5S63.6,185.7,63.6,185.7z"/>
			</g>
			<g>
				<g>
					<path class="st13" d="M80.4,203.4c0,0,1-0.7,1.1-0.8c0.2-0.1,0.7-0.1,1.2,0c0.6,0.1,1.3,0.4,1.4,0.5c0,0.1,0.1,0.2,0.1,0.4
						c0,0.3-0.2,0.4-0.2,0.4s0.1,0.3-0.1,0.6c0,0,0.1,0.3-0.2,0.5c0,0,0.1,0.3-0.2,0.4c0,0-0.5,0-0.7,0c-0.2,0-1.2-0.1-2.2-0.3
						C80.6,205.2,79.5,205,80.4,203.4z"/>
				</g>
			</g>
			<g>
				<g>
					<path class="st95" d="M82.1,203.8c0,0-0.3,0.5-0.5,0.6c-0.2,0.1,0.8,1.1,0.8,1.1S82.7,204.2,82.1,203.8z"/>
				</g>
			</g>
			<g>
				<g>
					<path class="st13" d="M79.8,203.4c0,0,0.6-0.1,1-0.2c0.4-0.2-0.1,1.9-0.1,1.9s-0.9-0.6-1.5-0.7
						C78.6,204.4,79.8,203.4,79.8,203.4z"/>
				</g>
			</g>
			<g>
				<g>
					<path class="st240" d="M54.3,259.2c0,0,1.9,2.8,2.6,3.4c0,0,1.3,0.7,1.4,1.3c0.1,1.1,0.1,1.7-1.6,1.7c-1.8,0-2.9,0-3.2-1.1
						c-0.3-1.1-0.9-1.9-0.9-1.9l-0.1,2.8h-0.4c0,0-0.2-2.8-0.2-3.2c0-0.4-0.3-1.9,0.6-2.6C53.3,258.9,54.3,259.2,54.3,259.2z"/>
				</g>
			</g>
			<g>
				<g>
					<path class="st240" d="M57.2,262.8c0,0-1,0.3-2.1,0c-1.1-0.3-2.2-3-2.6-3.2l-0.3-1.1h2.2c0,0,0,0.8,0.4,1.5
						C55.2,260.6,57.2,262.8,57.2,262.8z"/>
				</g>
			</g>
			<g>
				<g>
					<path class="st240" d="M66.8,258.2c0,0,0.3,0.7,0.8,1.4c0.4,0.5,1.6,2.7,2.2,2.8c0.5,0.1,2.2,0.4,2.4,1.4
						c0.1,0.9,0.2,1.6-1.4,1.7c-1.7,0.1-2.8,0.2-3.6-1c-0.8-1.2-2.1-2-2.1-2v3.1h-0.6c0,0-0.3-3.2-0.5-3.4c-0.2-0.2-0.6-2.7,0.9-3.9
						C66.5,256.9,66.8,258.2,66.8,258.2z"/>
				</g>
			</g>
			<g>
				<g>
					<path class="st240" d="M69.8,262.4c0,0-1.5,0.4-2.1,0c-0.6-0.4-2.5-3.7-3.2-3.9c0,0,0.6-1.3,2.2-0.3
						C66.8,258.2,69.4,261.8,69.8,262.4z"/>
				</g>
			</g>
			<g>
				<g>
					<path class="st241" d="M53.5,212.4c0,0-2.1,2.7-2.7,6c-0.6,3.2,0.3,14.2,0.3,15.8c0,1.6-1.4,6.6-1.1,9.6
						c0.3,3,1.9,15.6,1.9,15.6l3.6-0.1c0,0-0.7-13.6-0.5-14.9c0.2-1.3,0.8-6.7,0.9-7.2c0.1-0.5,4.2-14.3,4.2-16.7
						S58.6,208.6,53.5,212.4z"/>
				</g>
			</g>
			<g>
				<g>
					<path class="st241" d="M64.1,213.5c0,0,3.5,13.2,3.9,15c0.4,1.8,1.2,4.2,1.2,4.6c0,0.3-0.4,6-0.4,6l-1,19.2h-3.6
						c0,0-1.2-12.2-1.4-14.7c-0.2-2.5,1.3-6.3,1-7.3c-0.4-1-6-13.1-6-13.1S53.4,209.7,64.1,213.5z"/>
				</g>
			</g>
			<g>
				<g>
					<path class="st91" d="M63,193.7c0,0,1.4,0.1,2.4,1.3c1,1.1,2,2.9,2.3,3.5c0.3,0.6,4.1,6.1,4.3,6.3c0.2,0.1,1.9-0.3,3.2-0.4
						c2.2-0.2,5.5-1.3,5.5-1.3l0.5,2.5c0,0-8.1,2.6-9.9,2.1c-2.3-0.6-7.5-7.3-7.5-7.3S59.8,195.8,63,193.7z"/>
				</g>
			</g>
			<g>
				<g>
					<path class="st91" d="M60.6,192.8c0,0,1.8,0.8,2.4,1c0.6,0.1,3,3.3,3.5,4.4c0.4,1.1,0,2.9-0.9,4.9c-0.9,2,0,2.7-0.4,4.7
						c-0.4,2-0.4,7.5-0.3,8.6c0.1,1.1-11.5,3.2-13.8,1.2c0,0,1.6-5.2,3.4-7.1c0.4-0.4,0.4-3.2,0.1-3.9c-0.3-0.7-3.4-5.9-3.4-5.9
						s-0.2-5.3,1.1-6.3c1.2-0.9,4.4-1.2,4.9-1.4C57.7,192.7,59.4,192.6,60.6,192.8z"/>
				</g>
			</g>
			<g>
				<g>
					<path class="st242" d="M61.1,196.8l1.1-1.3l-0.9-3.4C61.3,192.1,61,194,61.1,196.8z"/>
				</g>
			</g>
			<g>
				<g>
					<path class="st13" d="M54.3,193.7c0,0-2.3-0.6-3.6,1.8c-1.3,2.5-1,3.8-1.3,5c-0.3,1.1-1.5,8.6-1.6,8.9
						c-0.1,0.3-1.2,4.1-1.1,5.3c0.1,1.2,1.2,10,1.2,10.3c0,0.3,2.1-0.3,2.1-0.3s-0.1-9,0-9.8c0.1-0.7,0.1-4.7,0.7-5.7
						c0.6-1,1.9-7.2,2.2-7.8C53.3,200.9,56.2,194.6,54.3,193.7z"/>
				</g>
			</g>
			<g>
				<g>
					<path class="st13" d="M61.4,190.7c0,0-0.4,3.3-0.3,4.4c0,0-1.9,1.9-4-2.2c0,0,0.9-1.7,0.2-3.9
						C56.7,186.7,61.4,190.7,61.4,190.7z"/>
				</g>
			</g>
			<g>
				<g>
					<polygon class="st13" points="61.1,195.1 61.1,196.8 59.1,195 					"/>
				</g>
			</g>
			<g>
				<g>
					<polygon class="st242" points="61.1,196.8 60.3,195.7 57.3,192.7 56.1,193.2 					"/>
				</g>
			</g>
			<g>
				<g>
					<polygon class="st243" points="62.2,195.5 63.6,195.9 61.3,192.1 					"/>
				</g>
			</g>
			<g>
				<g>
					<polygon class="st243" points="60.3,195.7 59,197.7 56.1,193.1 57.3,192.5 					"/>
				</g>
			</g>
			<g>
				<path class="st242" d="M66.6,203.8c0,0,0.4-3,0-4.8c0,0-0.3,1.5-0.9,3.7L66.6,203.8z"/>
			</g>
			<g>
				<path class="st242" d="M52.7,203.4c0,0,1.2-4.1,1.3-4.3c0,0-0.1,3.8-0.6,5.6C53.5,204.7,53,203.9,52.7,203.4z"/>
			</g>
			<g>
				<polygon class="st244" points="98.9,182.8 79.4,207.4 80.1,207.9 				"/>
			</g>
			<g>
				<g>
					<path class="st171" d="M84,203.1c0,0-1.5-0.1-1.5,0.1c-0.1,0.2,0.1,0.3,0.1,0.3l-0.6,0.2c0,0-0.3,0.4,0.2,0.6
						c0,0-0.3,0.3,0.2,0.5c0,0-0.1,0.3,0.1,0.4c0.2,0.1,1.2,0.2,1.2,0.2s0.2-0.1,0.2-0.4c0,0,0.3-0.2,0.2-0.5c0,0,0.2-0.2,0.1-0.6
						c0,0,0.5-0.5,0.1-0.9C84.2,203.1,84.1,203.1,84,203.1z"/>
				</g>
			</g>
			<g>
				<g>
					<path class="st13" d="M81.6,202.6c0,0,0.9,0.5,1.2,1c0.1,0.1,0.1,0.2,0.1,0.3c-0.1,0.1-0.3,0.1-0.7-0.1c-0.4-0.2-1-0.3-1-0.3
						S80.8,203.3,81.6,202.6z"/>
				</g>
			</g>
			<g>
				<path class="st13" d="M59.9,179.5c0,0,3.3-0.1,3.9,3.8c0.6,3.9-0.8,7.3-1.3,7.9c-0.6,0.6-3.8,0.1-4.6-1.9
					c-0.8-2-1.9-3.5-1.7-5.3C56.3,182.3,55.9,179.5,59.9,179.5z"/>
			</g>
			<g>
				<path class="st14" d="M64,184.8c0,0,0.9-4.9-3.5-5.7c-4.4-0.9-5.9,2.1-6.3,3.9c-0.4,1.8,0.1,6.8,0.1,6.8s2.9,2.6,4.7,3.2
					c0,0-1.5-5.3-0.9-9.2c0,0,3.6,0.6,5.9,0C63.9,183.8,64,184.6,64,184.8z"/>
			</g>
			<g>
				<path class="st15" d="M61.3,191.4c0,0-1.1,0-2.7-1c0,0,1.1,1.4,2.6,1.9C61.3,192.3,61.4,191.6,61.3,191.4z"/>
			</g>
			<g>
				
					<rect x="42.8" y="217.6" transform="matrix(0.9869 -0.1612 0.1612 0.9869 -35.1905 10.8407)" class="st245" width="12.9" height="9.5"/>
			</g>
			<g>
				<g>
					<g>
						<g>
							<g>
								<g>
									<path class="st13" d="M47.6,227.9c0,0-0.2-0.3-0.2-0.5c0,0,0-0.3,0-0.6c0-0.1,0-0.1,0-0.2c0-0.2-0.2-0.6-0.1-1
										c0-0.5,0.6-2.4,0.6-2.4l1.1,0l1.1-0.1c0,0,1.3,2.4,1.3,2.9c0,0,0,0.1,0,0.1c0,0.4-0.2,0.6-0.2,0.8c0,0.1-0.2,0.7-0.4,0.8
										c-0.3,0.1-0.5,0.1-0.7,0c0,0-0.5,0.2-0.9,0.1c0,0-0.5,0.2-0.9,0C48.3,228,47.8,228.2,47.6,227.9z"/>
								</g>
							</g>
						</g>
					</g>
				</g>
			</g>
			<g>
				<g>
					<path class="st91" d="M54.3,193.7c0,0-2.3-0.6-3.6,1.8c-1.3,2.5-1.3,3.6-1.5,4.8c-0.2,1.1-1.7,8-1.8,8.3
						c-0.1,0.3-0.6,4.6-0.6,6.1c0,1.2,0.2,8.9,0.2,9.2c0,0.3,3.6-0.5,3.6-0.5s-0.4-7.1-0.3-7.9c0.1-0.7,0.2-4.5,0.6-5.6
						c0.4-1.3,2.1-7.8,2.4-8.4C53.6,201,56.2,194.6,54.3,193.7z"/>
				</g>
			</g>
		</g>
		<g>
			<g>
				<g>
					<path class="st246" d="M171.1,260.8l0.2-2.2c0,0-3.1,0-3.4,0.2c0,0,0.3,1.8,0.3,2.1C168.2,261.2,171.1,260.8,171.1,260.8z"/>
				</g>
			</g>
			<g>
				<g>
					<path class="st247" d="M165.8,265.3c3.7,0,5.4,0.2,5.8-0.4c0.4-0.6-0.6-4.4-0.6-4.4s-0.9,0.3-3,0.1c0,0-0.9,1.1-1.8,1.6
						c-0.9,0.5-2.3,0.7-2.8,1.2C163.1,263.8,162.2,265.4,165.8,265.3z"/>
				</g>
			</g>
			<g>
				<g>
					<path class="st246" d="M150.4,260.8l0.2-2.2c0,0-3.1,0-3.4,0.2c0,0,0.3,1.8,0.3,2.1C147.5,261.2,150.4,260.8,150.4,260.8z"/>
				</g>
			</g>
			<g>
				<g>
					<path class="st247" d="M145.2,265.3c3.7-0.1,5.4,0.2,5.8-0.4c0.4-0.6-0.6-4.4-0.6-4.4s-0.8,0.3-3,0.1c0,0-0.9,1.1-1.8,1.6
						c-0.9,0.5-4.1,0.9-4.7,1.4C140.6,264,140,265.5,145.2,265.3z"/>
				</g>
			</g>
			<g>
				<g>
					<path class="st7" d="M166.8,211.4c0,0,1.5,4.6,1.3,8.5c-0.2,3.9,0.8,8.2,1.2,12.3c0.5,4.6,2.3,15.4,2.4,17.9
						c0.1,2.4-0.3,10.3-0.3,10.3l-3.7,0.1c0,0-3.1-18.9-3.9-20.9c-0.8-1.9-4.8-15.7-5-17.3C158.7,220.7,166.8,211.4,166.8,211.4z"/>
				</g>
			</g>
			<g>
				<g>
					<path class="st7" d="M151.2,212.2c0,0-2,10.8-2.3,13.2c-0.3,2.4-0.4,11.6-0.6,13.1c-0.1,1.5-0.9,19.7-1.6,21.9h4.8
						c0,0,3.6-13.2,3.6-19.5s2.8-13.6,4.6-17.7c1.8-4.1,6-4.2,7.1-11.9C166.8,211.4,152.7,209.8,151.2,212.2z"/>
				</g>
			</g>
			<g>
				<g>
					<path class="st13" d="M160.9,175.4c0,0-3.7-1.4-5.5,1.5c-1.7,2.9-1.6,8.6,0.3,9.3c1.9,0.7,4.7,0.3,5.7-1.4
						c1-1.8,1.8-4.4,1.8-6.1C163.2,176.8,161.8,175.9,160.9,175.4z"/>
				</g>
			</g>
			<g>
				<g>
					<path class="st13" d="M156.3,185.9c0,0,0.2,1-0.1,1.5c-0.2,0.5,4.7,0.5,4.7,0.5s0.4-2.6,1.2-4.9
						C162.9,180.8,156.3,185.9,156.3,185.9z"/>
				</g>
			</g>
			<g>
				<g>
					<path class="st248" d="M162.1,183c0,0-0.3,0.6-1.7,0.3c-1.4-0.2-3.1-2.1-3.7-2.3c-0.6-0.2-0.6-0.5-0.6-0.5l-0.4,0.5l-0.6,0
						c0,0,0.6-1.7-0.3-2.3c-0.9-0.7,0.9-5.4,5.4-3.8c0,0,3.2,0.6,3.4,2.6C163.8,179.6,162.9,182,162.1,183z"/>
				</g>
			</g>
			<g>
				<g>
					<path class="st249" d="M155.9,187.3c0,0,0-0.9,0.4-1c0.4-0.1,4.6-0.5,5.1-0.3v1.1C161.5,187.1,160.5,187.7,155.9,187.3z"/>
				</g>
			</g>
			<g>
				<g>
					<path class="st13" d="M156.2,179.8c0.1-0.3,0.9-1.3,1.2-0.3c0.3,1-0.5,2.4-0.9,2.2C156.1,181.7,156,180.6,156.2,179.8z"/>
				</g>
			</g>
			<g>
				<g>
					<path class="st250" d="M155.9,187.3c0,0-2.3,0.8-5,2c0,0-3.1,1.1-3.4,4.5c-0.2,1.8-2.1,11.4-2.5,12.2
						c-0.4,0.8-4.6,13.8-4.8,14.1c-0.1,0.3,3.5,1.8,3.7,1.7c0.2-0.1,4.1-11.9,4.5-12.7c0,0,2.2-7,2.3-8.1c0,0,0.1,3,0.2,3.8
						c0.1,0.8-2,17.1-1.9,17.6c0.1,0.5,9.6,1,13.4,0.6c3.8-0.4,6.9-1.3,6.9-1.3s-3-12.9-2.9-14.3c0.2-3.1,1.2-9,1.2-9l3.1,5.8
						l-4,10.2l0.9,3.1c0,0,7.4-11.2,7.6-12.2c0.2-1-0.4-2.3-0.8-3.2c-0.4-0.8-2.9-7.2-3.5-8.1c-0.6-0.9-1.6-4.5-4.1-5.5
						c-2-0.8-5.5-1.5-5.5-1.5L155.9,187.3z"/>
				</g>
			</g>
			<g>
				<g>
					
						<rect x="134.8" y="211.4" transform="matrix(0.9687 0.2484 -0.2484 0.9687 58.564 -28.8788)" class="st251" width="17.9" height="12.5"/>
				</g>
			</g>
			<g>
				<g>
					<path class="st252" d="M138.8,222.7c0,0-0.5,0.8-0.7,1c-0.2,0.2,0.4,0.4,0.7,0.1C139.1,223.7,138.8,222.7,138.8,222.7z"/>
				</g>
			</g>
			<g>
				<g>
					<path class="st253" d="M142.5,225.5c0,0,0.3-0.3,0.4-0.5c0,0,0.1-0.4,0.2-0.6c0-0.1,0-0.2,0.1-0.2c0.1-0.2,0.3-0.6,0.4-1.1
						c0.1-0.5,0.3-2.7,0.3-2.7l-1.3-0.3l-1.1-0.2c0,0-2.3,2.3-2.5,2.8c0,0,0,0.1,0,0.1c-0.1,0.4,0,0.7,0,0.9c0,0.1,0,0.9,0.2,1
						c0.2,0.2,0.5,0.2,0.7,0.2c0,0,0.5,0.4,0.9,0.3c0,0,0.5,0.4,1,0.2C141.7,225.3,142.2,225.6,142.5,225.5z"/>
				</g>
			</g>
			<g>
				<g>
					<path class="st250" d="M147.7,211.4c0,0-3.1,9.3-3.7,10.3c0,0-2.3-0.5-3.7-1.7l3.4-10.1L147.7,211.4z"/>
				</g>
			</g>
		</g>
		<g>
			<g>
				<path class="st254" d="M426.1,226c0,0,11.5-33.6-10.4-44c-21.9-10.4-40.4,4.6-43.9,12.8c-3.5,8.1-2.6,23,0.4,33.3
					c3,10.3,2.6,26.1-3.9,31.3c-6.5,5.3-14.6,14-14.2,31.8c0.2,11,43.4-28.2,43.4-28.2L426.1,226z"/>
			</g>
			<g>
				<path class="st103" d="M395.4,265.9c0,0-18,4-25.1,8.2c-7.1,4.2-23,23.3-23,31.6c0,8.2,69.3,15.9,69.3,15.9l13.1,47.9
					c0,0,35-8.5,39.2-15.6c4.2-7.1-13.3-57.9-16.3-68.1c-3-10.5-15.6-17.8-30.2-19.8C407.8,263.9,395.4,265.9,395.4,265.9z"/>
			</g>
			<g>
				<path class="st13" d="M421.2,265.8c0,0-0.4,21.8-17.7,22.5c-17.3,0.6-13.7-20.9-13.7-20.9S402.4,262.2,421.2,265.8z"/>
			</g>
			<g>
				<path class="st254" d="M428.5,199.9c0,0,6.1,35.1-11.3,60.5C399.1,286.6,428.5,199.9,428.5,199.9z"/>
			</g>
			<g>
				<path class="st13" d="M417.4,250.3c0,0-1.2,10.4,0.8,16.9c2,6.5-26.5,6.7-26.5,1.3c0-6.1,2.9-11.1,0.2-21.5
					C389.2,236.7,417.4,250.3,417.4,250.3z"/>
			</g>
			<g>
				<path class="st15" d="M395.3,251.7c0,0,9,9.4,20.5,1c0,0-1,6-9.2,6.8C398.3,260.2,395.3,251.7,395.3,251.7z"/>
			</g>
			<g>
				<path class="st13" d="M406.6,187.7c0,0,22.7,6.7,19.5,38.3c-3.2,31.5-18.1,29.9-19.5,30.2c-1.4,0.2-19,1.4-24.6-36.9
					C376.4,181,406.6,187.7,406.6,187.7z"/>
			</g>
			<g>
				<path class="st254" d="M400.7,201.8c0,0,12.4,19.7,25.4,24.2c0,0,7.1-33-22.2-39.9c-29.3-6.9-24.7,33.3-22.5,44
					C381.3,230.1,387.4,214.3,400.7,201.8z"/>
			</g>
			<g>
				<path class="st255" d="M384.2,198.8c0,0,6.5-12.6,17.5-13.2c11-0.6,17.5,9,17.5,9s-4.3-10.7-17.5-10.7
					C388.5,183.9,384.2,198.8,384.2,198.8z"/>
			</g>
		</g>
		<g>
			<polygon class="st256" points="428.9,297.8 436.6,369.5 335.1,369.5 327.4,297.8 			"/>
		</g>
		<g>
			<path class="st256" d="M434.1,367.1H331.8l-7.8-72.6h102.4L434.1,367.1z M332.6,366.2h100.6l-7.6-70.8H325L332.6,366.2z"/>
		</g>
		<g>
			<path class="st257" d="M388.3,332.5c0.9,4.5-1.2,8.7-4.6,9.4c-3.5,0.7-7-2.3-7.9-6.8c-0.9-4.5,1.2-8.7,4.6-9.4
				C383.8,325,387.4,328.1,388.3,332.5z"/>
		</g>
		<g>
			
				<rect x="427" y="362.3" transform="matrix(-1 -1.224647e-16 1.224647e-16 -1 872.9109 731.8294)" class="st256" width="18.9" height="7.2"/>
		</g>
		<g>
			<path class="st3" d="M368.1,154.3c-8.6,0-15.6-7-15.6-15.6c0-8.6,7-15.6,15.6-15.6c8.6,0,15.6,7,15.6,15.6
				C383.7,147.3,376.7,154.3,368.1,154.3z M368.1,124c-8.1,0-14.7,6.6-14.7,14.7c0,8.1,6.6,14.7,14.7,14.7c8.1,0,14.7-6.6,14.7-14.7
				C382.8,130.6,376.2,124,368.1,124z"/>
		</g>
		<g>
			<path class="st258" d="M92.8,313l0-1.3c2.6,0,5.3-0.1,7.9-0.2l0.1,1.3C98.1,312.9,95.5,313,92.8,313z M84.8,312.9
				c-2.6-0.1-5.3-0.2-8-0.4l0.1-1.3c2.7,0.2,5.3,0.3,7.9,0.4L84.8,312.9z M108.7,312.3l-0.1-1.3c2.6-0.2,5.3-0.5,7.9-0.8l0.2,1.3
				C114.1,311.7,111.4,312,108.7,312.3z M68.9,311.9c-2.7-0.3-5.4-0.6-7.9-1l0.2-1.3c2.5,0.4,5.2,0.8,7.8,1L68.9,311.9z
				 M124.6,310.2l-0.2-1.3c2.6-0.4,5.2-0.9,7.8-1.5l0.3,1.3C129.8,309.3,127.2,309.8,124.6,310.2z M53.1,309.3
				c-2.7-0.6-5.3-1.4-7.7-2.2l0.4-1.3c2.4,0.8,4.9,1.6,7.6,2.2L53.1,309.3z M140.2,307l-0.3-1.3c2.4-0.6,5-1.2,7.7-2l0.3,1.3
				C145.2,305.8,142.7,306.5,140.2,307z M38,304.1c-2.5-1.2-4.8-2.5-7-3.9l0.7-1.1c2.1,1.4,4.4,2.7,6.8,3.9L38,304.1z M155.6,303
				l-0.4-1.3c1.1-0.3,2.2-0.6,3.3-0.9c1.5-0.4,2.9-0.8,4.4-1.2l0.4,1.3c-1.4,0.4-2.9,0.8-4.4,1.2C157.8,302.3,156.7,302.7,155.6,303
				z M224.8,301.9c-2.4-1.2-4.9-2.2-7.3-3l0.4-1.2c2.4,0.9,4.9,1.9,7.4,3.1L224.8,301.9z M171,298.7l-0.3-1.3
				c2.9-0.7,5.4-1.3,7.8-1.8l0.3,1.3C176.3,297.4,173.8,298,171,298.7z M210,296.6c-2.6-0.6-5.2-1-7.8-1.3l0.1-1.3
				c2.6,0.3,5.3,0.7,7.9,1.3L210,296.6z M186.5,295.6l-0.2-1.3c2.8-0.4,5.4-0.6,8-0.6l0,1.3C191.8,295.1,189.2,295.3,186.5,295.6z
				 M24.6,295.2c-2-1.8-3.8-3.9-5.4-6l1.1-0.8c1.5,2.1,3.3,4,5.2,5.8L24.6,295.2z M15,282.3c-1.2-2.4-2.1-4.9-2.9-7.5l1.3-0.4
				c0.7,2.6,1.7,5,2.8,7.3L15,282.3z M10.5,266.9c-0.3-2.6-0.5-5.3-0.5-8l1.3,0c0,2.7,0.2,5.3,0.5,7.9L10.5,266.9z M11.7,250.9
				l-1.3-0.1c0.3-2.6,0.7-5.3,1.2-7.9l1.3,0.3C12.3,245.8,11.9,248.4,11.7,250.9z M14.7,235.4l-1.3-0.4c1.3-4.7,2.6-7.5,2.6-7.6
				l1.2,0.5C17.2,228,16,230.9,14.7,235.4z"/>
		</g>
		<g>
			<path class="st258" d="M436.4,74.4c0,0-2.2-2-6.2-4.9l0.8-1.1c4,3,6.3,5,6.3,5L436.4,74.4z M423.7,64.9c-2.2-1.5-4.4-2.9-6.7-4.3
				l0.7-1.1c2.3,1.4,4.6,2.8,6.8,4.3L423.7,64.9z M410.1,56.7c-2.3-1.3-4.7-2.5-7.1-3.6l0.6-1.2c2.4,1.1,4.8,2.4,7.1,3.6L410.1,56.7
				z M395.8,49.8c-2.5-1-4.9-2-7.4-2.9l0.4-1.2c2.5,0.9,5,1.9,7.5,2.9L395.8,49.8z M294.9,48.2l0-1.3c2.6-0.1,5.2-0.3,7.8-0.7
				l0.2,1.3C300.2,47.9,297.5,48.2,294.9,48.2z M286.9,47.8c-2.6-0.3-5.2-0.8-7.9-1.6l0.3-1.3c2.6,0.7,5.2,1.2,7.7,1.5L286.9,47.8z
				 M310.8,45.7l-0.4-1.3c0.9-0.3,1.7-0.5,2.6-0.8c1.7-0.6,3.4-1.1,5-1.6l0.4,1.3c-1.7,0.5-3.3,1-5,1.5
				C312.5,45.1,311.6,45.4,310.8,45.7z M380.8,44.5c-2.5-0.8-5.1-1.4-7.7-2l0.3-1.3c2.6,0.6,5.2,1.3,7.7,2L380.8,44.5z M271.4,43.7
				c-2.3-0.9-4.7-2-7.3-3.2l0.6-1.2c2.6,1.2,4.9,2.3,7.2,3.2L271.4,43.7z M326,41.5l-0.3-1.3c2.6-0.5,5.3-1,7.9-1.3l0.2,1.3
				C331.2,40.5,328.6,40.9,326,41.5z M365.4,41c-2.6-0.4-5.3-0.8-7.8-1l0.1-1.3c2.6,0.3,5.3,0.6,7.9,1L365.4,41z M132.2,39.7
				l-0.7-1.1c2.3-1.5,4.6-2.9,6.8-4.2l0.7,1.1C136.7,36.8,134.4,38.2,132.2,39.7z M341.7,39.5l-0.1-1.3c2.6-0.1,5.3-0.2,8-0.1l0,1.3
				C347,39.4,344.3,39.4,341.7,39.5z M256.9,36.8c-2.2-1.2-4.5-2.5-7-3.9l0.7-1.2c2.5,1.4,4.7,2.6,6.9,3.9L256.9,36.8z M145.8,31.5
				l-0.6-1.2c2.4-1.3,4.8-2.6,7.1-3.7l0.6,1.2C150.5,29,148.1,30.2,145.8,31.5z M243,29.1c-2.6-1.4-4.9-2.6-7-3.7l0.6-1.2
				c2.1,1.1,4.5,2.3,7.1,3.7L243,29.1z M160,24.5l-0.5-1.2c2.5-1.1,5-2.1,7.4-3l0.5,1.2C164.9,22.4,162.4,23.4,160,24.5z
				 M228.8,22.1c-2.5-1.1-5-2-7.4-2.8l0.4-1.3c2.5,0.8,4.9,1.7,7.5,2.8L228.8,22.1z M174.8,19.1l-0.4-1.3c2.6-0.8,5.2-1.4,7.8-1.9
				l0.3,1.3C180,17.7,177.4,18.3,174.8,19.1z M213.8,17.2c-2.6-0.6-5.2-1-7.8-1.3l0.1-1.3c2.6,0.3,5.3,0.7,7.9,1.3L213.8,17.2z
				 M190.3,16l-0.1-1.3c2.7-0.3,5.4-0.4,8-0.4l0,1.3C195.6,15.5,193,15.7,190.3,16z"/>
		</g>
		<g>
			<g>
				<g>
					<g>
						<polygon class="st259" points="271,316.4 237.6,306.7 247.6,303.7 						"/>
					</g>
				</g>
			</g>
			<g>
				<g>
					<g>
						<polygon class="st260" points="271,316.4 258.5,303.9 250.9,305.5 						"/>
					</g>
				</g>
			</g>
			<g>
				<g>
					<g>
						<polygon class="st261" points="245.3,308.9 245.6,312.8 271,316.4 						"/>
					</g>
				</g>
			</g>
		</g>
		<g>
			<g>
				<g>
					<g>
						<polygon class="st259" points="103.1,61.8 132.5,45.3 122.4,44.7 						"/>
					</g>
				</g>
			</g>
			<g>
				<g>
					<g>
						<polygon class="st260" points="103.1,61.8 112.2,47.2 119.7,47 						"/>
					</g>
				</g>
			</g>
			<g>
				<g>
					<g>
						<polygon class="st261" points="125.7,49.1 126.3,52.8 103.1,61.8 						"/>
					</g>
				</g>
			</g>
		</g>
	</g>
</g>
</svg>
