<?xml version="1.0" encoding="utf-8"?>
<!-- Generator: Adobe Illustrator 23.0.2, SVG Export Plug-In . SVG Version: 6.00 Build 0)  -->
<svg version="1.1" xmlns="http://www.w3.org/2000/svg" xmlns:xlink="http://www.w3.org/1999/xlink" x="0px" y="0px"
	 viewBox="0 0 500 458" style="enable-background:new 0 0 500 458;" xml:space="preserve">
<style type="text/css">
	.st0{fill:#E6E6E6;}
	.st1{fill:none;stroke:#7F9C50;stroke-miterlimit:10;}
	.st2{fill:#A3CA66;}
	.st3{fill:#7F9C50;}
	.st4{fill:#9EC8E8;}
	.st5{opacity:0.1;}
	.st6{fill:none;stroke:#D0E5F5;stroke-miterlimit:10;}
	.st7{fill:none;stroke:#FFEC91;stroke-miterlimit:10;}
	.st8{fill:#B4C6D4;}
	.st9{fill:#D0E5F5;}
	.st10{fill:none;stroke:#D0E5F5;stroke-miterlimit:10;stroke-dasharray:5.978,5.978;}
	.st11{fill:#FFEC91;}
	.st12{fill:#D9C24E;}
	.st13{fill:#FFCC83;}
	.st14{opacity:0.2;}
	.st15{fill:#F2B783;}
	.st16{fill:#FFE45C;}
	.st17{fill:#0B2438;}
	.st18{fill:#144164;}
	.st19{opacity:0.36;}
	.st20{fill:none;stroke:#0B2438;stroke-miterlimit:10;}
	.st21{fill:none;stroke:#0B2438;stroke-width:3;stroke-miterlimit:10;}
	.st22{fill:#FFFFFF;}
	.st23{fill:#D9C873;}
	.st24{fill:none;stroke:#FFEC91;stroke-miterlimit:10;stroke-dasharray:5.978,5.978;}
</style>
<g id="BACKGROUND">
</g>
<g id="OBJECTS">
	<g>
		<ellipse transform="matrix(1 -8.498262e-03 8.498262e-03 1 -3.7853 0.6942)" class="st0" cx="79.8" cy="445.8" rx="23" ry="4.5"/>
		<g>
			<g>
				<path class="st1" d="M83.8,433.6c-2.8-13.4-3.6-33.8,9.1-53.9"/>
				<g>
					<path class="st2" d="M91.2,382.4c0,0,11.9-31.7,38.7-38.6C129.9,343.9,125.8,369.1,91.2,382.4z"/>
					<path class="st3" d="M93,380.6c-0.1,0-0.1,0-0.2-0.1c-0.1-0.1-0.1-0.2,0-0.4c0.2-0.3,22.1-27.2,37-36.6c0.1-0.1,0.3,0,0.3,0.1
						c0.1,0.1,0,0.3-0.1,0.3c-14.8,9.4-36.6,36.2-36.8,36.5C93.2,380.6,93.1,380.6,93,380.6z"/>
					<path class="st3" d="M107.5,374.2C107.5,374.2,107.5,374.3,107.5,374.2l-10,0.7l0.5-6.1c0-0.1,0.1-0.2,0.3-0.2
						c0.1,0,0.2,0.1,0.2,0.3l-0.5,5.5l9.4-0.6c0.1,0,0.3,0.1,0.3,0.2C107.7,374.1,107.7,374.2,107.5,374.2z"/>
					<path class="st3" d="M115.2,368.1C115.2,368.1,115.2,368.1,115.2,368.1l-11.3-0.3l-0.4-6.3c0-0.1,0.1-0.3,0.2-0.3
						c0.1,0,0.3,0.1,0.3,0.2l0.4,5.8l10.8,0.3c0.1,0,0.2,0.1,0.2,0.3C115.4,368,115.3,368.1,115.2,368.1z"/>
					<path class="st3" d="M121.2,361.6C121.2,361.6,121.2,361.6,121.2,361.6l-10.8-0.9l1.4-7.6c0-0.1,0.2-0.2,0.3-0.2
						c0.1,0,0.2,0.2,0.2,0.3l-1.3,7.1l10.1,0.8c0.1,0,0.2,0.1,0.2,0.3C121.4,361.5,121.3,361.6,121.2,361.6z"/>
					<path class="st3" d="M126.1,354.1C126.1,354.1,126.1,354.1,126.1,354.1l-9.1,0.2l0.5-5.2c0-0.1,0.1-0.2,0.3-0.2
						c0.1,0,0.2,0.1,0.2,0.3l-0.4,4.7l8.5-0.2c0.1,0,0.3,0.1,0.3,0.2C126.3,354,126.3,354.1,126.1,354.1z"/>
					<path class="st3" d="M128.7,348.4C128.7,348.4,128.7,348.4,128.7,348.4l-5.1,0.1l0.2-2.7c0-0.1,0.1-0.2,0.3-0.2
						c0.1,0,0.2,0.1,0.2,0.3l-0.2,2.2l4.5-0.1c0.1,0,0.3,0.1,0.3,0.2C128.9,348.3,128.8,348.4,128.7,348.4z"/>
				</g>
				<path class="st1" d="M79.1,419c-0.2-5.9-1.1-12.1-3.1-18.6"/>
				<g>
					<path class="st2" d="M76.9,403.6c0,0-3.3-33.7-27.4-47.3C49.4,356.3,46.9,381.8,76.9,403.6z"/>
					<path class="st3" d="M75.5,401.4c0.1,0,0.1,0,0.2,0c0.1-0.1,0.2-0.2,0.1-0.3c-0.1-0.3-14.4-32-26.2-44.9
						c-0.1-0.1-0.3-0.1-0.4,0c-0.1,0.1-0.1,0.3,0,0.4c11.8,12.9,26,44.5,26.2,44.8C75.4,401.3,75.4,401.4,75.5,401.4z"/>
					<path class="st3" d="M63.2,391.5C63.2,391.5,63.2,391.5,63.2,391.5l9.5,3.2l1.1-6c0-0.1-0.1-0.3-0.2-0.3
						c-0.1,0-0.3,0.1-0.3,0.2l-1,5.4l-8.9-3c-0.1,0-0.3,0-0.3,0.2C63,391.3,63,391.4,63.2,391.5z"/>
					<path class="st3" d="M57.3,383.6C57.3,383.6,57.3,383.6,57.3,383.6l11,2.6l2-6c0-0.1,0-0.3-0.2-0.3c-0.1,0-0.3,0-0.3,0.2
						l-1.9,5.5l-10.5-2.5c-0.1,0-0.3,0.1-0.3,0.2C57.2,383.4,57.2,383.5,57.3,383.6z"/>
					<path class="st3" d="M53.2,375.7C53.2,375.7,53.2,375.7,53.2,375.7l10.6,1.9l0.6-7.7c0-0.1-0.1-0.3-0.2-0.3
						c-0.1,0-0.3,0.1-0.3,0.2l-0.6,7.2l-10-1.8c-0.1,0-0.3,0.1-0.3,0.2C53.1,375.6,53.1,375.7,53.2,375.7z"/>
					<path class="st3" d="M50.4,367.2C50.4,367.2,50.4,367.2,50.4,367.2l8.7,2.5l0.9-5.2c0-0.1-0.1-0.3-0.2-0.3
						c-0.1,0-0.3,0.1-0.3,0.2l-0.8,4.6l-8.2-2.4c-0.1,0-0.3,0-0.3,0.2C50.2,367,50.3,367.1,50.4,367.2z"/>
					<path class="st3" d="M49.4,361C49.4,361,49.4,361,49.4,361l4.9,1.5l0.5-2.7c0-0.1-0.1-0.3-0.2-0.3c-0.1,0-0.3,0.1-0.3,0.2
						l-0.4,2.2l-4.3-1.3c-0.1,0-0.3,0-0.3,0.2C49.2,360.8,49.3,361,49.4,361z"/>
				</g>
				<path class="st1" d="M74.7,442.6c2.9-14.8,6.2-37.1,6-60.3"/>
				<g>
					<path class="st2" d="M81.1,385.7c0,0,6.5-33.2-12.6-53.2C68.4,332.5,58.6,356.1,81.1,385.7z"/>
					<path class="st3" d="M80.4,383.1c0.1,0.1,0.1,0.1,0.2,0.1c0.1,0,0.2-0.1,0.2-0.3c0-0.3-4.5-34.8-12.2-50.6
						c-0.1-0.1-0.2-0.2-0.3-0.1c-0.1,0.1-0.2,0.2-0.1,0.3c7.6,15.7,12.1,50.1,12.1,50.4C80.3,383.1,80.4,383.1,80.4,383.1z"/>
					<path class="st3" d="M71.5,370.1C71.5,370.1,71.5,370.1,71.5,370.1l8.1,5.8l2.8-5.4c0.1-0.1,0-0.3-0.1-0.3
						c-0.1-0.1-0.3,0-0.3,0.1l-2.5,4.9l-7.6-5.5c-0.1-0.1-0.3-0.1-0.3,0.1C71.4,369.9,71.4,370,71.5,370.1z"/>
					<path class="st3" d="M68.1,360.8C68.2,360.8,68.2,360.8,68.1,360.8l9.8,5.7l3.7-5.1c0.1-0.1,0-0.3-0.1-0.3
						c-0.1-0.1-0.3-0.1-0.3,0.1l-3.4,4.8l-9.4-5.4c-0.1-0.1-0.3,0-0.3,0.1C68,360.6,68.1,360.7,68.1,360.8z"/>
					<path class="st3" d="M66.5,352.1C66.5,352.2,66.5,352.2,66.5,352.1l9.6,4.9l2.8-7.2c0.1-0.1,0-0.3-0.1-0.3
						c-0.1-0.1-0.3,0-0.3,0.1l-2.6,6.7l-9.1-4.6c-0.1-0.1-0.3,0-0.3,0.1C66.4,351.9,66.4,352.1,66.5,352.1z"/>
					<path class="st3" d="M66.2,343.2C66.3,343.2,66.3,343.2,66.2,343.2l7.6,5l2.4-4.7c0.1-0.1,0-0.3-0.1-0.3
						c-0.1-0.1-0.3,0-0.3,0.1l-2.1,4.2l-7.1-4.6c-0.1-0.1-0.3,0-0.3,0.1C66.1,343,66.2,343.1,66.2,343.2z"/>
					<path class="st3" d="M67.1,337C67.1,337,67.1,337,67.1,337l4.3,2.8l1.2-2.4c0.1-0.1,0-0.3-0.1-0.3c-0.1-0.1-0.3,0-0.3,0.1
						l-1,1.9l-3.8-2.5c-0.1-0.1-0.3,0-0.3,0.1C67,336.7,67,336.9,67.1,337z"/>
				</g>
			</g>
			<polygon class="st4" points="97.6,446 62,446 53.7,404.1 105.8,404.1 			"/>
			<g class="st5">
				<polygon points="55.4,411.9 56.6,417.6 105.4,413.3 				"/>
			</g>
			<rect x="52.7" y="404.1" class="st4" width="54.5" height="9.2"/>
		</g>
	</g>
	<path class="st6" d="M246.4,323.7l-1.8-6.7c4.1-2.3,8-5.2,11.5-8.7c3.3-3.3,6.1-6.9,8.3-10.8l6.9,1.8c1.2,0.3,2.4-0.4,2.8-1.6
		l5.9-22c0.3-1.2-0.4-2.4-1.6-2.8l-6.7-1.8c0.1-9.3-2.2-18.6-7-26.9l5-5c0.9-0.9,0.9-2.3,0-3.2l-16.1-16.1c-0.9-0.9-2.3-0.9-3.2,0
		l-4.9,4.9c-8.3-4.9-17.5-7.3-26.8-7.4l-1.8-6.9c-0.3-1.2-1.6-1.9-2.8-1.6l-22,5.9c-1.2,0.3-1.9,1.6-1.6,2.8l1.8,6.7
		c-4.1,2.3-8,5.2-11.5,8.7c-3.3,3.3-6.1,6.9-8.3,10.8l-6.9-1.8c-1.2-0.3-2.4,0.4-2.8,1.6l-5.9,22c-0.3,1.2,0.4,2.4,1.6,2.8l6.7,1.8
		c-0.1,9.3,2.2,18.6,7,26.9l-5,5c-0.9,0.9-0.9,2.3,0,3.2l16.1,16.1c0.9,0.9,2.3,0.9,3.2,0l4.9-4.9c8.3,4.9,17.5,7.3,26.8,7.4
		l1.8,6.9c0.3,1.2,1.6,1.9,2.8,1.6l22-5.9C246,326.1,246.7,324.9,246.4,323.7z M194.5,294.5c-13.2-13.2-13.2-34.6,0-47.8
		c13.2-13.2,34.6-13.2,47.8,0c13.2,13.2,13.2,34.6,0,47.8C229.2,307.7,207.8,307.7,194.5,294.5z"/>
	<path class="st6" d="M447.1,171.8l-1.6-3.7c2.2-1.7,4.2-3.7,6-6c1.7-2.2,3-4.5,4-6.9l4.1,0.5c0.7,0.1,1.4-0.4,1.5-1.1l1.7-13.2
		c0.1-0.7-0.4-1.4-1.1-1.5l-4-0.5c-0.7-5.4-2.8-10.6-6.2-15.1l2.5-3.3c0.4-0.6,0.3-1.4-0.3-1.9l-10.6-8.1c-0.6-0.4-1.4-0.3-1.9,0.3
		l-2.5,3.2c-5.2-2.2-10.8-2.9-16.2-2.2l-1.6-3.9c-0.3-0.7-1.1-1-1.7-0.7l-12.3,5.1c-0.7,0.3-1,1.1-0.7,1.7l1.6,3.7
		c-2.2,1.7-4.2,3.7-6,6c-1.7,2.2-3,4.5-4,6.9l-4.1-0.5c-0.7-0.1-1.4,0.4-1.5,1.1l-1.7,13.2c-0.1,0.7,0.4,1.4,1.1,1.5l4,0.5
		c0.7,5.4,2.8,10.6,6.2,15.1l-2.5,3.3c-0.4,0.6-0.3,1.4,0.3,1.9l10.6,8.1c0.6,0.4,1.4,0.3,1.9-0.3l2.5-3.2
		c5.2,2.2,10.8,2.9,16.2,2.2l1.6,3.9c0.3,0.7,1.1,1,1.7,0.7l12.3-5.1C447.1,173.3,447.4,172.5,447.1,171.8z M414.8,159
		c-8.7-6.6-10.4-19.1-3.7-27.8c6.6-8.7,19.1-10.4,27.8-3.7c8.7,6.6,10.4,19.1,3.7,27.8C435.9,163.9,423.5,165.6,414.8,159z"/>
	<path class="st6" d="M464.8,78.2l-0.4-1.4c0.9-0.5,1.7-1.1,2.4-1.8c0.7-0.7,1.3-1.4,1.7-2.2l1.4,0.4c0.2,0.1,0.5-0.1,0.6-0.3
		l1.2-4.5c0.1-0.2-0.1-0.5-0.3-0.6l-1.4-0.4c0-1.9-0.5-3.8-1.4-5.6l1-1c0.2-0.2,0.2-0.5,0-0.7l-3.3-3.3c-0.2-0.2-0.5-0.2-0.7,0l-1,1
		c-1.7-1-3.6-1.5-5.5-1.5l-0.4-1.4c-0.1-0.2-0.3-0.4-0.6-0.3l-4.5,1.2c-0.2,0.1-0.4,0.3-0.3,0.6l0.4,1.4c-0.9,0.5-1.7,1.1-2.4,1.8
		c-0.7,0.7-1.3,1.4-1.7,2.2l-1.4-0.4c-0.2-0.1-0.5,0.1-0.6,0.3l-1.2,4.5c-0.1,0.2,0.1,0.5,0.3,0.6l1.4,0.4c0,1.9,0.5,3.8,1.4,5.6
		l-1,1c-0.2,0.2-0.2,0.5,0,0.7l3.3,3.3c0.2,0.2,0.5,0.2,0.7,0l1-1c1.7,1,3.6,1.5,5.5,1.5l0.4,1.4c0.1,0.2,0.3,0.4,0.6,0.3l4.5-1.2
		C464.7,78.7,464.8,78.5,464.8,78.2z M454,72.2c-2.7-2.7-2.7-7.2,0-9.9c2.7-2.7,7.2-2.7,9.9,0c2.7,2.7,2.7,7.2,0,9.9
		C461.2,74.9,456.8,74.9,454,72.2z"/>
	<path class="st7" d="M81.4,308.7l-0.9-3.2c2-1.1,3.8-2.5,5.5-4.2c1.6-1.6,2.9-3.3,4-5.2l3.3,0.9c0.6,0.2,1.2-0.2,1.3-0.8l2.8-10.5
		c0.2-0.6-0.2-1.2-0.8-1.3l-3.2-0.9c0-4.5-1.1-8.9-3.3-12.9l2.4-2.4c0.4-0.4,0.4-1.1,0-1.5l-7.7-7.7c-0.4-0.4-1.1-0.4-1.5,0
		l-2.3,2.3c-4-2.3-8.4-3.5-12.9-3.5l-0.9-3.3c-0.2-0.6-0.7-0.9-1.3-0.8l-10.5,2.8c-0.6,0.2-0.9,0.7-0.8,1.3l0.9,3.2
		c-2,1.1-3.8,2.5-5.5,4.2c-1.6,1.6-2.9,3.3-4,5.2l-3.3-0.9c-0.6-0.2-1.2,0.2-1.3,0.8l-2.8,10.5c-0.2,0.6,0.2,1.2,0.8,1.3l3.2,0.9
		c0,4.5,1.1,8.9,3.3,12.9l-2.4,2.4c-0.4,0.4-0.4,1.1,0,1.5l7.7,7.7c0.4,0.4,1.1,0.4,1.5,0l2.3-2.3c4,2.3,8.4,3.5,12.9,3.5l0.9,3.3
		c0.2,0.6,0.7,0.9,1.3,0.8l10.5-2.8C81.2,309.9,81.6,309.3,81.4,308.7z M56.6,294.8c-6.3-6.3-6.3-16.6,0-22.9s16.6-6.3,22.9,0
		s6.3,16.6,0,22.9S62.9,301.1,56.6,294.8z"/>
	<g>
		<g>
			<polygon class="st8" points="462.3,219.8 436.2,245.6 429.8,249.8 431.2,239.2 			"/>
			<polygon class="st9" points="462.3,219.8 433.4,241.8 442.3,253.7 			"/>
			<polygon class="st9" points="462.3,219.8 425.2,230.8 431.2,239.2 			"/>
		</g>
		<g>
			<g>
				<path class="st6" d="M423.9,251.1c-0.7,0.7-1.4,1.4-2.1,2.1"/>
				<path class="st10" d="M417.5,257.3c-37.6,33.7-88.8,33.5-114.7,8.3c-18.6-18.1-33.7-55.3-16.7-74c9.8-10.8,29-17.5,43.3-9.5
					c16,9,19.4,32.8,13,46.5c-10.6,22.6-56.1,27.3-89.2,14.9c-44.4-16.8-46.1-57.1-88-72.5c-25.8-9.5-52.3-4.2-72.3,3"/>
				<path class="st6" d="M90,175c-0.9,0.4-1.9,0.7-2.8,1.1"/>
			</g>
		</g>
	</g>
	<path class="st9" d="M123.5,260.7l-2.4-9.1c5.6-3.2,10.9-7.1,15.6-11.8c4.5-4.5,8.3-9.4,11.3-14.7l9.3,2.5c1.6,0.4,3.3-0.5,3.8-2.2
		l8-29.8c0.4-1.6-0.5-3.3-2.2-3.8l-9.1-2.4c0.1-12.6-3-25.3-9.5-36.6l6.8-6.8c1.2-1.2,1.2-3.1,0-4.3l-21.9-21.9
		c-1.2-1.2-3.1-1.2-4.3,0l-6.6,6.6c-11.2-6.6-23.8-10-36.4-10l-2.5-9.4c-0.4-1.6-2.1-2.6-3.8-2.2l-29.8,8c-1.6,0.4-2.6,2.1-2.2,3.8
		l2.4,9.1c-5.6,3.2-10.9,7.1-15.6,11.8c-4.5,4.5-8.3,9.4-11.3,14.7l-9.3-2.5c-1.6-0.4-3.3,0.5-3.8,2.2l-8,29.8
		c-0.4,1.6,0.5,3.3,2.2,3.8l9.1,2.4c-0.1,12.6,3,25.3,9.5,36.6l-6.8,6.8c-1.2,1.2-1.2,3.1,0,4.3l21.9,21.9c1.2,1.2,3.1,1.2,4.3,0
		l6.6-6.6c11.2,6.6,23.8,10,36.4,10l2.5,9.4c0.4,1.6,2.1,2.6,3.8,2.2l29.8-8C123,264,123.9,262.3,123.5,260.7z M53.1,221.1
		c-17.9-17.9-17.9-47,0-64.9c17.9-17.9,47-17.9,64.9,0c17.9,17.9,17.9,47,0,64.9C100.1,239,71,239,53.1,221.1z"/>
	<path class="st11" d="M408.1,127.2l-2.3-5.7c3.3-2.5,6.4-5.4,9.1-8.9c2.5-3.3,4.6-6.7,6.1-10.4l6.2,0.9c1.1,0.2,2.1-0.6,2.2-1.7
		l2.8-19.8c0.2-1.1-0.6-2.1-1.7-2.2l-6.1-0.8c-0.9-8.1-4-16-9-22.8l3.9-5c0.7-0.9,0.5-2.1-0.3-2.8l-15.8-12.3
		c-0.9-0.7-2.1-0.5-2.8,0.3l-3.7,4.8c-7.7-3.4-16.1-4.5-24.3-3.5l-2.4-5.8c-0.4-1-1.6-1.5-2.6-1.1L348.8,38c-1,0.4-1.5,1.6-1.1,2.6
		l2.3,5.7c-3.3,2.5-6.4,5.4-9.1,8.9c-2.5,3.3-4.6,6.7-6.1,10.4l-6.2-0.9c-1.1-0.2-2.1,0.6-2.2,1.7l-2.8,19.8
		c-0.2,1.1,0.6,2.1,1.7,2.2l6.1,0.8c0.9,8.1,4,16,9,22.8l-3.9,5c-0.7,0.9-0.5,2.1,0.3,2.8l15.8,12.3c0.9,0.7,2.1,0.5,2.8-0.3
		l3.7-4.8c7.7,3.4,16.1,4.5,24.3,3.5l2.4,5.8c0.4,1,1.6,1.5,2.6,1.1l18.6-7.5C408,129.4,408.5,128.2,408.1,127.2z M359.6,107.4
		c-13-10.1-15.3-28.8-5.2-41.8c10.1-13,28.8-15.3,41.8-5.2s15.3,28.8,5.2,41.8C391.3,115.2,372.6,117.5,359.6,107.4z"/>
	<g>
		<g>
			<path class="st12" d="M173,201c0,0,9-2.6,14.9,15.2c7.5,22.3,20.3,40.1,20.3,40.1l44,6.4l-4.9,14.6c0,0-53.7,0.6-58.9-9.7
				C183.1,257.3,149.2,211.2,173,201z"/>
			<g>
				<path class="st13" d="M262.2,270.6l-11,3.3c-0.9,0.3-1.8-0.2-2-1.1l0,0c-0.3-0.9,0.2-1.8,1.1-2l11-3.3c0.8-0.2,1.6,0.2,1.8,1
					l0.1,0.3C263.5,269.6,263,270.4,262.2,270.6z"/>
				<path class="st13" d="M264.6,273.4l-11,3.3c-0.9,0.3-1.8-0.2-2-1.1l0,0c-0.3-0.9,0.2-1.8,1.1-2l11-3.3c0.8-0.2,1.6,0.2,1.8,1
					l0.1,0.3C265.8,272.4,265.3,273.2,264.6,273.4z"/>
				<path class="st13" d="M266.9,276.2l-11,3.3c-0.9,0.3-1.8-0.2-2-1.1l0,0c-0.3-0.9,0.2-1.8,1.1-2l11-3.3c0.8-0.2,1.6,0.2,1.8,1
					l0.1,0.3C268.1,275.2,267.7,276,266.9,276.2z"/>
				<path class="st13" d="M269.4,279l-9.8,2.9c-0.8,0.2-1.6-0.2-1.8-1l-0.1-0.4c-0.2-0.8,0.2-1.6,1-1.8l9.8-2.9
					c0.7-0.2,1.4,0.2,1.6,0.9l0.2,0.7C270.5,278,270.1,278.8,269.4,279z"/>
				<path class="st13" d="M260.4,281.6l-3.7-12.7l10.1-3.4l6.4,2.5l-0.7,8.4c0,0-2.5,3.1-4.8,3.4L260.4,281.6z"/>
				<g class="st14">
					<polygon points="263,266.9 259.2,268.1 265.9,268.3 					"/>
				</g>
				<path class="st13" d="M275.1,268.4l-7.9-3.8c-1-0.5-2.2-0.8-3.3-0.8l-11.1,0.2L275.1,268.4z"/>
				<path class="st15" d="M258.7,262.8c1.2-0.1,2.4,0.1,3.6,0.7c3.3,1.5,8,3.7,7.6,4.5c-0.9,1.7-3.4,1.4-7.3-0.8l-14.1,4.5l4.4-8.7
					L258.7,262.8z"/>
			</g>
			<polygon class="st16" points="253.8,261.4 247.9,260.2 241.3,278.2 247.3,278.2 			"/>
			<g>
				<path class="st15" d="M267.6,278.7l-0.3-1.4c-0.2-0.8,0.4-1.6,1.4-1.8l0,0c0.9-0.2,1.8,0.2,2,1l0.3,1.4c0.2,0.8-0.4,1.6-1.4,1.8
					h0C268.7,279.9,267.8,279.5,267.6,278.7z"/>
				<path class="st15" d="M264.5,280.4l-0.3-1.4c-0.2-0.8,0.4-1.6,1.4-1.8l0,0c0.9-0.2,1.8,0.2,2,1l0.3,1.4c0.2,0.8-0.4,1.6-1.4,1.8
					l0,0C265.6,281.6,264.7,281.1,264.5,280.4z"/>
				<path class="st15" d="M261.2,281.4l-0.1-0.6c-0.2-0.8,0.3-1.7,1.1-1.9l0.4-0.1c0.8-0.2,1.7,0.3,1.9,1.1l0.1,0.4
					c0.2,0.8-0.3,1.7-1.1,1.9l-0.5,0.1C262.1,282.6,261.4,282.1,261.2,281.4z"/>
			</g>
		</g>
		
			<ellipse transform="matrix(1 -8.500414e-03 8.500414e-03 1 -3.7655 1.6334)" class="st0" cx="190.3" cy="443.8" rx="39.4" ry="5.7"/>
		<g>
			<g>
				<path class="st17" d="M199.7,428.9c0,0,20.8,11.4,27.7,11.5c6.8,0.1,1.8,3-5.7,3.7c-5.9,0.6-17.7-1.1-24.6-2.5
					c-0.5-0.1-2.2-1.8-2.2-1.8c-0.5,1.6-0.5,1.6-0.5,1.6c-0.6,0.1-3.6-0.3-3.6-0.3c-0.3-3.5,1.5-12.4,1.5-12.4L199.7,428.9z"/>
				<g>
					<polygon class="st15" points="199.7,428.9 199.4,423.3 192.1,423.7 192.3,428.9 					"/>
				</g>
			</g>
		</g>
		<path class="st18" d="M200,262.2l-24.6,4.2c0,0,7.5,65.9,15.3,91.5c0,0-5.1,44.1,0.4,68l9.8,0.5c0,0,8.3-56.4,10.6-65.9
			C214,349,210.7,321.4,200,262.2z"/>
		<polygon class="st18" points="202.9,420.8 202.2,427.2 189.9,426.9 189.3,421.2 		"/>
		<g class="st19">
			<g>
				<path d="M189,289.4c0-0.2,0.1-0.3,0.1-0.4L189,289.4z"/>
			</g>
			<g>
				<path d="M190.6,357.9c-3.7-11.9-5.9-32.8-8.7-47.2l7-21.3C188.3,294.5,195,323.5,190.6,357.9z"/>
			</g>
		</g>
		<g>
			<g>
				<g>
					<path class="st17" d="M170.7,431.2c0,0,20.8,11.4,27.7,11.5c6.8,0.1,1.8,3-5.7,3.7c-5.9,0.6-17.7-1.1-24.6-2.5
						c-0.5-0.1-2.2-1.8-2.2-1.8c-0.5,1.6-0.5,1.6-0.5,1.6c-0.6,0.1-3.6-0.3-3.6-0.3c-0.3-3.5,1.5-12.4,1.5-12.4L170.7,431.2z"/>
					<g>
						<polygon class="st15" points="170.7,431.2 170.4,425.6 163,426 163.2,431.1 						"/>
					</g>
				</g>
			</g>
			<path class="st18" d="M188,266.1l-26.1,20.3c0,0-8.6,12.7,4.5,72.2c0,0-11.4,32.8-4.1,69.4l9.7,1.5c0,0,11.7-60.7,14.9-69.9
				C190.8,348.5,193.9,317.6,188,266.1z"/>
			<path class="st20" d="M164.4,285.9c0,0,4.2,59.8,10.9,69.9c0,0-10.5,30.1-8.4,36.7c2.1,6.6-3.3,6-2.8,7.9
				c0.5,1.9,2.6,5.6,1.6,7.3c-1,1.8-1.2,15.5-1.2,15.5"/>
			<polygon class="st18" points="174.4,423.6 173.2,429.9 161,428.6 160.8,422.8 			"/>
		</g>
		<path class="st18" d="M183.1,154.9c0,0,7.9-0.7,12.5-1.8c4.6-1.1,2.9,18.4,2.9,18.4L183.1,154.9z"/>
		<g class="st19">
			<polyline points="203.6,282 205.3,290.8 161.9,286.8 			"/>
		</g>
		<path class="st16" d="M191.7,200.9c0,0,7.5,6,13.3,23.8c4.7,14.3,0.3,23.3,1.1,33.2c1.7,21,0.6,27.7,0.6,27.7l-45,1.2
			c0,0-3.4-32.7-3.4-70.9C158.3,201.9,174.2,197,191.7,200.9z"/>
		<path class="st12" d="M174.7,197.4l2.5-5.8c7.3,3.1,18.1,11.7,18.5,12.1l-0.1,8.1C195.7,212.7,181.2,200.2,174.7,197.4z"/>
		<path class="st15" d="M194.8,163.2c5.9,7.3,4.7,17,2,23.2c-3.5,8-14.4,6.5-20.6,0.4c-5.5-5.4-7.9-14.7-4.8-21.3
			C175.5,157,188.3,155.1,194.8,163.2z"/>
		<path class="st15" d="M187.2,169l-12.6,1l2.4,30c0.4,5.3,13.6,9.6,13.6,9.6c3.1,0.2,1.2-6.6,0.3-11.2L187.2,169z"/>
		<path class="st18" d="M189.9,162c0,0-15.5-1.9-10.7,21.6c2.7,13.4-34.5-19.4,1.3-28.3c19.8-4.9,18.2,15.3,18.2,15.3
			S197.6,160.7,189.9,162z"/>
		<g class="st5">
			<polygon points="190.6,195.2 182.8,190.8 190.2,192.1 			"/>
		</g>
		<g class="st5">
			<path d="M181.3,198.8l10.8,5.3c0,0,0.5,2.6,0.4,3.3C192.4,208,181.3,198.8,181.3,198.8z"/>
		</g>
		<path class="st12" d="M193.8,215.6l0.1-7.8c-6.1-5.8-18.4-12.4-19-12.7l-3.1,5.9C171.9,201.1,188.4,210.4,193.8,215.6z"/>
		<path class="st18" d="M196.3,163.8c0,0-16.5-0.5-14.9,9.8c0.7,4.9-7.3,4-7,0.4C177,148.2,196.3,163.8,196.3,163.8z"/>
		<g>
			<path class="st15" d="M175.9,180.1c1.2,1.4,3,1.6,4,0.4c1-1.1,0.8-3.1-0.4-4.5c-1.2-1.4-3-1.6-4-0.4
				C174.5,176.7,174.7,178.8,175.9,180.1z"/>
		</g>
		<path class="st18" d="M199.3,443.7"/>
		<g>
			<path class="st12" d="M166.1,204.5c0,0,16,0.6,8.6,17.9c-12.4,29.1-17.4,42.8-17.4,42.8l-0.1,49.5l-15.1-3.8
				c0,0-3.1-37.7-1.2-49.3C143.4,247.5,150.9,202.3,166.1,204.5z"/>
		</g>
		<g>
			<path class="st17" d="M165.2,382.9l-56.3-14.1c-2.8-0.7-4.4-3.5-3.7-6.2l9.1-36.3c0.7-2.8,3.5-4.4,6.2-3.7l56.3,14.1
				c2.8,0.7,4.4,3.5,3.7,6.2l-9.1,36.3C170.7,381.9,167.9,383.6,165.2,382.9z"/>
			<path class="st21" d="M156.1,345.3l-21.4-5.4c-2.8-0.7-4.5-3.5-3.8-6.3l3-11.9c0.7-2.8,3.5-4.5,6.3-3.8l21.4,5.4
				c2.8,0.7,4.5,3.5,3.8,6.3l-3,11.9C161.7,344.3,158.9,346,156.1,345.3z"/>
		</g>
		<g>
			<path class="st15" d="M153.2,316.9l0.7,8.5c0.1,0.7,0.8,1.2,1.7,1.1l0,0c0.9-0.1,1.6-0.7,1.5-1.4l-0.7-8.5c-0.1-0.6-0.8-1-1.6-1
				l-0.3,0C153.8,315.8,153.1,316.3,153.2,316.9z"/>
			<path class="st15" d="M149.8,316.1l0.8,9.5c0.1,0.8,0.8,1.3,1.8,1.2l0,0c0.9-0.1,1.6-0.7,1.5-1.5l-0.8-9.5
				c-0.1-0.7-0.8-1.2-1.6-1.1l-0.3,0C150.3,314.9,149.7,315.5,149.8,316.1z"/>
			<path class="st15" d="M146.3,315.1l0.8,10.1c0.1,0.8,0.9,1.4,1.8,1.3l0,0c0.9-0.1,1.6-0.8,1.5-1.6l-0.8-10.1
				c-0.1-0.7-0.8-1.2-1.6-1.2l-0.3,0C146.9,313.7,146.3,314.3,146.3,315.1z"/>
			<path class="st15" d="M142.9,313.9l0.9,10.1c0.1,0.8,0.8,1.4,1.6,1.3l0.4,0c0.8-0.1,1.4-0.8,1.3-1.6l-0.9-10.1
				c-0.1-0.7-0.7-1.2-1.4-1.2l-0.7,0.1C143.4,312.6,142.8,313.2,142.9,313.9z"/>
			<path class="st15" d="M143.7,323.2l13.2-1.1l-0.5-10.6l-4.6-2.3l-7.6,0.9c0,0-2,3.5-1.4,5.7L143.7,323.2z"/>
		</g>
		<polygon class="st16" points="158.3,315.2 158.1,307.5 140.8,306.7 142,314.6 		"/>
	</g>
	<g>
		<g>
			<g>
				<path class="st12" d="M320,206.7c0,0-15.5-3.9-13.3,14.8c3.7,31.5,4.7,45.9,4.7,45.9l-13.8,47.6l15.6,0.5c0,0,13.6-35.3,14.9-47
					C329.8,254.4,335.2,208.9,320,206.7z"/>
				<polygon class="st16" points="296.4,314.4 298.9,307.5 315.6,311.9 312.3,319.2 				"/>
				<g>
					<path class="st13" d="M305.8,322.7l-3,8c-0.2,0.6,0.3,1.4,1.1,1.7l0,0c0.9,0.3,1.7,0.1,2-0.6l3-8c0.2-0.6-0.2-1.3-1-1.6
						l-0.3-0.1C306.8,321.9,306,322.1,305.8,322.7z"/>
					<path class="st13" d="M303.1,320.5l-3.3,8.9c-0.3,0.7,0.2,1.5,1.1,1.9l0,0c0.9,0.3,1.8,0,2-0.7l3.3-8.9c0.2-0.6-0.2-1.4-1-1.7
						l-0.3-0.1C304.1,319.6,303.3,319.9,303.1,320.5z"/>
					<path class="st13" d="M300.4,318.1l-3.5,9.5c-0.3,0.8,0.2,1.6,1,1.9l0,0c0.9,0.3,1.8,0,2.1-0.8l3.5-9.5
						c0.3-0.7-0.2-1.5-0.9-1.7l-0.3-0.1C301.5,317.1,300.6,317.4,300.4,318.1z"/>
					<path class="st13" d="M297.8,315.6l-3.5,9.5c-0.3,0.8,0.1,1.6,0.9,1.9l0.3,0.1c0.8,0.3,1.6-0.1,1.9-0.9l3.5-9.5
						c0.3-0.7-0.1-1.4-0.8-1.7l-0.6-0.2C298.8,314.6,298,314.9,297.8,315.6z"/>
					<path class="st13" d="M294.5,324.4l12.4,4.6l4.1-9.9l-3.2-4l-7.2-2.4c0,0-3.3,2.3-3.7,4.6L294.5,324.4z"/>
				</g>
			</g>
			<g>
				<path class="st0" d="M361,444.2c0,3.1-17.6,5.8-39.4,6c-21.8,0.2-39.4-2.2-39.5-5.4c0-3.1,17.6-5.8,39.4-6
					C343.3,438.6,360.9,441,361,444.2z"/>
				<g>
					<g>
						<path class="st17" d="M340.5,431c0,0-20.2,12.4-27.1,12.8c-6.8,0.4-1.6,3.1,5.8,3.4c7.5,0.3,11.3-1.5,15.8-2.8
							c4.5-1.3,9.9-4,13.9-7.3c0,0,0.1-0.1,0.1-0.1c2.6-2.3,0.1-6.6-1.1-6.5L340.5,431z"/>
						<g>
							<polygon class="st13" points="340.5,431 340.5,425.4 347.9,425.4 347.9,430.6 							"/>
							<path class="st13" d="M340.5,431c0,0-3.9,2.3-12.5,7.1c-8.1,4.5-1.8,3.7,2.7,2.3c9.4-3,17.2-9.8,17.2-9.8L340.5,431z"/>
						</g>
					</g>
					<polygon class="st17" points="350.2,434.1 350.2,440.4 345.2,441 345.2,438.2 					"/>
				</g>
				<g>
					<g>
						<path class="st17" d="M312,431.2c0,0-20.9,11.4-27.7,11.4c-6.8,0.1-1.8,3,5.7,3.7c7.5,0.7,11.4-0.9,15.9-2
							c4.6-1.1,10.1-3.5,14.2-6.5c0,0,0.1-0.1,0.1-0.1c2.7-2.1,0.5-6.6-0.8-6.5L312,431.2z"/>
						<g>
							<polygon class="st13" points="312,431.2 312.3,425.6 319.7,426 319.4,431.2 							"/>
							<path class="st13" d="M312,431.2c0,0-4.1,2.1-12.9,6.4c-8.3,4.1-2,3.6,2.6,2.4c9.6-2.5,17.7-8.9,17.7-8.9L312,431.2z"/>
						</g>
					</g>
					<polygon class="st17" points="321.5,434.8 321.2,441.1 316.2,441.5 316.3,438.7 					"/>
				</g>
				<path class="st18" d="M308.8,263.1l24.7,3.8c0,0-6.4,66-13.7,91.7c0,0,5.9,44,0.8,68l-9.8,0.6c0,0-6.7-56.5-9.1-66
					C298.8,349.8,299.1,322.5,308.8,263.1z"/>
				<polygon class="st18" points="308.5,421.7 309.4,428.1 321.6,427.6 322.2,421.9 				"/>
				<g class="st19">
					<g>
						<path d="M320.2,290.1c0-0.2-0.1-0.3-0.1-0.4L320.2,290.1z"/>
					</g>
					<g>
						<path d="M319.7,358.6c3.5-11.9,9-37.9,11.5-52.3h-13C318.1,311.6,314.8,324.3,319.7,358.6z"/>
					</g>
				</g>
				<g>
					<path class="st18" d="M324.9,269.9l22.3,16.7c0,0,11.2,7.8-6.2,73.1c0,0,14.8,31.8,8.2,68.5l-9.6,1.6c0,0-12.7-60.5-16.1-69.7
						C319.4,349.2,314,313.1,324.9,269.9z"/>
					<path class="st20" d="M344.8,286.2c0,0-3.2,59.8-9.7,70c0,0,11,29.9,9,36.5c-2,6.6,3.4,5.9,2.9,7.8c-0.5,1.9-2.5,5.6-1.4,7.4
						c1.1,1.7,1.5,15.4,1.5,15.4"/>
					<polygon class="st18" points="337,424 338.4,430.3 350.5,428.8 350.6,423 					"/>
				</g>
				<g class="st19">
					<polyline points="305.5,283 304.5,291.8 347.2,287 					"/>
				</g>
			</g>
			<path class="st16" d="M317.2,201.6c0,0-8,7.9-13.5,25.7c-4.4,14.4,3.4,20.5,2.8,30.4c-1.4,21-2.8,28.9-2.8,28.9l45,0.4l-5.2-21.2
				c7.6-19,9.5-34.6,9.2-51.2C352.4,200.7,334.6,197.5,317.2,201.6z"/>
			<path class="st12" d="M334.1,197.9l-2.6-5.8c-7.3,3.3-17.9,12-18.3,12.4l0.2,8.1C313.4,213.5,327.7,200.8,334.1,197.9z"/>
			<path class="st13" d="M313.5,164.1c-5.7,7.4-4.4,17.1-1.6,23.3c3.6,7.9,14.5,6.2,20.6,0.1c5.4-5.5,7.6-14.9,4.4-21.4
				C332.7,157.5,319.8,155.9,313.5,164.1z"/>
			<path class="st13" d="M321.1,169.7l12.6,0.8l-1.9,30.1c-0.3,5.3-13.5,9.8-13.5,9.8c-3.1,0.3-1.3-6.5-0.5-11.2L321.1,169.7z"/>
			<g class="st5">
				<polygon points="318.2,196 325.9,191.4 318.5,192.9 				"/>
			</g>
			<g class="st5">
				<path d="M327.5,199.4l-10.7,5.5c0,0-0.4,2.6-0.3,3.3C316.6,208.8,327.5,199.4,327.5,199.4z"/>
			</g>
			<path class="st12" d="M315.3,216.4l-0.2-7.8c6-5.9,18.2-12.7,18.8-13l3.2,5.8C337,201.5,320.6,211.2,315.3,216.4z"/>
			<g>
				<path class="st12" d="M346.4,203.4c0,0-8.6-2.8-14.7,14.8c-7.6,22.1-20.4,39.6-20.4,39.6l-42.8,5.3l5.3,14.7
					c0,0,47.7-0.4,52.9-10.6C332,256.9,369,214.2,346.4,203.4z"/>
				<polygon class="st16" points="268.1,262.4 274.3,261.4 280.3,279.6 273.6,279.3 				"/>
			</g>
			<path class="st18" d="M313.7,444.6"/>
		</g>
		<g>
			<path class="st18" d="M321.4,164.1c0,0-0.2,20,17.5,18.7c12.3-0.9,2.1-31.3-14.2-26.6c-22.9,6.6-15,17.5-15,17.5
				S312.7,164.7,321.4,164.1z"/>
			<path class="st22" d="M336.3,183.5c-0.4,1.2-1.7,1.9-2.9,1.6c-1.2-0.4-1.9-1.7-1.6-2.9c0.4-1.2,1.7-1.9,2.9-1.6
				C335.9,181,336.6,182.3,336.3,183.5z"/>
			<path class="st18" d="M354.8,170.6c-4.9,3.1-11.6,1.6-15-2.8c-4.2-5.4-2.5-14,3.4-17.2c4.7-2.6,11-1,14.2,3.2
				C361.4,158.9,360.4,167.1,354.8,170.6z"/>
			<path class="st16" d="M343.7,171c0,0,1.1-7.3-6.4-11.3"/>
		</g>
	</g>
	<g>
		<ellipse transform="matrix(1 -8.498295e-03 8.498295e-03 1 -3.7729 3.619)" class="st0" cx="424" cy="445.8" rx="23" ry="4.5"/>
		<g>
			<g>
				<path class="st1" d="M426.9,437.2c0,0-18.3-37.7,5.1-74.3"/>
				<g>
					<path class="st2" d="M430.2,365.9c0,0,13.1-33.8,41.8-40.9C472,325,467.4,352,430.2,365.9z"/>
					<path class="st3" d="M432.2,364c-0.1,0-0.2,0-0.2-0.1c-0.1-0.1-0.1-0.3,0-0.4c0.2-0.3,24-28.9,39.9-38.8c0.1-0.1,0.3,0,0.4,0.1
						c0.1,0.1,0,0.3-0.1,0.4c-15.9,9.9-39.6,38.4-39.8,38.7C432.3,364,432.3,364,432.2,364z"/>
					<path class="st3" d="M447.8,357.3C447.8,357.3,447.8,357.3,447.8,357.3l-10.7,0.6l0.6-6.5c0-0.1,0.1-0.3,0.3-0.2
						c0.1,0,0.3,0.1,0.2,0.3l-0.5,5.9l10-0.6c0.1,0,0.3,0.1,0.3,0.3C448,357.2,447.9,357.3,447.8,357.3z"/>
					<path class="st3" d="M456.1,350.8C456.1,350.8,456.1,350.8,456.1,350.8l-12.1-0.5l-0.4-6.7c0-0.1,0.1-0.3,0.3-0.3
						c0.1,0,0.3,0.1,0.3,0.3l0.4,6.2l11.6,0.4c0.1,0,0.3,0.1,0.3,0.3C456.3,350.7,456.2,350.8,456.1,350.8z"/>
					<path class="st3" d="M462.6,343.9C462.5,343.9,462.5,343.9,462.6,343.9l-11.5-1l1.6-8.1c0-0.1,0.2-0.2,0.3-0.2
						c0.1,0,0.2,0.2,0.2,0.3l-1.4,7.6l10.9,1c0.1,0,0.3,0.1,0.2,0.3C462.8,343.8,462.7,343.9,462.6,343.9z"/>
					<path class="st3" d="M467.9,335.9C467.9,335.9,467.9,335.9,467.9,335.9l-9.7,0.1l0.6-5.6c0-0.1,0.1-0.3,0.3-0.2
						c0.1,0,0.3,0.1,0.2,0.3l-0.5,5l9.1-0.1c0.1,0,0.3,0.1,0.3,0.3C468.1,335.8,468,335.9,467.9,335.9z"/>
					<path class="st3" d="M470.7,329.8C470.7,329.8,470.7,329.8,470.7,329.8l-5.5,0.1l0.3-2.9c0-0.1,0.1-0.3,0.3-0.2
						c0.1,0,0.3,0.1,0.2,0.3l-0.2,2.3l4.8-0.1c0.1,0,0.3,0.1,0.3,0.3C470.9,329.7,470.8,329.8,470.7,329.8z"/>
				</g>
				<path class="st1" d="M425.1,401.8c2.5-5.8,6-11.6,10.6-17.2"/>
				<g>
					<path class="st2" d="M433.6,387.4c0,0,16.8-32.1,46.2-35.9C479.8,351.4,472.1,377.8,433.6,387.4z"/>
					<path class="st3" d="M435.8,385.7c-0.1,0-0.2,0-0.2-0.1c-0.1-0.1-0.1-0.3,0-0.4c0.3-0.3,27.1-26,44.1-34.1
						c0.1-0.1,0.3,0,0.4,0.1c0.1,0.1,0,0.3-0.1,0.4c-16.9,8-43.7,33.7-43.9,34C435.9,385.7,435.9,385.7,435.8,385.7z"/>
					<path class="st3" d="M452.1,380.8C452,380.8,452,380.8,452.1,380.8l-10.7-0.6l1.3-6.4c0-0.1,0.2-0.2,0.3-0.2
						c0.1,0,0.2,0.2,0.2,0.3l-1.2,5.8l10,0.5c0.1,0,0.3,0.1,0.3,0.3C452.3,380.7,452.2,380.8,452.1,380.8z"/>
					<path class="st3" d="M461,375.3C461,375.3,461,375.3,461,375.3l-12-1.8l0.4-6.7c0-0.1,0.1-0.3,0.3-0.3c0.1,0,0.3,0.1,0.3,0.3
						l-0.3,6.3l11.5,1.8c0.1,0,0.2,0.2,0.2,0.3C461.3,375.2,461.2,375.3,461,375.3z"/>
					<path class="st3" d="M468.3,369.2C468.2,369.2,468.2,369.2,468.3,369.2l-11.3-2.3l2.5-7.9c0-0.1,0.2-0.2,0.3-0.2
						c0.1,0,0.2,0.2,0.2,0.3l-2.3,7.4l10.7,2.2c0.1,0,0.2,0.2,0.2,0.3C468.5,369.1,468.4,369.2,468.3,369.2z"/>
					<path class="st3" d="M474.5,361.8C474.5,361.8,474.4,361.8,474.5,361.8l-9.7-1l1.2-5.5c0-0.1,0.2-0.2,0.3-0.2
						c0.1,0,0.2,0.2,0.2,0.3l-1.1,4.9l9.1,0.9c0.1,0,0.3,0.1,0.2,0.3C474.7,361.7,474.6,361.8,474.5,361.8z"/>
					<path class="st3" d="M477.9,356.1C477.9,356.1,477.9,356.1,477.9,356.1l-5.5-0.5l0.6-2.9c0-0.1,0.2-0.2,0.3-0.2
						c0.1,0,0.2,0.2,0.2,0.3l-0.5,2.3l4.8,0.5c0.1,0,0.3,0.1,0.2,0.3C478.2,356,478.1,356.1,477.9,356.1z"/>
				</g>
				<path class="st1" d="M422.8,415.6c-1.1-6.2-3-12.7-6.2-19.3"/>
				<g>
					<path class="st2" d="M418,399.6c0,0-8.7-35.2-36.3-45.9C381.7,353.7,382.9,381.1,418,399.6z"/>
					<path class="st3" d="M416.2,397.5c0.1,0,0.2,0,0.2,0c0.1-0.1,0.2-0.2,0.1-0.4c-0.2-0.3-20.1-31.7-34.7-43.6
						c-0.1-0.1-0.3-0.1-0.4,0c-0.1,0.1-0.1,0.3,0,0.4c14.5,11.8,34.4,43.1,34.6,43.4C416.1,397.4,416.1,397.5,416.2,397.5z"/>
					<path class="st3" d="M401.6,388.8C401.6,388.8,401.6,388.8,401.6,388.8l10.5,2l0.2-6.5c0-0.1-0.1-0.3-0.3-0.3
						c-0.1,0-0.3,0.1-0.3,0.3l-0.2,5.9l-9.9-1.9c-0.1,0-0.3,0.1-0.3,0.2C401.4,388.7,401.5,388.8,401.6,388.8z"/>
					<path class="st3" d="M394.2,381.4C394.2,381.4,394.2,381.4,394.2,381.4l12.1,1.1l1.2-6.6c0-0.1-0.1-0.3-0.2-0.3
						c-0.1,0-0.3,0.1-0.3,0.2l-1.2,6.2l-11.5-1c-0.1,0-0.3,0.1-0.3,0.2C394,381.2,394.1,381.3,394.2,381.4z"/>
					<path class="st3" d="M388.6,373.7C388.7,373.7,388.7,373.7,388.6,373.7l11.6,0.4l-0.5-8.3c0-0.1-0.1-0.3-0.3-0.3
						c-0.1,0-0.3,0.1-0.3,0.3l0.5,7.7l-10.9-0.4c-0.1,0-0.3,0.1-0.3,0.3C388.5,373.5,388.5,373.6,388.6,373.7z"/>
					<path class="st3" d="M384.4,365.1C384.4,365.1,384.4,365.1,384.4,365.1l9.7,1.4l0.1-5.6c0-0.1-0.1-0.3-0.3-0.3
						c-0.1,0-0.3,0.1-0.3,0.3l-0.1,5l-9-1.3c-0.1,0-0.3,0.1-0.3,0.2C384.2,364.9,384.2,365,384.4,365.1z"/>
					<path class="st3" d="M382.3,358.7C382.4,358.7,382.4,358.7,382.3,358.7l5.4,0.8l0.1-2.9c0-0.1-0.1-0.3-0.3-0.3
						c-0.1,0-0.3,0.1-0.3,0.3l-0.1,2.3l-4.8-0.7c-0.1,0-0.3,0.1-0.3,0.2C382.1,358.5,382.2,358.6,382.3,358.7z"/>
				</g>
				<path class="st1" d="M423.9,362.5c0.3-6.3,1.4-13,3.7-19.9"/>
				<g>
					<path class="st2" d="M426.4,346c0,0,4.1-36,30.2-50.1C456.6,295.8,458.9,323.2,426.4,346z"/>
					<path class="st3" d="M427.9,343.6c-0.1,0-0.2,0-0.2,0c-0.1-0.1-0.2-0.2-0.1-0.4c0.2-0.3,15.9-34,28.9-47.6
						c0.1-0.1,0.3-0.1,0.4,0c0.1,0.1,0.1,0.3,0,0.4c-12.9,13.6-28.6,47.2-28.8,47.5C428,343.6,427.9,343.6,427.9,343.6z"/>
					<path class="st3" d="M441.3,333.2C441.2,333.2,441.2,333.2,441.3,333.2l-10.2,3.3l-1.1-6.4c0-0.1,0.1-0.3,0.2-0.3
						c0.1,0,0.3,0.1,0.3,0.2l1,5.8l9.6-3.1c0.1,0,0.3,0,0.3,0.2C441.4,333,441.4,333.2,441.3,333.2z"/>
					<path class="st3" d="M447.6,324.8C447.6,324.9,447.6,324.9,447.6,324.8l-11.9,2.6l-2.1-6.4c0-0.1,0-0.3,0.2-0.3
						c0.1,0,0.3,0,0.3,0.2l1.9,6l11.3-2.5c0.1,0,0.3,0.1,0.3,0.2C447.8,324.7,447.8,324.8,447.6,324.8z"/>
					<path class="st3" d="M452.2,316.5C452.2,316.5,452.1,316.6,452.2,316.5l-11.4,1.9l-0.5-8.3c0-0.1,0.1-0.3,0.2-0.3
						c0.1,0,0.3,0.1,0.3,0.2l0.5,7.7L452,316c0.1,0,0.3,0.1,0.3,0.2C452.3,316.4,452.3,316.5,452.2,316.5z"/>
					<path class="st3" d="M455.3,307.5C455.3,307.5,455.3,307.5,455.3,307.5l-9.4,2.6l-0.9-5.6c0-0.1,0.1-0.3,0.2-0.3
						c0.1,0,0.3,0.1,0.3,0.2l0.8,5l8.8-2.4c0.1,0,0.3,0,0.3,0.2C455.5,307.3,455.4,307.4,455.3,307.5z"/>
					<path class="st3" d="M456.5,300.8C456.5,300.9,456.5,300.9,456.5,300.8l-5.3,1.5l-0.5-2.9c0-0.1,0.1-0.3,0.2-0.3
						c0.1,0,0.3,0.1,0.3,0.2l0.4,2.3l4.7-1.3c0.1,0,0.3,0,0.3,0.2C456.7,300.7,456.6,300.8,456.5,300.8z"/>
				</g>
				<path class="st1" d="M423.3,429.6c0,0,5.1-41.7-1.3-84.5"/>
				<g>
					<path class="st2" d="M422.7,348.7c0,0,1.8-36.2-21.5-54.4C401.1,294.3,394.4,320.9,422.7,348.7z"/>
					<path class="st3" d="M421.6,346.2c0.1,0,0.1,0.1,0.2,0c0.1,0,0.2-0.2,0.2-0.3c-0.1-0.4-10.1-36.2-20.6-51.7
						c-0.1-0.1-0.2-0.2-0.4-0.1c-0.1,0.1-0.2,0.2-0.1,0.4c10.5,15.5,20.5,51.2,20.5,51.6C421.5,346.1,421.5,346.1,421.6,346.2z"/>
					<path class="st3" d="M410.1,333.7C410.1,333.7,410.1,333.7,410.1,333.7l9.5,4.9l2.1-6.2c0-0.1,0-0.3-0.2-0.3
						c-0.1,0-0.3,0-0.3,0.2l-1.9,5.6l-8.9-4.6c-0.1-0.1-0.3,0-0.4,0.1C409.9,333.5,410,333.6,410.1,333.7z"/>
					<path class="st3" d="M405.2,324.4C405.2,324.4,405.2,324.4,405.2,324.4l11.3,4.5l3.1-6c0.1-0.1,0-0.3-0.1-0.4
						c-0.1-0.1-0.3,0-0.4,0.1l-2.9,5.6l-10.8-4.3c-0.1-0.1-0.3,0-0.3,0.1C405,324.2,405.1,324.3,405.2,324.4z"/>
					<path class="st3" d="M402.1,315.4C402.1,315.4,402.1,315.4,402.1,315.4l10.9,3.7l1.9-8.1c0-0.1-0.1-0.3-0.2-0.3
						c-0.1,0-0.3,0.1-0.3,0.2l-1.8,7.5l-10.3-3.5c-0.1,0-0.3,0-0.3,0.2C401.9,315.2,402,315.4,402.1,315.4z"/>
					<path class="st3" d="M400.4,305.9C400.5,306,400.5,306,400.4,305.9l8.9,4.1l1.8-5.4c0-0.1,0-0.3-0.2-0.3c-0.1,0-0.3,0-0.3,0.2
						l-1.6,4.8l-8.3-3.8c-0.1-0.1-0.3,0-0.4,0.1C400.3,305.7,400.3,305.9,400.4,305.9z"/>
					<path class="st3" d="M400.4,299.2C400.4,299.2,400.4,299.3,400.4,299.2l5,2.3l0.9-2.8c0-0.1,0-0.3-0.2-0.3
						c-0.1,0-0.3,0-0.3,0.2l-0.8,2.2l-4.4-2c-0.1-0.1-0.3,0-0.4,0.1C400.2,299,400.3,299.2,400.4,299.2z"/>
				</g>
				<path class="st1" d="M421.7,441.3c0.8-16.2,0.8-40.3-2.9-64.8"/>
				<g>
					<path class="st2" d="M419.7,379.9c0,0,1.8-36.2-21.5-54.4C398.2,325.5,391.4,352.1,419.7,379.9z"/>
					<path class="st3" d="M418.6,377.4c0.1,0,0.1,0.1,0.2,0c0.1,0,0.2-0.2,0.2-0.3c-0.1-0.4-10.1-36.2-20.6-51.7
						c-0.1-0.1-0.2-0.2-0.4-0.1c-0.1,0.1-0.2,0.2-0.1,0.4c10.5,15.5,20.5,51.2,20.5,51.6C418.5,377.3,418.6,377.4,418.6,377.4z"/>
					<path class="st3" d="M407.1,364.9C407.1,364.9,407.1,364.9,407.1,364.9l9.5,4.9l2.1-6.2c0-0.1,0-0.3-0.2-0.3
						c-0.1,0-0.3,0-0.3,0.2l-1.9,5.6l-8.9-4.6c-0.1-0.1-0.3,0-0.4,0.1C407,364.7,407,364.8,407.1,364.9z"/>
					<path class="st3" d="M402.2,355.6C402.2,355.6,402.2,355.6,402.2,355.6l11.3,4.5l3.1-6c0.1-0.1,0-0.3-0.1-0.4
						c-0.1-0.1-0.3,0-0.4,0.1l-2.9,5.6l-10.8-4.3c-0.1-0.1-0.3,0-0.3,0.1C402,355.4,402.1,355.5,402.2,355.6z"/>
					<path class="st3" d="M399.1,346.7C399.1,346.7,399.1,346.7,399.1,346.7l10.9,3.7l1.9-8.1c0-0.1-0.1-0.3-0.2-0.3
						c-0.1,0-0.3,0.1-0.3,0.2l-1.8,7.5l-10.3-3.5c-0.1,0-0.3,0-0.3,0.2C399,346.5,399,346.6,399.1,346.7z"/>
					<path class="st3" d="M397.5,337.2C397.5,337.2,397.5,337.2,397.5,337.2l8.9,4.1l1.8-5.4c0-0.1,0-0.3-0.2-0.3
						c-0.1,0-0.3,0-0.3,0.2l-1.6,4.8l-8.3-3.8c-0.1-0.1-0.3,0-0.4,0.1C397.3,337,397.4,337.1,397.5,337.2z"/>
					<path class="st3" d="M397.4,330.5C397.4,330.5,397.4,330.5,397.4,330.5l5,2.3l0.9-2.8c0-0.1,0-0.3-0.2-0.3
						c-0.1,0-0.3,0-0.3,0.2l-0.8,2.2l-4.4-2.1c-0.1-0.1-0.3,0-0.4,0.1C397.2,330.3,397.3,330.4,397.4,330.5z"/>
				</g>
			</g>
			<polygon class="st4" points="441.8,446 406.1,446 397.9,404.1 450,404.1 			"/>
			<g class="st5">
				<polygon points="399.6,411.9 400.8,417.6 449.6,413.3 				"/>
			</g>
			<rect x="396.9" y="404.1" class="st4" width="54.5" height="9.2"/>
		</g>
	</g>
	<g>
		<g>
			<polygon class="st23" points="120.7,85 150.1,63 155.2,57.3 144.5,57.1 			"/>
			<polygon class="st11" points="120.7,85 146.8,59.6 157.2,70.2 			"/>
			<polygon class="st11" points="120.7,85 137.1,49.9 144.5,57.1 			"/>
		</g>
		<g>
			<g>
				<path class="st7" d="M152.5,50.2c0.6-0.8,1.2-1.6,1.8-2.4"/>
				<path class="st24" d="M158,43.1c32.8-38.3,83.6-44.9,112.6-23.4c20.8,15.5,40.7,50.4,26.3,71.2c-8.3,12-26.4,21.2-41.6,15.1
					c-17-6.8-23.5-30-19-44.3c7.6-23.8,52.1-34.5,86.5-26.5C369,46,376,85.7,419.6,95.5c26.9,6,52.4-2.7,71.3-12.5"/>
				<path class="st7" d="M493.5,81.6c0.9-0.5,1.8-1,2.6-1.4"/>
			</g>
		</g>
	</g>
	<g>
		<path class="st8" d="M89.2,81.9h-8c-0.4,0-0.8-0.4-0.8-0.8l0,0c0-0.4,0.4-0.8,0.8-0.8h8c0.4,0,0.8,0.4,0.8,0.8l0,0
			C90,81.6,89.7,81.9,89.2,81.9z"/>
		<path class="st8" d="M88.6,84.1h-6.8c-0.4,0-0.8-0.4-0.8-0.8l0,0c0-0.4,0.4-0.8,0.8-0.8h6.8c0.4,0,0.8,0.4,0.8,0.8l0,0
			C89.4,83.8,89,84.1,88.6,84.1z"/>
		<path class="st8" d="M87.8,86.3h-5.2c-0.4,0-0.8-0.4-0.8-0.8l0,0c0-0.4,0.4-0.8,0.8-0.8h5.2c0.4,0,0.8,0.4,0.8,0.8l0,0
			C88.6,86,88.3,86.3,87.8,86.3z"/>
		<path class="st11" d="M98.1,65.8c0-7.2-6-12.9-13.3-12.5c-6.4,0.3-11.6,5.6-11.9,12c-0.2,5,2.5,9.3,6.5,11.5
			c1,0.5,1.6,1.5,1.6,2.6v0.9h8.4v-0.6c0-1.1,0.7-2.2,1.7-2.7C95.3,75,98.1,70.7,98.1,65.8z"/>
		<path class="st22" d="M92.2,57.5c1.5,1.3,2.2,3.1,1.4,4c-0.8,0.9-2.6,0.5-4.2-0.8c-1.5-1.3-2.2-3.1-1.4-4
			C88.8,55.8,90.7,56.1,92.2,57.5z"/>
		<path class="st8" d="M86.9,87c0,1-0.8,1.8-1.8,1.8S83.3,88,83.3,87H86.9z"/>
	</g>
	<g>
		<path class="st8" d="M395.4,235.2h-10.6c-0.4,0-0.6-0.3-0.6-0.6v-0.7c0-0.4,0.3-0.6,0.6-0.6h10.6c0.4,0,0.6,0.3,0.6,0.6v0.7
			C396.1,234.9,395.8,235.2,395.4,235.2z"/>
		<path class="st8" d="M394.6,237.9h-9.1c-0.4,0-0.6-0.3-0.6-0.6v-0.7c0-0.4,0.3-0.6,0.6-0.6h9.1c0.4,0,0.6,0.3,0.6,0.6v0.7
			C395.3,237.6,395,237.9,394.6,237.9z"/>
		<path class="st8" d="M393.7,240.6h-7.2c-0.4,0-0.6-0.3-0.6-0.6v-0.7c0-0.4,0.3-0.6,0.6-0.6h7.2c0.4,0,0.6,0.3,0.6,0.6v0.7
			C394.3,240.3,394,240.6,393.7,240.6z"/>
		<path class="st11" d="M406.1,215.2c0-8.9-7.5-16.1-16.5-15.6c-7.9,0.4-14.4,7-14.7,14.9c-0.2,6.2,3.1,11.5,8.1,14.3
			c1.2,0.7,1.9,1.9,1.9,3.2v1.1h10.4v-0.8c0-1.4,0.8-2.7,2.1-3.3C402.6,226.6,406.1,221.3,406.1,215.2z"/>
		<path class="st22" d="M398.8,204.8c1.9,1.7,2.7,3.9,1.7,5c-0.9,1.1-3.3,0.6-5.2-1c-1.9-1.7-2.7-3.9-1.7-5
			C394.6,202.7,396.9,203.2,398.8,204.8z"/>
		<path class="st8" d="M392.2,241.5c0,1.2-1,2.2-2.2,2.2c-1.2,0-2.2-1-2.2-2.2H392.2z"/>
	</g>
	<g>
		<path class="st4" d="M228.4,98.7H178c-4.7,0-8.6,3.8-8.6,8.6v18.9c0,4,2.8,7.4,6.5,8.3v11.2l11.3-10.9h41.2c4.7,0,8.6-3.8,8.6-8.6
			v-18.9C237,102.5,233.1,98.7,228.4,98.7z"/>
		<g>
			<circle class="st22" cx="193.6" cy="116.8" r="2.2"/>
			<circle class="st22" cx="203.2" cy="116.8" r="2.2"/>
			<circle class="st22" cx="212.8" cy="116.8" r="2.2"/>
		</g>
	</g>
	<g>
		<path class="st4" d="M289.4,139h-50.4c-4.7,0-8.6,3.8-8.6,8.6v18.9c0,4.7,3.8,8.6,8.6,8.6h41.2l11.3,10.9v-11.2
			c3.7-0.9,6.5-4.3,6.5-8.3v-18.9C298,142.8,294.1,139,289.4,139z"/>
		<g>
			<circle class="st22" cx="254.6" cy="157.4" r="2.2"/>
			<circle class="st22" cx="264.2" cy="157.4" r="2.2"/>
			<circle class="st22" cx="273.7" cy="157.4" r="2.2"/>
		</g>
	</g>
</g>
<g id="DESIGNED_BY_FREEPIK">
</g>
</svg>
