<?xml version="1.0"?>
<svg xmlns="http://www.w3.org/2000/svg" id="Layer_1" enable-background="new 0 0 64 64" height="512px" viewBox="0 0 64 64" width="512px" class=""><g><path d="m59 2h-50c-1.7 0-3 1.3-3 3v6h-1c-1.7 0-3 1.3-3 3v45c0 1.7 1.3 3 3 3h50c1.7 0 3-1.3 3-3v-9h1c1.7 0 3-1.3 3-3v-42c0-1.7-1.3-3-3-3zm-4 58h-50c-.6 0-1-.4-1-1v-45c0-.6.4-1 1-1h50c.6 0 1 .4 1 1v2h-38v2h38v41c0 .6-.4 1-1 1zm4-12h-1v-34c0-1.7-1.3-3-3-3h-47v-6c0-.6.4-1 1-1h50c.6 0 1 .4 1 1v2h-38v2h38v38c0 .6-.4 1-1 1z" data-original="#000000" class="active-path" data-old_color="#000000" fill="#FF6247"/><path d="m6 16h2v2h-2z" data-original="#000000" class="active-path" data-old_color="#000000" fill="#FF6247"/><path d="m10 16h2v2h-2z" data-original="#000000" class="active-path" data-old_color="#000000" fill="#FF6247"/><path d="m14 16h2v2h-2z" data-original="#000000" class="active-path" data-old_color="#000000" fill="#FF6247"/><path d="m52 27h-7.4c-.8 0-1.5.4-1.8 1.1l-.4.9h-2.4v-2c0-2.7-5.2-4-10-4s-10 1.3-10 4v3h-2.4l-.4-.9c-.3-.7-1-1.1-1.8-1.1h-7.4c-1.1 0-2 .9-2 2v2c0 1.1.9 2 2 2h7.4c.8 0 1.5-.4 1.8-1.1l.4-.9h2.4v7h-2.4l-.4-.9c-.3-.7-1-1.1-1.8-1.1h-7.4c-1.1 0-2 .9-2 2v2c0 1.1.9 2 2 2h7.4c.8 0 1.5-.4 1.8-1.1l.4-.9h2.4v7h-2.4l-.4-.9c-.3-.7-1-1.1-1.8-1.1h-7.4c-1.1 0-2 .9-2 2v2c0 1.1.9 2 2 2h7.4c.8 0 1.5-.4 1.8-1.1l.4-.9h2.4v1c0 2.7 5.2 4 10 4s10-1.3 10-4v-2h2.4l.4.9c.3.7 1 1.1 1.8 1.1h7.4c1.1 0 2-.9 2-2v-2c0-1.1-.9-2-2-2h-7.4c-.8 0-1.5.4-1.8 1.1l-.4.9h-2.4v-7h2.4l.4.9c.3.7 1 1.1 1.8 1.1h7.4c1.1 0 2-.9 2-2v-2c0-1.1-.9-2-2-2h-7.4c-.8 0-1.5.4-1.8 1.1l-.4.9h-2.4v-7h2.4l.4.9c.3.7 1 1.1 1.8 1.1h7.4c1.1 0 2-.9 2-2v-2c0-1.1-.9-2-2-2zm-36.6 5h-7.4v-2h7.4l.5 1zm0 9h-7.4v-2h7.4l.5 1zm0 9h-7.4v-2h7.4l.5 1zm29.2-3h7.4v2h-7.4l-.5-1zm0-9h7.4v2h-7.4l-.5-1zm-14.6-13c5.2 0 8 1.5 8 2s-2.8 2-8 2-8-1.5-8-2 2.8-2 8-2zm0 28c-5.2 0-8-1.5-8-2v-5.5c2.5 1.1 5.3 1.6 8 1.5 2.7.1 5.5-.4 8-1.5v5.5c0 .5-2.8 2-8 2zm0-8c-5.2 0-8-1.5-8-2v-5.5c2.5 1.1 5.3 1.6 8 1.5 2.7.1 5.5-.4 8-1.5v5.5c0 .5-2.8 2-8 2zm0-8c-5.2 0-8-1.5-8-2v-5.5c2.5 1.1 5.3 1.6 8 1.5 2.7.1 5.5-.4 8-1.5v5.5c0 .5-2.8 2-8 2zm14.6-6-.5-1 .5-1h7.4v2z" data-original="#000000" class="active-path" data-old_color="#000000" fill="#FF6247"/><path d="m10 7h2v2h-2z" data-original="#000000" class="active-path" data-old_color="#000000" fill="#FF6247"/><path d="m14 7h2v2h-2z" data-original="#000000" class="active-path" data-old_color="#000000" fill="#FF6247"/><path d="m18 7h2v2h-2z" data-original="#000000" class="active-path" data-old_color="#000000" fill="#FF6247"/></g> </svg>
