<svg height="509pt" viewBox="0 -5 509.088 509" width="509pt" xmlns="http://www.w3.org/2000/svg"><path d="m323.921875 499.628906-323.921875-89.96875 185.601562-185.617187 323.488282 71.890625zm0 0" fill="#77959e"/><path d="m334.335938 423.722656 126.03125-138.621094-274.765626-61.058593-123.9375 123.953125zm0 0" fill="#62808c"/><path d="m270.703125 425.578125h32v32h-32zm0 0" fill="#62808c"/><path d="m190.703125 409.578125h32v32h-32zm0 0" fill="#62808c"/><path d="m110.703125 377.578125h32v32h-32zm0 0" fill="#62808c"/><path d="m323.921875 387.628906-323.921875-89.96875 185.601562-185.617187 323.488282 71.890625zm0 0" fill="#ffee58"/><path d="m334.335938 311.722656 126.03125-138.621094-274.765626-61.058593-123.9375 123.953125zm0 0" fill="#fdd835"/><path d="m238.703125 313.578125h32v32h-32zm0 0" fill="#fdd835"/><path d="m174.703125 281.578125h32v32h-32zm0 0" fill="#fdd835"/><path d="m94.703125 265.578125h32v32h-32zm0 0" fill="#fdd835"/><path d="m323.921875 275.628906-323.921875-89.96875 185.601562-185.6171872 323.488282 71.8906252zm0 0" fill="#40c4ff"/><g fill="#00a4ed"><path d="m190.703125 89.578125h32v32h-32zm0 0"/><path d="m126.703125 121.578125h32v32h-32zm0 0"/><path d="m190.703125 153.578125h32v32h-32zm0 0"/><path d="m254.703125 185.578125h32v32h-32zm0 0"/><path d="m318.703125 153.578125h32v32h-32zm0 0"/><path d="m254.703125 57.578125h32v32h-32zm0 0"/><path d="m318.703125 89.578125h32v32h-32zm0 0"/></g><path d="m398.703125 73.578125h32v32h-32zm0 0" fill="#fff"/></svg>