<?xml version="1.0" encoding="iso-8859-1"?>
<!-- Generator: Adobe Illustrator 21.0.0, SVG Export Plug-In . SVG Version: 6.00 Build 0)  -->
<svg xmlns="http://www.w3.org/2000/svg" xmlns:xlink="http://www.w3.org/1999/xlink" version="1.1" id="Capa_1" x="0px" y="0px" viewBox="0 0 512 512" style="enable-background:new 0 0 512 512;" xml:space="preserve" width="512" height="512">
<g>
	<circle style="fill:#00F3B5;" cx="256" cy="256" r="256"/>
	<path style="fill:#00D699;" d="M512,256c0-2.627-0.052-5.242-0.131-7.849l-95.13-95.13L367.456,163.6h-17.198   C325.512,138.379,291.412,124,256,124s-69.512,14.379-94.258,39.6H106.84v42.018l-10.916,49.489c0,0,73.318,73.331,73.481,73.493   h-20.607c-0.223-0.225-10.68-10.663-10.68-10.663l-42.193,42.109l151.807,151.807C250.478,511.94,253.232,512,256,512   C397.385,512,512,397.385,512,256z"/>
	<g>
		<path style="fill:#4DB2FF;" d="M256,388c-35.412,0-69.512-14.379-94.258-39.6H136.54v-19.8h33.808l2.943,3.208    C194.5,354.936,224.647,368.2,256,368.2s61.5-13.264,82.71-36.392l2.943-3.208h33.808v19.8h-25.202    C325.512,373.621,291.412,388,256,388z"/>
		<path style="fill:#4DB2FF;" d="M126.64,213.76h-19.8V163.6h54.902C186.488,138.379,220.588,124,256,124s69.512,14.379,94.258,39.6    h25.202v19.8h-33.808l-2.943-3.208C317.5,157.064,287.353,143.8,256,143.8s-61.5,13.264-82.71,36.392l-2.943,3.208H126.64V213.76z    "/>
		<path style="fill:#266CB2;" d="M350.258,348.4h25.202v-19.8h-33.808l-2.943,3.208C317.5,354.936,287.353,368.2,256,368.2V388    C291.412,388,325.512,373.621,350.258,348.4z"/>
		<path style="fill:#266CB2;" d="M338.71,180.192l2.943,3.208h33.808v-19.8h-25.202C325.512,138.379,291.412,124,256,124v19.8    C287.353,143.8,317.5,157.064,338.71,180.192z"/>
		<path style="fill:#CCF0FF;" d="M256,348.4c-50.95,0-92.4-41.45-92.4-92.4s41.45-92.4,92.4-92.4s92.4,41.45,92.4,92.4    S306.95,348.4,256,348.4z"/>
		<path style="fill:#80C9FF;" d="M256,163.6v184.8c50.95,0,92.4-41.45,92.4-92.4S306.95,163.6,256,163.6z"/>
		<path style="fill:#4DB2FF;" d="M256,348.4c-50.95,0-92.4-41.45-92.4-92.4s41.45-92.4,92.4-92.4s92.4,41.45,92.4,92.4    S306.95,348.4,256,348.4z M256,183.4c-40.032,0-72.6,32.568-72.6,72.6s32.568,72.6,72.6,72.6s72.6-32.568,72.6-72.6    S296.032,183.4,256,183.4z"/>
		<rect x="207.82" y="234.831" style="fill:#FF6E84;" width="11.693" height="42.574"/>
		<path style="fill:#FF6E84;" d="M250.903,264.603c-0.54,0.659-1.139,1.199-1.799,1.619c-0.659,0.42-1.349,0.72-2.069,0.9    c-0.719,0.18-1.419,0.27-2.099,0.27c-1.36,0-2.569-0.309-3.628-0.929c-1.06-0.619-1.959-1.449-2.699-2.489    c-0.74-1.039-1.299-2.238-1.679-3.598c-0.38-1.359-0.57-2.778-0.57-4.257c0-1.319,0.159-2.647,0.48-3.987    c0.319-1.339,0.829-2.538,1.529-3.598c0.699-1.059,1.579-1.919,2.638-2.578c1.059-0.659,2.328-0.989,3.808-0.989    c0.639,0,1.339,0.081,2.099,0.24c0.759,0.16,1.478,0.44,2.158,0.84c0.679,0.4,1.309,0.94,1.889,1.619    c0.579,0.68,1.049,1.539,1.409,2.578l8.935-6.356c-1.36-2.798-3.459-5.046-6.296-6.746c-2.839-1.699-6.157-2.548-9.954-2.548    c-3.238,0-6.127,0.62-8.665,1.859c-2.539,1.24-4.698,2.859-6.476,4.857c-1.779,1.999-3.128,4.257-4.048,6.776    c-0.92,2.518-1.379,5.077-1.379,7.675c0,2.719,0.499,5.397,1.499,8.035c0.999,2.638,2.388,4.998,4.167,7.076    c1.779,2.079,3.907,3.748,6.386,5.007c2.478,1.259,5.196,1.889,8.155,1.889c1.679,0,3.397-0.22,5.157-0.66    c1.759-0.439,3.418-1.079,4.977-1.919c1.559-0.839,2.947-1.878,4.167-3.118c1.219-1.239,2.129-2.639,2.728-4.198l-9.534-5.696    C251.871,263.134,251.442,263.943,250.903,264.603z"/>
		<path style="fill:#FFC474;" d="M395.26,368.2c-16.654,0-29.7-12.756-29.7-29.04c0-7.89,3.034-15.409,8.543-21.172    c5.664-5.925,13.178-9.188,21.157-9.188c16.377,0,29.7,13.323,29.7,29.7S411.637,368.2,395.26,368.2z"/>
		<path style="fill:#FFC474;" d="M395.26,203.2c-16.654,0-29.7-12.756-29.7-29.04c0-7.89,3.034-15.409,8.543-21.172    c5.664-5.925,13.178-9.188,21.157-9.188c16.377,0,29.7,13.323,29.7,29.7S411.637,203.2,395.26,203.2z"/>
		<path style="fill:#FFE2BA;" d="M116.74,368.2c-16.654,0-29.7-12.756-29.7-29.04c0-7.89,3.034-15.409,8.543-21.172    c5.664-5.925,13.178-9.188,21.157-9.188c16.377,0,29.7,13.323,29.7,29.7S133.117,368.2,116.74,368.2z"/>
		<path style="fill:#FFE2BA;" d="M116.74,263.26c-16.654,0-29.7-12.756-29.7-29.04c0-7.89,3.034-15.409,8.543-21.172    c5.664-5.925,13.178-9.188,21.157-9.188c16.377,0,29.7,13.323,29.7,29.7S133.117,263.26,116.74,263.26z"/>
		<path style="fill:#266CB2;" d="M328.6,256c0,40.032-32.568,72.6-72.6,72.6v19.8c50.95,0,92.4-41.45,92.4-92.4    s-41.45-92.4-92.4-92.4v19.8C296.032,183.4,328.6,215.968,328.6,256z"/>
		<g>
			<path style="fill:#FE3B7F;" d="M302.741,248.323c-0.96-2.598-2.329-4.917-4.108-6.956c-1.779-2.039-3.918-3.677-6.416-4.917     c-2.499-1.238-5.267-1.859-8.305-1.859c-2.998,0-5.747,0.59-8.245,1.769c-2.499,1.18-4.668,2.758-6.506,4.737     c-1.839,1.979-3.268,4.268-4.287,6.866c-1.02,2.599-1.529,5.297-1.529,8.095c0,2.758,0.489,5.437,1.469,8.035     c0.979,2.599,2.358,4.907,4.137,6.926c1.779,2.019,3.918,3.648,6.416,4.887c2.498,1.239,5.266,1.859,8.305,1.859     c2.998,0,5.757-0.6,8.275-1.799c2.518-1.199,4.677-2.788,6.476-4.767c1.799-1.979,3.208-4.257,4.227-6.836     c1.02-2.578,1.529-5.266,1.529-8.065C304.18,253.58,303.701,250.922,302.741,248.323z M291.798,260.195     c-0.34,1.36-0.85,2.569-1.529,3.628c-0.68,1.06-1.559,1.919-2.638,2.578c-1.079,0.66-2.359,0.99-3.838,0.99     c-1.439,0-2.698-0.32-3.778-0.96c-1.079-0.639-1.979-1.478-2.698-2.518c-0.72-1.039-1.25-2.228-1.589-3.568     c-0.34-1.339-0.509-2.728-0.509-4.167c0-1.399,0.169-2.768,0.509-4.108c0.339-1.339,0.859-2.538,1.559-3.598     c0.699-1.059,1.579-1.909,2.638-2.549c1.059-0.639,2.328-0.959,3.808-0.959c1.439,0,2.699,0.31,3.778,0.929     c1.079,0.62,1.969,1.439,2.669,2.458c0.699,1.019,1.229,2.199,1.589,3.538c0.36,1.34,0.54,2.728,0.54,4.167     C292.307,257.458,292.137,258.837,291.798,260.195z"/>
			<path style="fill:#FE3B7F;" d="M256,237.777v9.883l5.306-3.775C260.11,241.424,258.34,239.389,256,237.777z"/>
			<path style="fill:#FE3B7F;" d="M256,274.497c1.092-0.7,2.092-1.508,2.998-2.428c1.219-1.239,2.129-2.639,2.728-4.198L256,264.45     V274.497z"/>
		</g>
	</g>
</g>















</svg>
