<svg id="Layer_1" data-name="Layer 1" xmlns="http://www.w3.org/2000/svg" viewBox="0 0 420.98 512"><defs><style>.cls-1{fill:#944f00;}</style></defs><title>keyhole</title><path class="cls-1" d="M455.82,62.6C392,58.6,326.59,38,261.58,1.46a11.38,11.38,0,0,0-11.16,0C185.4,38,120.05,58.6,56.18,62.6A11.38,11.38,0,0,0,45.51,74V290.13c0,35.77,11.16,69.82,33.18,101.18C96,416,120,438.93,150,459.63c50.58,34.88,100.43,51.15,102.53,51.82a11.32,11.32,0,0,0,7,0c2.1-.67,52-16.94,102.53-51.82,30-20.69,54-43.68,71.3-68.32,22-31.37,33.18-65.41,33.18-101.18V74A11.38,11.38,0,0,0,455.82,62.6ZM443.73,290.13c0,56.6-31.69,107.22-94.19,150.47-40.47,28-81.55,43.71-93.54,48-11.95-4.25-52.67-19.81-93.1-47.69-62.79-43.3-94.63-94-94.63-150.77V84.5C130.32,78.94,193.39,58.75,256,24.39,318.61,58.75,381.68,78.94,443.73,84.5V290.13Z" transform="translate(-45.51 0)"/><path class="cls-1" d="M298.51,298.32c-1.61-9.66-3.27-19.59-4.73-29.42a68.27,68.27,0,1,0-75.56,0c-1.47,9.83-3.12,19.76-4.73,29.42-3.3,19.78-6.71,40.23-8.64,60.54a11.38,11.38,0,0,0,11.33,12.46h79.64a11.38,11.38,0,0,0,11.33-12.46C305.21,338.55,301.8,318.1,298.51,298.32Zm-28.36-33.83c1.75,12.57,3.86,25.28,5.91,37.57,2.55,15.29,5.16,31,7.07,46.5H228.87c1.9-15.52,4.52-31.21,7.07-46.5,2-12.29,4.16-25,5.91-37.57a11.38,11.38,0,0,0-6.18-11.74,45.51,45.51,0,1,1,40.66,0A11.36,11.36,0,0,0,270.15,264.49Z" transform="translate(-45.51 0)"/><path class="cls-1" d="M250.82,52.88C201,78.35,150.43,95.33,100.59,103.36A11.39,11.39,0,0,0,91,114.6V290.13c0,48.29,28,92.32,83.11,130.86,30.4,21.25,61.68,35.2,77.62,41.63a11.42,11.42,0,0,0,8.5,0c8.38-3.38,21.48-9,36.34-16.76a11.37,11.37,0,0,0-10.5-20.18c-11.75,6.11-22.32,10.83-30.09,14.08-15.92-6.66-42.77-19.21-68.83-37.42-48.7-34-73.39-71.79-73.39-112.21V124.18c47.33-8.64,95.1-24.91,142.22-48.42,47.12,23.51,94.89,39.78,142.22,48.42v166c0,29.95-13.64,58.62-40.56,85.21a11.38,11.38,0,0,0,16,16.18c31.4-31,47.32-65.13,47.32-101.39V114.6a11.39,11.39,0,0,0-9.57-11.24c-49.84-8-100.38-25-150.23-50.48A11.4,11.4,0,0,0,250.82,52.88Z" transform="translate(-45.51 0)"/><path class="cls-1" d="M322.87,403.76l-1.06,1.06a11.38,11.38,0,1,0,16,16.18l1.22-1.22a11.38,11.38,0,0,0-16.16-16Z" transform="translate(-45.51 0)"/></svg>