<svg height="512pt" viewBox="0 0 512 512" width="512pt" xmlns="http://www.w3.org/2000/svg"><path d="m384 112v352c0 26.398438-21.601562 48-48 48h-288c-26.398438 0-48-21.601562-48-48v-352c0-26.398438 21.601562-48 48-48h288c26.398438 0 48 21.601562 48 48zm0 0" fill="#448aff"/><path d="m496 352h-192c-8.832031 0-16-7.167969-16-16v-128c0-8.832031 7.167969-16 16-16h192c8.832031 0 16 7.167969 16 16v128c0 8.832031-7.167969 16-16 16zm0 0" fill="#d1944b"/><path d="m496 192h-64v160h64c8.832031 0 16-7.167969 16-16v-128c0-8.832031-7.167969-16-16-16zm0 0" fill="#c98235"/><path d="m384 272-32-16-32 16v-80h64zm0 0" fill="#ffd740"/><path d="m128 160c-35.296875 0-64-28.703125-64-64v-32h256v32c0 35.296875-28.703125 64-64 64zm0 0" fill="#2979ff"/><path d="m256 128h-128c-17.679688 0-32-14.320312-32-32v-48h32v-16c0-17.679688 14.320312-32 32-32h64c17.679688 0 32 14.320312 32 32v16h32v48c0 17.679688-14.320312 32-32 32zm0 0" fill="#ffd740"/><g fill="#fff"><path d="m80 278.625-43.3125-43.3125 22.625-22.625 20.6875 20.6875 52.6875-52.6875 22.625 22.625zm0 0"/><path d="m80 374.625-43.3125-43.3125 22.625-22.625 20.6875 20.6875 52.6875-52.6875 22.625 22.625zm0 0"/><path d="m80 470.625-43.3125-43.3125 22.625-22.625 20.6875 20.6875 52.6875-52.6875 22.625 22.625zm0 0"/><path d="m192 192h32v32h-32zm0 0"/><path d="m192 288h32v32h-32zm0 0"/><path d="m192 384h32v32h-32zm0 0"/></g><path d="m336 480h-288c-26.398438 0-48-21.601562-48-48v32c0 26.398438 21.601562 48 48 48h288c26.398438 0 48-21.601562 48-48v-32c0 26.398438-21.601562 48-48 48zm0 0" fill="#2979ff"/></svg>