<svg id="Layer_1" data-name="Layer 1" xmlns="http://www.w3.org/2000/svg" viewBox="0 0 496 504"><defs><style>.cls-1{fill:#ff6855;}</style></defs><title>maintenance</title><path class="cls-1" d="M476,456a24,24,0,1,0,24,24A24,24,0,0,0,476,456Zm0,32a8,8,0,1,1,8-8A8,8,0,0,1,476,488Z" transform="translate(-4)"/><path class="cls-1" d="M52,24A24,24,0,1,0,28,48,24,24,0,0,0,52,24ZM20,24a8,8,0,1,1,8,8A8,8,0,0,1,20,24Z" transform="translate(-4)"/><path class="cls-1" d="M433.77,317,418,285.43a177.55,177.55,0,0,0,8.58-20.51L460,253.77V162.23l-33.45-11.15A175.81,175.81,0,0,0,418,130.57l15.82-31.63L369.06,34.21,337.43,50a175.81,175.81,0,0,0-20.51-8.58L305.77,8H214.23L203.08,41.45A175.81,175.81,0,0,0,182.57,50L150.94,34.21,86.21,98.94,102,130.57a175.81,175.81,0,0,0-8.58,20.51L60,162.23v91.53l33.45,11.15a176.43,176.43,0,0,0,8.5,20.35L91.66,304H44V464h56V440h60.69l24,24H228v8a32,32,0,0,0,64,0v-8h56a23.9,23.9,0,0,0,17.76-40,23.63,23.63,0,0,0,0-32,23.84,23.84,0,0,0,5.87-12.34ZM118.09,281.71a160.9,160.9,0,0,1-10.68-25.53l-1.23-3.88L76,242.23V173.76l30.18-10.06,1.23-3.89a158.36,158.36,0,0,1,10.67-25.52l1.88-3.63L105.68,102.1l48.41-48.41L182.66,68l3.62-1.88A159.72,159.72,0,0,1,211.8,55.41l3.9-1.22L225.77,24h68.47L304.3,54.18l3.89,1.23a158.36,158.36,0,0,1,25.52,10.67L337.34,68,365.9,53.68l48.41,48.41L400,130.66l1.88,3.62a159.72,159.72,0,0,1,10.68,25.52l1.22,3.9L444,173.77v68.47L413.82,252.3l-1.23,3.88a160.9,160.9,0,0,1-10.68,25.53L400,285.34l14.3,28.58-47.28,47.64c-.4-.54-.84-1.06-1.28-1.56a23.8,23.8,0,0,0-15.56-39.78A143.11,143.11,0,0,0,404,208c0-79.4-64.6-144-144-144S116,128.6,116,208a144.08,144.08,0,0,0,53.56,112H101.13l18.93-34.5ZM356,408a8,8,0,0,1-8,8H284a8,8,0,0,1,0-16h64A8,8,0,0,1,356,408ZM240.69,208h38.62L292,195.31V160a16,16,0,0,1,16,16v36.69L280.69,240H239.31L212,212.69V176a16,16,0,0,1,16-16v35.31ZM244,256h32v32H244Zm48-4.69,32-32V176a32,32,0,0,0-32-32H276v44.69L272.69,192H247.31L244,188.69V144H228a32,32,0,0,0-32,32v43.31l32,32V288H208.69l-.51.5a96,96,0,1,1,104.51-.5H292ZM372,208a112,112,0,1,0-175.46,92.15L185,311.67A128,128,0,0,1,132,208c0-70.57,57.43-128,128-128s128,57.43,128,128a127.24,127.24,0,0,1-48.38,100.2,23.87,23.87,0,0,0-8-14.24A111.27,111.27,0,0,0,372,208ZM348,336a8,8,0,0,1,0,16H284a8,8,0,0,1,0-16Zm-64,48a8,8,0,0,1,0-16h64a8,8,0,0,1,0,16ZM84,448H60V320H84Zm107.31,0-24-24H100V336h83.31l32-32H316a8,8,0,0,1,0,16H232.69l-34.35,34.34,11.32,11.32L228,347.31V448ZM260,488a16,16,0,0,1-16-16V336h17.47a23.6,23.6,0,0,0-1.47,8,23.86,23.86,0,0,0,6.24,16,23.63,23.63,0,0,0,0,32,23.63,23.63,0,0,0,0,32A23.78,23.78,0,0,0,276,462.53V472A16,16,0,0,1,260,488Zm88-40H284a8,8,0,0,1,0-16h64a8,8,0,0,1,0,16Z" transform="translate(-4)"/><path class="cls-1" d="M20,72H36V88H20Z" transform="translate(-4)"/><path class="cls-1" d="M20,112H36v16H20Z" transform="translate(-4)"/><path class="cls-1" d="M20,152H36v16H20Z" transform="translate(-4)"/><path class="cls-1" d="M468,336h16v16H468Z" transform="translate(-4)"/><path class="cls-1" d="M468,376h16v16H468Z" transform="translate(-4)"/><path class="cls-1" d="M468,416h16v16H468Z" transform="translate(-4)"/></svg>