<svg id="Layer_1" data-name="Layer 1" xmlns="http://www.w3.org/2000/svg" viewBox="0 0 511 471.08"><defs><style>.cls-1{fill:#94ffe5;}</style></defs><title>marketing</title><path class="cls-1" d="M294.12,361.52l-.07.06a11.06,11.06,0,1,0,.07-.06Z" transform="translate(0 -19.96)"/><path class="cls-1" d="M411.12,39.94A10,10,0,1,0,404.05,37,10.06,10.06,0,0,0,411.12,39.94Z" transform="translate(0 -19.96)"/><path class="cls-1" d="M481.79,20H451.07a10,10,0,0,0,0,20h30.72A9.25,9.25,0,0,1,491,49.18v175.3a9.26,9.26,0,0,1-9.24,9.24H269.61a10,10,0,0,0-5.33,1.54l-44.95,28.31V49.18a9.25,9.25,0,0,1,9.24-9.24H371.16a10,10,0,0,0,0-20H228.57a29.25,29.25,0,0,0-29.21,29.22v94.87A136.35,136.35,0,0,0,91.93,346.39l-89,89a10,10,0,0,0,0,14.13l38.6,38.6a10,10,0,0,0,14.12,0l89-89a136.33,136.33,0,0,0,128.64,2.26,10,10,0,1,0-9.13-17.77A115.1,115.1,0,0,1,211,396.39,116.44,116.44,0,0,1,199.36,164.1v27a89.51,89.51,0,1,0,97.37,62.57h27.73a116.66,116.66,0,0,1,3,26.26,115.38,115.38,0,0,1-11.59,50.72,10,10,0,1,0,18,8.72A135,135,0,0,0,347.43,280a137.28,137.28,0,0,0-2.54-26.27H481.78A29.25,29.25,0,0,0,511,224.48V49.18A29.25,29.25,0,0,0,481.79,20Zm-433.21,447L24.11,442.46,68.9,397.68l24.46,24.46Zm79.08-79.08L107.49,408,83,383.55l20.16-20.16A137.46,137.46,0,0,0,127.66,387.84ZM280.66,280a69.63,69.63,0,1,1-81.3-68.64v70.35a10,10,0,0,0,15.31,8.45l57.82-36.42h3A69,69,0,0,1,280.66,280Z" transform="translate(0 -19.96)"/><path class="cls-1" d="M308.16,58.92a10,10,0,0,0-10,10V79.13a68.17,68.17,0,1,0,77.43,77.43h10.22a10,10,0,0,0,10-10A87.75,87.75,0,0,0,308.16,58.92Zm0,135.84a48.19,48.19,0,0,1-10-95.34v47.15a10,10,0,0,0,10,10h47.16A48.28,48.28,0,0,1,308.16,194.76Zm10-58.18v-57a67.84,67.84,0,0,1,57,57Z" transform="translate(0 -19.96)"/><path class="cls-1" d="M430.92,156.56h31.14a10,10,0,1,0,0-20H430.92a10,10,0,0,0,0,20Z" transform="translate(0 -19.96)"/><path class="cls-1" d="M462.06,178.2H423.69a10,10,0,0,0,0,20h38.37a10,10,0,0,0,0-20Z" transform="translate(0 -19.96)"/><path class="cls-1" d="M437,114.94h25.09a10,10,0,1,0,0-20H437a10,10,0,0,0,0,20Z" transform="translate(0 -19.96)"/></svg>