<?xml version="1.0" encoding="iso-8859-1"?>
<!-- Generator: Adobe Illustrator 19.0.0, SVG Export Plug-In . SVG Version: 6.00 Build 0)  -->
<svg version="1.1" id="Capa_1" xmlns="http://www.w3.org/2000/svg" xmlns:xlink="http://www.w3.org/1999/xlink" x="0px" y="0px"
	 viewBox="0 0 504.261 504.261" style="enable-background:new 0 0 504.261 504.261;" xml:space="preserve">
<rect x="7.946" y="7.877" style="fill:#E1E6E8;" width="488.369" height="311.138"/>
<path style="fill:#183651;" d="M496.315,326.892H7.946c-4.726,0-7.877-3.151-7.877-7.877V7.877C0.069,3.151,3.22,0,7.946,0h488.369
	c4.726,0,7.877,3.151,7.877,7.877v311.138C504.192,322.954,501.041,326.892,496.315,326.892z M15.823,311.138h472.615V15.754H15.823
	V311.138z"/>
<rect x="39.131" y="38.92" style="fill:#FFFFFF;" width="425.354" height="248.123"/>
<rect x="93.017" y="56.714" style="fill:#F05F50;" width="41.748" height="203.225"/>
<path style="fill:#FCBD5E;" d="M20.549,435.594l125.243-103.188l25.994,25.994L68.598,484.431
	c-12.603,15.754-36.234,16.542-50.412,2.363C4.007,471.828,4.795,448.985,20.549,435.594z"/>
<path style="fill:#183651;" d="M12.672,491.52c-17.329-17.329-15.754-46.474,3.151-62.228l125.243-103.188
	c3.151-2.363,7.877-2.363,10.24,0.788l25.994,25.994c3.151,3.151,3.151,7.089,0.788,10.24L74.9,489.157
	C59.146,508.062,30.001,509.637,12.672,491.52z M145.792,342.646L25.275,441.895c-11.815,10.24-12.603,27.569-1.575,38.597
	s29.145,10.24,38.597-1.575L160.758,358.4L145.792,342.646z"/>
<ellipse style="fill:#2AA0DA;" cx="231.65" cy="272.542" rx="127.606" ry="127.606"/>
<path id="SVGCleanerId_0" style="fill:#183651;" d="M231.65,408.025L231.65,408.025c-74.831,0-135.483-60.652-135.483-135.483
	s60.652-135.483,134.695-135.483c74.831,0.788,135.483,61.44,135.483,135.483C366.346,347.372,305.693,408.025,231.65,408.025z
	 M231.65,153.6c-66.166,0-119.729,53.563-119.729,119.729s53.563,119.729,119.729,119.729v7.877v-7.877
	c66.166,0,118.942-53.563,118.942-119.729S297.029,153.6,231.65,153.6z"/>
<g>
	
		<rect x="43.971" y="444.122" transform="matrix(-0.7071 0.7071 -0.7071 -0.7071 408.1212 734.9485)" style="fill:#183651;" width="15.754" height="15.754"/>
	
		<rect x="71.682" y="416.618" transform="matrix(-0.7071 0.7071 -0.7071 -0.7071 435.9788 668.4019)" style="fill:#183651;" width="15.754" height="15.754"/>
	
		<rect x="99.33" y="389.099" transform="matrix(-0.7071 0.7071 -0.7071 -0.7071 463.7175 601.8729)" style="fill:#183651;" width="15.754" height="15.754"/>
	<rect x="221.41" y="463.951" style="fill:#183651;" width="15.754" height="15.754"/>
	<rect x="267.884" y="463.951" style="fill:#183651;" width="15.754" height="15.754"/>
	<rect x="315.146" y="463.951" style="fill:#183651;" width="15.754" height="15.754"/>
	<rect x="362.407" y="463.951" style="fill:#183651;" width="15.754" height="15.754"/>
	<rect x="409.669" y="463.951" style="fill:#183651;" width="15.754" height="15.754"/>
	<rect x="456.93" y="463.951" style="fill:#183651;" width="15.754" height="15.754"/>
</g>
<g>
	<rect x="367.921" y="72.468" style="fill:#F05F50;" width="41.748" height="187.471"/>
	<path style="fill:#F05F50;" d="M317.509,103.975h-41.748V153.6c15.754,5.514,29.932,14.966,41.748,25.994V103.975z"/>
	<path style="fill:#F05F50;" d="M226.137,80.345h-41.748v74.043c12.603-5.514,26.782-7.877,41.748-8.665V80.345z"/>
</g>
<g>
	<path style="fill:#FFFFFF;" d="M317.509,259.938v-80.345c-11.815-11.028-25.994-19.692-41.748-25.994v106.338H317.509z"/>
	<path style="fill:#FFFFFF;" d="M226.137,259.938V145.723c-14.966,0.788-28.357,3.938-41.748,8.665v105.551H226.137z"/>
</g>
<g>
	<path id="SVGCleanerId_0_1_" style="fill:#183651;" d="M231.65,408.025L231.65,408.025c-74.831,0-135.483-60.652-135.483-135.483
		s60.652-135.483,134.695-135.483c74.831,0.788,135.483,61.44,135.483,135.483C366.346,347.372,305.693,408.025,231.65,408.025z
		 M231.65,153.6c-66.166,0-119.729,53.563-119.729,119.729s53.563,119.729,119.729,119.729v7.877v-7.877
		c66.166,0,118.942-53.563,118.942-119.729S297.029,153.6,231.65,153.6z"/>
</g>
<g>
</g>
<g>
</g>
<g>
</g>
<g>
</g>
<g>
</g>
<g>
</g>
<g>
</g>
<g>
</g>
<g>
</g>
<g>
</g>
<g>
</g>
<g>
</g>
<g>
</g>
<g>
</g>
<g>
</g>
</svg>
