<svg height="512pt" viewBox="0 -43 512.00205 512" width="512pt" xmlns="http://www.w3.org/2000/svg" xmlns:xlink="http://www.w3.org/1999/xlink"><linearGradient id="a" gradientUnits="userSpaceOnUse" x1="76.9742634352" x2="275.8673158836" y1="400.050049436" y2="201.1569969876"><stop offset="0" stop-color="#b3e152"/><stop offset="1" stop-color="#f6e46f"/></linearGradient><path d="m255.941406 0c-117.65625 0-213.382812 95.722656-213.382812 213.382812 0 11.785157 9.554687 21.339844 21.339844 21.339844h85.351562c11.785156 0 21.339844-9.554687 21.339844-21.339844 0-47.0625 38.289062-85.351562 85.351562-85.351562 8.222656 0 16.171875 1.183594 23.703125 3.363281 13.695313-40.324219 28.257813-80.875 31.585938-124.070312-17.644531-4.742188-36.164063-7.324219-55.289063-7.324219zm0 0" fill="#d9f0a9"/><path d="m447.984375 192.046875h-85.351563c-11.785156 0-21.335937 9.550781-21.335937 21.335937 0 47.066407-38.289063 85.351563-85.355469 85.351563-39.699218 0-73.152344-27.242187-82.652344-64.011719h18.636719c17.507813 0 27.640625-20.953125 16.664063-34.667968l-85.351563-106.691407c-8.40625-10.511719-24.921875-10.511719-33.324219 0l-85.355468 106.691407c-10.976563 13.714843-.84375 34.667968 16.664062 34.667968h22.394532c10.742187 107.675782 101.867187 192.042969 212.324218 192.042969 117.660156 0 213.382813-95.722656 213.382813-213.382813 0-11.785156-9.550781-21.335937-21.339844-21.335937zm0 0" fill="url(#a)"/><path d="m509.894531 204.136719c-3.550781-7.390625-11.027343-12.089844-19.230469-12.089844h-22.394531c-10.742187-107.675781-101.867187-192.046875-212.324219-192.046875v128.03125c39.699219 0 73.152344 27.242188 82.652344 64.015625h-18.636718c-17.507813 0-27.640626 20.949219-16.664063 34.664063l85.351563 106.691406c8.40625 10.511718 24.921874 10.511718 33.328124 0l85.351563-106.691406c5.121094-6.402344 6.121094-15.175782 2.566406-22.574219zm0 0" fill="#d9f0a9"/></svg>