<svg height="512pt" viewBox="-29 0 512 512" width="512pt" xmlns="http://www.w3.org/2000/svg"><g fill="#61d7a8"><path d="m78.914062 149.667969-15.117187-25.929688 129.582031-76.585937 15.117188 25.929687zm0 0"/><path d="m31.847656 180.941406h30v150.117188h-30zm0 0"/><path d="m193.378906 464.847656-129.582031-76.585937 15.117187-25.929688 129.582032 76.585938zm0 0"/></g><path d="m260.320312 464.847656-15.117187-25.929687 129.582031-76.585938 15.117188 25.929688zm0 0" fill="#00ab94"/><path d="m391.847656 180.941406h30v150.117188h-30zm0 0" fill="#00ab94"/><path d="m374.785156 149.667969-129.582031-76.585938 15.117187-25.929687 129.582032 76.585937zm0 0" fill="#00ab94"/><path d="m226.847656 151c-24.898437 0-45 20.097656-45 45 0 24.898438 20.101563 45 45 45 24.902344 0 45-20.101562 45-45 0-24.902344-20.097656-45-45-45zm0 0" fill="#61d7a8"/><path d="m226.847656 241c-41.398437 0-75 33.601562-75 75v45h150v-45c0-41.398438-33.597656-75-75-75zm0 0" fill="#61d7a8"/><path d="m226.847656 0c-24.898437 0-45 20.097656-45 45 0 24.898438 20.101563 45 45 45 24.902344 0 45-20.101562 45-45 0-24.902344-20.097656-45-45-45zm0 0" fill="#a5f2b5"/><path d="m226.847656 422c-24.898437 0-45 20.097656-45 45 0 24.898438 20.101563 45 45 45 24.902344 0 45-20.101562 45-45 0-24.902344-20.097656-45-45-45zm0 0" fill="#a5f2b5"/><path d="m44.914062 196.015625c-7.808593 0-15.496093-2.035156-22.425781-6.035156-21.476562-12.40625-28.871093-39.976563-16.480469-61.464844 12.410157-21.488281 39.976563-28.902344 61.464844-16.496094h.03125c21.472656 12.421875 28.855469 40.007813 16.449219 61.480469-6.007813 10.398438-15.703125 17.855469-27.320313 20.960938-3.878906 1.042968-7.820312 1.554687-11.71875 1.554687zm0 0" fill="#a5f2b5"/><path d="m408.621094 405.984375c-7.617188 0-15.335938-1.933594-22.398438-6.003906-21.503906-12.421875-28.886718-40.007813-16.480468-61.480469 6.007812-10.398438 15.703124-17.855469 27.320312-20.960938 11.660156-3.105468 23.761719-1.496093 34.148438 4.480469 21.472656 12.40625 28.871093 39.976563 16.476562 61.464844-8.332031 14.429687-23.496094 22.5-39.066406 22.5zm0 0" fill="#80d398"/><path d="m45.0625 405.984375c-15.570312 0-30.71875-8.070313-39.054688-22.484375-12.390624-21.503906-4.992187-49.070312 16.480469-61.480469 10.398438-6.003906 22.542969-7.585937 34.144531-4.480469 11.617188 3.105469 21.3125 10.5625 27.320313 20.976563 12.40625 21.460937 5.023437 49.042969-16.449219 61.464844-7.074218 4.070312-14.808594 6.003906-22.441406 6.003906zm0 0" fill="#a5f2b5"/><path d="m408.78125 196.015625c-3.910156 0-7.835938-.511719-11.71875-1.554687-11.613281-3.105469-21.3125-10.5625-27.316406-20.976563-12.40625-21.460937-5.023438-49.042969 16.449218-61.464844h.027344c21.476563-12.421875 49.046875-5.007812 61.464844 16.480469 12.394531 21.503906 4.996094 49.070312-16.476562 61.476562-6.929688 4.003907-14.636719 6.039063-22.429688 6.039063zm0 0" fill="#80d398"/><path d="m271.847656 467c0 24.898438-20.097656 45-45 45v-90c24.902344 0 45 20.097656 45 45zm0 0" fill="#80d398"/><path d="m226.847656 241v-90c24.902344 0 45 20.097656 45 45 0 24.898438-20.097656 45-45 45zm0 0" fill="#00ab94"/><path d="m226.847656 90v-90c24.902344 0 45 20.097656 45 45 0 24.898438-20.097656 45-45 45zm0 0" fill="#80d398"/><path d="m301.847656 316v45h-75v-120c41.402344 0 75 33.601562 75 75zm0 0" fill="#00ab94"/></svg>