<svg id="Layer_1" data-name="Layer 1" xmlns="http://www.w3.org/2000/svg" viewBox="0 0 512 511.9"><defs><style>.cls-1{fill:#bf8100;}</style></defs><title>target</title><path class="cls-1" d="M375,225.12A12.08,12.08,0,1,0,352.57,234a132,132,0,0,1,9.25,48.77c0,73.14-59.5,132.64-132.65,132.64S96.52,355.92,96.52,282.78,156,150.13,229.17,150.13A131.48,131.48,0,0,1,278,159.44,12.08,12.08,0,0,0,287,137a155.67,155.67,0,0,0-57.79-11c-86.46,0-156.81,70.34-156.81,156.81s70.34,156.8,156.81,156.8S386,369.24,386,282.78A156.41,156.41,0,0,0,375,225.12Z" transform="translate(0 -0.05)"/><path class="cls-1" d="M449.51,219.61a12.08,12.08,0,0,0-23.23,6.64,205.33,205.33,0,0,1,7.89,56.52c0,113.05-92,205-205,205s-205-92-205-205,92-205,205-205a205.11,205.11,0,0,1,56.62,7.93,12.08,12.08,0,0,0,6.67-23.22,229.42,229.42,0,0,0-63.29-8.87C102.81,53.6,0,156.41,0,282.78S102.81,512,229.17,512,458.33,409.14,458.33,282.78A229.71,229.71,0,0,0,449.51,219.61Z" transform="translate(0 -0.05)"/><path class="cls-1" d="M313.28,275.4a12.08,12.08,0,1,0-24.07,2.15c.16,1.72.24,3.48.24,5.23a60.29,60.29,0,1,1-60.28-60.29c1.86,0,3.68.08,5.41.24a12.08,12.08,0,0,0,2.22-24.06c-2.47-.23-5-.34-7.63-.34a84.44,84.44,0,1,0,84.44,84.44C313.61,280.31,313.5,277.83,313.28,275.4Z" transform="translate(0 -0.05)"/><path class="cls-1" d="M510.15,81.26a24.09,24.09,0,0,0-22.33-14.91H445.7V24.23A24.16,24.16,0,0,0,404.46,7.14L334.08,77.52a36,36,0,0,0-10.6,25.62v68.35l-98.17,98.17a12.08,12.08,0,1,0,17.08,17.08l98.17-98.17h68.35A36,36,0,0,0,434.53,178l70.38-70.38A24.09,24.09,0,0,0,510.15,81.26ZM347.64,103.14a12,12,0,0,1,3.53-8.54l70.38-70.36V73.42l-73.92,73.91V103.14Zm69.81,57.74a12.13,12.13,0,0,1-8.53,3.54h-44.2l73.91-73.91h49.19Z" transform="translate(0 -0.05)"/></svg>