<svg id="Layer_1" data-name="Layer 1" xmlns="http://www.w3.org/2000/svg" viewBox="0 0 510.99 511"><defs><style>.cls-1{fill:#8a0094;}</style></defs><title>user</title><path class="cls-1" d="M102.3,84.49l-16.82,16.8A25.41,25.41,0,0,0,82,133.08L97.18,157a185.65,185.65,0,0,0-23.1,55.59l-27.54,6.12a25.4,25.4,0,0,0-20,25v23.77a25.39,25.39,0,0,0,20,24.94l27.53,6.12A185.54,185.54,0,0,0,97.18,354L82,377.91a25.38,25.38,0,0,0,3.48,31.78L102.3,426.5A25.35,25.35,0,0,0,134.07,430L158,414.8a185.67,185.67,0,0,0,55.59,23.11l6.12,27.53a25.42,25.42,0,0,0,25,20h23.77a25.41,25.41,0,0,0,24.94-20l6.12-27.53A185.28,185.28,0,0,0,355,414.8L378.9,430a25.4,25.4,0,0,0,31.79-3.49l16.81-16.81A25.39,25.39,0,0,0,431,377.91L415.8,354a185.56,185.56,0,0,0,23.11-55.59l27.53-6.12a25.42,25.42,0,0,0,20-24.94V243.61a25.42,25.42,0,0,0-20-25h0l-27.52-6.12A185.67,185.67,0,0,0,415.8,157L431,133.08a25.38,25.38,0,0,0-3.49-31.78L410.69,84.49A25.38,25.38,0,0,0,378.91,81L355,96.18a185.54,185.54,0,0,0-55.59-23.1l-6.12-27.54a25.4,25.4,0,0,0-24.94-20H244.61a25.4,25.4,0,0,0-25,20l-6.12,27.54A185.65,185.65,0,0,0,158,96.18L134.08,81A25.35,25.35,0,0,0,102.3,84.49Zm60.36,28.9a168.77,168.77,0,0,1,59.71-24.81,8.51,8.51,0,0,0,6.62-6.5l7.3-32.84a8.47,8.47,0,0,1,8.32-6.67h23.77a8.47,8.47,0,0,1,8.31,6.67L284,82.08a8.51,8.51,0,0,0,6.62,6.5,168.69,168.69,0,0,1,59.71,24.81,8.55,8.55,0,0,0,9.27.09l28.47-18.11a8.47,8.47,0,0,1,10.59,1.16l16.81,16.81a8.46,8.46,0,0,1,1.15,10.6l-18.1,28.46a8.53,8.53,0,0,0,.08,9.27,168.71,168.71,0,0,1,24.82,59.71,8.51,8.51,0,0,0,6.5,6.61l32.83,7.3a8.49,8.49,0,0,1,6.68,8.32v23.77a8.48,8.48,0,0,1-6.68,8.31L429.9,283a8.52,8.52,0,0,0-6.5,6.62,168.51,168.51,0,0,1-24.81,59.71,8.51,8.51,0,0,0-.08,9.27l18.11,28.47a8.48,8.48,0,0,1-1.16,10.59l-16.81,16.81a8.45,8.45,0,0,1-10.6,1.16l-28.46-18.11a8.49,8.49,0,0,0-9.27.09,168.88,168.88,0,0,1-59.71,24.81,8.51,8.51,0,0,0-6.62,6.5l-7.3,32.83a8.48,8.48,0,0,1-8.31,6.68H244.61a8.49,8.49,0,0,1-8.32-6.67L229,428.9a8.52,8.52,0,0,0-6.62-6.5,168.77,168.77,0,0,1-59.71-24.81,8.5,8.5,0,0,0-9.26-.08l-28.47,18.11a8.44,8.44,0,0,1-10.59-1.17l-16.81-16.8a8.47,8.47,0,0,1-1.16-10.6l18.11-28.46a8.51,8.51,0,0,0-.09-9.27,168.69,168.69,0,0,1-24.81-59.71,8.52,8.52,0,0,0-6.5-6.62l-32.84-7.3a8.46,8.46,0,0,1-6.67-8.31V243.61a8.47,8.47,0,0,1,6.67-8.32L83.08,228a8.51,8.51,0,0,0,6.5-6.62,169,169,0,0,1,24.81-59.71,8.5,8.5,0,0,0,.09-9.26L96.37,123.93a8.45,8.45,0,0,1,1.16-10.59l16.81-16.81a8.48,8.48,0,0,1,10.6-1.16l28.46,18.11A8.54,8.54,0,0,0,162.66,113.39Z" transform="translate(-0.99 0)"/><path class="cls-1" d="M201.4,398.39a8.19,8.19,0,0,0,1.94.71,150.53,150.53,0,0,0,106.31,0,8.28,8.28,0,0,0,1.93-.71,153.3,153.3,0,1,0-110.18,0Zm97.68-13.54a134.58,134.58,0,0,1-85.17,0V352.5c.4.58.82,1.17,1.2,1.74,6.9,10.07,14,20.49,31.16,20.49h20.44c17.13,0,24.26-10.42,31.16-20.5.38-.56.81-1.15,1.21-1.73ZM301.9,323a112.89,112.89,0,0,0-18.08,21.64c-6.81,9.93-9.33,13.08-17.11,13.08H246.27c-7.77,0-10.29-3.15-17.1-13.09A113.19,113.19,0,0,0,211.09,323c-14-12.63-13.5-22.77-12.83-36.82.15-3.13.3-6.32.3-9.58a92.18,92.18,0,0,0-2.15-18.51,174.59,174.59,0,0,1-3.47-36.56l0-.09,0-.08c0-6,.11-12.77.5-20.79,2.14-44.22,56-47.17,57.94-47.26h9.86c2.29.1,56.16,3.05,58.3,47.26.39,8,.53,14.84.51,20.8l0,.08,0,.1a175.23,175.23,0,0,1-3.47,36.55,92.19,92.19,0,0,0-2.16,18.51c0,3.27.15,6.46.3,9.59C315.4,300.21,315.89,310.36,301.9,323ZM256.49,119.22a136.16,136.16,0,0,1,59.62,258.62v-44.9A50,50,0,0,0,332,295.39l21.05-10.56A25.45,25.45,0,0,0,367.21,262V238.46a25.58,25.58,0,0,0-25.55-25.55H337c-.09-4.08-.22-8.42-.45-13.19-2.32-47.86-49.82-62.43-75-63.46H251c-24.79,1-72.28,15.6-74.61,63.46-.23,4.77-.36,9.11-.44,13.19h-4.66a25.58,25.58,0,0,0-25.55,25.55V262a25.45,25.45,0,0,0,14.15,22.85L181,295.39a50,50,0,0,0,15.88,37.55v44.9a136.16,136.16,0,0,1,59.62-258.62Zm75,157.36a76.75,76.75,0,0,1,1.86-15.32,184,184,0,0,0,3.58-31.32h4.77a8.54,8.54,0,0,1,8.52,8.52V262a8.49,8.49,0,0,1-4.76,7.63l-14,7Zm-149.92,0v0l-14-7a8.47,8.47,0,0,1-4.74-7.62V238.46a8.52,8.52,0,0,1,8.51-8.52h4.77a185,185,0,0,0,3.58,31.32A76,76,0,0,1,181.53,276.58Z" transform="translate(-0.99 0)"/><path class="cls-1" d="M372.13,24.75a234,234,0,0,1,107.16,99.69l-25.24-5a8.52,8.52,0,0,0-3.34,16.7l42.58,8.52a8.51,8.51,0,0,0,1.67.16h0a8.3,8.3,0,0,0,3.25-.71,3,3,0,0,1,.32-.07,7.62,7.62,0,0,0,.64-.48,7.34,7.34,0,0,0,2.45-2.13,9.2,9.2,0,0,0,1.42-2.79c.07-.24.21-.42.26-.66l8.52-42.59A8.52,8.52,0,0,0,495.12,92l-3.8,19a251,251,0,0,0-112-101.71,8.52,8.52,0,1,0-7.2,15.44Z" transform="translate(-0.99 0)"/><path class="cls-1" d="M7.83,425.66a7.85,7.85,0,0,0,1.68.17A8.52,8.52,0,0,0,17.86,419l3.8-19a250.93,250.93,0,0,0,112,101.7,8.52,8.52,0,1,0,7.2-15.44A234,234,0,0,1,33.7,386.55l25.23,5.05a8.52,8.52,0,1,0,3.35-16.71l-42.59-8.51a7.69,7.69,0,0,0-1,0,7.44,7.44,0,0,0-3.44.42,8.08,8.08,0,0,0-.85.2c-.19.08-.3.26-.48.35a8.51,8.51,0,0,0-1.49,1.09,8.68,8.68,0,0,0-1.05,1.05,11.07,11.07,0,0,0-1.5,3,6.32,6.32,0,0,0-.25.6L1.15,415.64A8.52,8.52,0,0,0,7.83,425.66Z" transform="translate(-0.99 0)"/><path class="cls-1" d="M502.68,378.33a8.51,8.51,0,0,0-15.43-7.2,234,234,0,0,1-99.69,107.16l5.05-25.24a8.52,8.52,0,1,0-16.7-3.34l-8.52,42.59a7.06,7.06,0,0,0,0,.92,7.42,7.42,0,0,0,.4,3.4,2.6,2.6,0,0,0,.68,1.62,8.21,8.21,0,0,0,2.17,2.45c.15.12.27.26.43.37a8.59,8.59,0,0,0,2.74,1.15c.09,0,.16.08.26.1l42.58,8.52A8.51,8.51,0,0,0,420,494.14l-19-3.81A250.89,250.89,0,0,0,502.68,378.33Z" transform="translate(-0.99 0)"/><path class="cls-1" d="M14.42,144a8.53,8.53,0,0,0,11.32-4.12A234,234,0,0,1,125.42,32.7l-5,25.23a8.5,8.5,0,0,0,6.67,10,8.73,8.73,0,0,0,1.69.17,8.51,8.51,0,0,0,8.34-6.84l8.52-42.59q0-.47,0-.93a8.43,8.43,0,0,0,0-1.74,8.45,8.45,0,0,0-.4-1.65,7.39,7.39,0,0,0-.22-.93c-.09-.2-.27-.32-.38-.52a8.22,8.22,0,0,0-1-1.4,9.61,9.61,0,0,0-1.1-1.11,8.19,8.19,0,0,0-1.4-.83,8.28,8.28,0,0,0-1.53-.65c-.22-.06-.4-.21-.63-.26L96.33.15A8.52,8.52,0,0,0,93,16.85l19,3.81a250.89,250.89,0,0,0-101.71,112A8.52,8.52,0,0,0,14.42,144Z" transform="translate(-0.99 0)"/></svg>